<?xml version="1.0" encoding="utf-8"?>
<!-- Generator: Adobe Illustrator 23.0.2, SVG Export Plug-In . SVG Version: 6.00 Build 0)  -->
<svg version="1.1" id="圖層_1" xmlns="http://www.w3.org/2000/svg" xmlns:xlink="http://www.w3.org/1999/xlink" x="0px" y="0px"
	 viewBox="0 0 45 45" style="enable-background:new 0 0 45 45;" xml:space="preserve">
<style type="text/css">
	.st0{fill:#35A936;}
	.st1{fill:#FFFFFF;}
	.st2{fill:#D5EA50;}
	.st3{fill-rule:evenodd;clip-rule:evenodd;fill:#D5EA50;}
</style>
<path class="st0" d="M-266.3,224.3h-170c-83.5,0-151.2-67.7-151.2-151.2v-250.5c0-83.5,67.7-151.2,151.2-151.2h170
	c83.5,0,151.2,67.7,151.2,151.2V73.1C-115.1,156.6-182.8,224.3-266.3,224.3z"/>
<g>
	<path class="st1" d="M-448.2-263.3v-1.9h7v1.9H-448.2z M-406.9-280.8c0.2,0.2,0.3,0.5,0.3,0.8c0,0.3-0.1,0.5-0.2,0.6
		c-0.3,0.4-0.6,0.9-0.8,1.2h9.2c1.3,0,2,0.6,2,1.9v18.7c0,1.2-0.7,1.8-2,1.8h-17.7c-1.2,0-1.8-0.6-1.8-1.8v-18.7
		c0-1.2,0.6-1.9,1.8-1.9h6.3c0.1-0.2,0.2-0.3,0.3-0.5c0.4-0.6,0.8-1.3,1.1-2c0.2-0.3,0.5-0.4,0.9-0.4
		C-407.4-281.1-407.1-281-406.9-280.8L-406.9-280.8z M-398.6-271.4v-4c0-0.5-0.3-0.8-0.8-0.8h-16c-0.4,0-0.6,0.3-0.6,0.8v4H-398.6
		L-398.6-271.4z M-398.6-264.7v-4.8H-416v4.8H-398.6z M-398.6-258.4v-4.3H-416v4.3c0,0.5,0.2,0.8,0.6,0.8h16
		C-398.8-257.6-398.6-257.9-398.6-258.4L-398.6-258.4z M-380.4-276.7v-3.2c0-0.7,0.4-1.1,1.1-1.1c0.7,0,1.1,0.4,1.1,1.1v3.2h8.6
		c1.3,0,2,0.6,2,1.8v16.5c0,1.2-0.7,1.9-2,1.9h-19.5c-1.3,0-1.9-0.6-1.9-1.9v-16.5c0-1.2,0.6-1.8,1.9-1.8H-380.4z M-380.4-268.2
		v-6.6h-7.5c-0.6,0-0.9,0.3-0.9,1v5.6H-380.4z M-380.4-266.1h-8.4v6.7c0,0.7,0.3,1,0.9,1h7.5C-380.4-258.4-380.4-266.1-380.4-266.1z
		 M-378.2-268.2h8.5v-5.6c0-0.6-0.3-1-1-1h-7.5V-268.2z M-369.7-259.4v-6.7h-8.5v7.7h7.5C-370-258.4-369.7-258.7-369.7-259.4z
		 M-356.8-273.3c0.2,0.2,0.4,0.4,0.4,0.7c0,0.1-0.1,0.3-0.1,0.5c-0.6,1.3-1.3,2.4-2.1,3.4v12.4c0,0.7-0.3,1-1,1c-0.7,0-1-0.3-1-1
		v-10.3c-0.4,0.4-0.9,0.8-1.4,1.1c-0.3,0.3-0.6,0.4-0.8,0.4c-0.7,0-1.1-0.3-1.1-1c0-0.2,0.1-0.4,0.2-0.6c1.2-0.8,2.2-1.7,3.1-2.7
		c1-1,1.8-2.2,2.4-3.6c0.1-0.4,0.3-0.7,0.7-0.7C-357.3-273.5-357-273.5-356.8-273.3L-356.8-273.3z M-357.4-280.5
		c0.2,0.2,0.4,0.4,0.4,0.7c0,0.1-0.1,0.3-0.1,0.5c-0.6,1.5-1.3,2.7-2.2,3.8c-0.8,1-1.7,2-2.7,2.8c-0.3,0.3-0.5,0.4-0.7,0.4
		c-0.7,0-1.1-0.3-1.1-0.9c0-0.2,0.1-0.4,0.2-0.6c1-0.8,1.9-1.7,2.7-2.7c0.8-1,1.5-2.2,2.1-3.6c0.1-0.4,0.3-0.7,0.6-0.7
		C-357.8-280.8-357.6-280.7-357.4-280.5z M-338.6-272.1c0,0.7-0.3,1-1,1h-4v12.5c0,2.2-1,3.3-3.1,3.3c-1.3,0-3-0.3-5.2-0.9
		c-0.5-0.2-0.8-0.5-0.8-1c0-0.7,0.3-1,0.9-1.1c0.2,0,0.5,0.1,0.9,0.1c2.2,0.5,3.7,0.8,4.4,0.8c0.5,0,0.8-0.5,0.8-1.7v-12.1h-8.7
		c-0.7,0-1-0.3-1-1c0-0.6,0.3-1,1-1h14.8C-338.9-273.1-338.6-272.8-338.6-272.1L-338.6-272.1z M-339.8-278.7c0,0.7-0.3,1-1,1H-353
		c-0.7,0-1-0.3-1-1c0-0.6,0.3-1,1-1h12.2C-340.1-279.6-339.8-279.3-339.8-278.7z M-329.4-280v2.4h2.6c0.6,0,0.9,0.3,0.9,0.9
		c0,0.7-0.3,1-0.9,1h-4.4c0,1.3,0,2.5-0.1,3.6h2.7c1.3,0,2,0.6,2,1.8c0,4.5-0.1,8-0.4,10.5c-0.2,1.7-0.5,2.8-1,3.4
		c-0.5,0.6-1.3,0.9-2.2,0.9c-0.4,0-0.9-0.1-1.5-0.3c-0.5-0.2-0.8-0.5-0.8-1c0-0.7,0.3-1.1,1-1.1c0.6,0.2,1.1,0.3,1.3,0.3
		c0.4,0,0.8-0.2,1-0.7c0.2-0.6,0.4-1.4,0.5-2.4c0.2-1.6,0.3-4.6,0.3-8.9c0-0.5-0.2-0.8-0.6-0.8h-2.1c-0.1,1.5-0.2,2.9-0.3,4.2
		c-0.5,3.9-1.3,7.3-2.6,10.3c-0.2,0.3-0.5,0.4-0.8,0.4c-0.8,0-1.1-0.4-1.1-1.1c0-0.1,0.1-0.3,0.2-0.6c1.1-2.8,2-6.1,2.4-9.7
		c0.3-2.8,0.4-5.8,0.4-9h-1.5c-0.6,0-0.9-0.3-0.9-1c0-0.6,0.3-0.9,0.9-0.9h3.1v-2.4c0-0.6,0.3-1,1-1
		C-329.8-281-329.4-280.6-329.4-280L-329.4-280z M-321.5-280.3c-0.1,0.8-0.2,1.5-0.3,2.1h10c0.6,0,0.9,0.3,0.9,0.9
		c0,0.7-0.3,1-0.9,1h-10.5c0,0.1-0.1,0.1-0.1,0.2c-0.6,1.4-1.3,2.6-2.2,3.6c-0.4,0.4-0.8,0.5-1.1,0.5c-0.8,0-1.2-0.4-1.2-1.1
		c0-0.1,0.1-0.3,0.4-0.6c1-1,1.7-2,2.2-3c0.4-0.9,0.6-2.1,0.8-3.5c0-0.6,0.3-0.9,1-0.9C-321.9-281.2-321.5-280.9-321.5-280.3
		L-321.5-280.3z M-312.3-273.5c0,0.6-0.4,1-1.1,1.1c-1.5,0.4-2.9,0.7-4.3,0.8c0.3,2.1,0.7,3.8,1.1,5.1c1.3-1,2.5-2,3.3-2.8
		c0.3-0.3,0.5-0.4,0.8-0.4c0.6,0,1,0.3,1,1c0,0.3-0.1,0.6-0.4,0.9c-1.1,1.1-2.5,2.1-4,3.1c0.3,0.8,0.7,1.6,1.1,2.4
		c0.7,1.4,1.9,3,3.6,5c0.4,0.3,0.7,0.6,0.7,0.9c0,0.6-0.3,1-1,1c-0.3,0-0.6-0.1-1-0.3c-1.4-1.4-2.6-2.8-3.4-4.4
		c-0.9-1.3-1.6-3-2.2-5c-0.5-1.5-0.9-3.6-1.3-6.1c-0.6,0.1-1.1,0.1-1.5,0.1s-0.7,0.3-0.7,0.8v11.7c0.8-0.4,1.7-1,2.9-1.8l0.3-0.1
		c0.7,0,1,0.4,1,1.1c0,0.3-0.1,0.5-0.4,0.7c-0.7,0.6-1.5,1.2-2.6,1.8c-1.4,0.8-2.6,1.3-3.8,1.8c-0.2,0.1-0.4,0.1-0.5,0.1
		c-0.7,0-1-0.3-1-1c0-0.6,0.3-1,0.8-1.1l1.5-0.6v-13.1c0-0.7,0.2-1.2,0.5-1.5c0.3-0.3,0.8-0.4,1.6-0.4c2.7-0.1,5.5-0.6,8.3-1.4
		C-312.7-274.5-312.3-274.2-312.3-273.5z M-298.8-276.2c0.2,0.2,0.3,0.4,0.3,0.6c0,0.3-0.1,0.6-0.2,0.8c-0.1,0.1-0.1,0.2-0.2,0.2
		h9.9c1.3,0,2,0.5,2,1.4c0,0.3-0.3,0.8-0.9,1.4c-1.3,1.3-2.9,2.4-4.6,3.3c-0.2,0.1-0.3,0.2-0.4,0.2c0.8,0.3,1.5,0.4,2.3,0.6
		c1.8,0.3,4.3,0.5,7.5,0.5c0.6,0,1,0.3,1,0.9c0,0.8-0.4,1.2-1.3,1.2c-1.5,0-3.2-0.1-5.3-0.4c-2.6-0.4-4.8-1-6.5-1.6
		c-0.8,0.4-1.7,0.7-2.5,1c-2.6,0.9-5,1.6-7.3,2c-0.9,0.2-1.5,0.3-1.8,0.3c-0.8,0-1.2-0.4-1.2-1.1c0-0.4,0.3-0.8,0.9-0.9
		c2.4-0.4,4.3-0.8,5.7-1.1c1.4-0.3,2.7-0.7,4-1.2c-1.2-0.6-2.1-1.1-2.9-1.7c-0.9-0.6-1.5-1.1-1.8-1.4c-0.1,0.1-0.3,0.2-0.4,0.3
		c-0.8,0.6-1.8,1.1-2.7,1.6c-0.3,0.2-0.5,0.2-0.6,0.2c-0.3,0-0.5-0.1-0.6-0.3c-0.2-0.2-0.3-0.5-0.3-0.8c0-0.3,0.2-0.6,0.6-0.8
		c1-0.4,1.8-1,2.5-1.5c0.6-0.4,1.2-1,1.8-1.5c0.4-0.4,1-1.1,1.7-2c0.2-0.2,0.4-0.3,0.6-0.3C-299.3-276.5-299.1-276.4-298.8-276.2
		L-298.8-276.2z M-294.1-280v1.3h9.3c0.8,0,1.4,0.3,1.8,0.8c0.3,0.4,0.5,1.1,0.5,1.9c0,0.6-0.1,1.3-0.1,2c-0.2,0.6-0.6,0.9-1.2,0.9
		c-0.7,0-1.1-0.4-1.1-1.1c0.1-0.9,0.2-1.4,0.2-1.7c0-0.6-0.3-1-0.8-1h-18.9c-0.6,0-0.9,0.3-0.9,0.9v1.9c0,0.7-0.4,1-1.1,1
		s-1-0.3-1-1v-2.6c0-1.3,0.6-2,2-2h9.1v-1.3c0-0.7,0.4-1.1,1.1-1.1S-294.1-280.7-294.1-280z M-287.9-264.3c1.5,0,2.3,0.8,2.3,2.2
		v4.1c0,1.5-0.8,2.2-2.3,2.2h-14.2c-1.5,0-2.2-0.7-2.2-2.2v-4.1c0-1.5,0.7-2.2,2.2-2.2H-287.9z M-287.7-258.6v-2.9
		c0-0.6-0.3-0.9-0.9-0.9h-12.8c-0.5,0-0.8,0.3-0.8,0.9v2.9c0,0.6,0.3,0.9,0.8,0.9h12.8C-288-257.8-287.7-258-287.7-258.6z
		 M-295.9-269.3l0.6,0.3c1.6-0.7,3.1-1.7,4.6-2.8c0.4-0.3,0.6-0.5,0.6-0.6c0-0.1-0.2-0.2-0.4-0.2h-9.6c-0.2,0-0.3,0-0.4-0.1
		l-0.1,0.1l-0.1,0.1C-299.2-271.2-297.6-270.1-295.9-269.3L-295.9-269.3z M-261.4-263.3v-1.9h7v1.9H-261.4z"/>
</g>
<g>
	<g>
		<path class="st2" d="M-386.3,36.2c-1.9,0-3.4-1.5-3.4-3.4s1.5-3.4,3.4-3.4s3.4,1.5,3.4,3.4S-384.4,36.2-386.3,36.2z M-386.3,31.2
			c-0.9,0-1.6,0.7-1.6,1.6s0.7,1.6,1.6,1.6c0.9,0,1.6-0.7,1.6-1.6S-385.4,31.2-386.3,31.2z"/>
		<path class="st3" d="M-338.8,32.8c0,1.4-1.1,2.5-2.5,2.5s-2.5-1.1-2.5-2.5s1.1-2.5,2.5-2.5S-338.8,31.4-338.8,32.8"/>
		<path class="st2" d="M-341.3,36.2c-1.9,0-3.4-1.5-3.4-3.4s1.5-3.4,3.4-3.4s3.4,1.5,3.4,3.4S-339.4,36.2-341.3,36.2z M-341.3,31.2
			c-0.9,0-1.6,0.7-1.6,1.6s0.7,1.6,1.6,1.6c0.9,0,1.6-0.7,1.6-1.6S-340.4,31.2-341.3,31.2z M-380.1,33.7c-0.5,0-0.9-0.4-0.9-0.9
			c0-3-2.4-5.4-5.4-5.4s-5.4,2.4-5.4,5.4c0,0.5-0.4,0.9-0.9,0.9s-0.9-0.4-0.9-0.9c0-3.9,3.2-7.1,7.1-7.1s7.1,3.2,7.1,7.1
			C-379.2,33.3-379.6,33.7-380.1,33.7L-380.1,33.7z"/>
		<path class="st2" d="M-335,33.7c-0.5,0-0.9-0.4-0.9-0.9c0-3-2.4-5.4-5.4-5.4s-5.4,2.4-5.4,5.4c0,0.5-0.4,0.9-0.9,0.9
			s-0.9-0.4-0.9-0.9c0-3.9,3.2-7.1,7.1-7.1s7.1,3.2,7.1,7.1C-334.1,33.3-334.5,33.7-335,33.7L-335,33.7z"/>
		<path class="st2" d="M-347.5,33.7h-32.6c-0.5,0-0.9-0.4-0.9-0.9s0.4-0.9,0.9-0.9h32.5c0.5,0,0.9,0.4,0.9,0.9S-347,33.7-347.5,33.7
			L-347.5,33.7z M-323.8,33.7h-11.3c-0.5,0-0.9-0.4-0.9-0.9s0.4-0.9,0.9-0.9h11.3c0.5,0,0.9,0.4,0.9,0.9S-323.3,33.7-323.8,33.7z"/>
		<path class="st2" d="M-326.3,33.7c-0.5,0-0.9-0.4-0.9-0.9V14c0-0.5,0.4-0.9,0.9-0.9s0.9,0.4,0.9,0.9v18.8
			C-325.4,33.3-325.8,33.7-326.3,33.7z M-332.5,33.7c-0.5,0-0.9-0.4-0.9-0.9V14c0-0.5,0.4-0.9,0.9-0.9s0.9,0.4,0.9,0.9v18.8
			C-331.6,33.3-332,33.7-332.5,33.7z"/>
		<path class="st2" d="M-323.8,15h-71.3c-0.5,0-0.9-0.4-0.9-0.9s0.4-0.9,0.9-0.9h71.3c0.5,0,0.9,0.4,0.9,0.9S-323.3,15-323.8,15z"/>
		<path class="st2" d="M-326.3,15c-0.5,0-0.9-0.4-0.9-0.9V2.8c0-0.5,0.4-0.9,0.9-0.9s0.9,0.4,0.9,0.9v11.3
			C-325.4,14.5-325.8,15-326.3,15z M-332.5-2.6h-53.8c-0.5,0-0.9-0.4-0.9-0.9s0.4-0.9,0.9-0.9h53.8c0.5,0,0.9,0.4,0.9,0.9
			S-332-2.6-332.5-2.6z M-395.1,15h-0.3c-0.5-0.1-0.7-0.6-0.6-1.1l3.8-12.5c0.1-0.5,0.6-0.7,1.1-0.6s0.7,0.6,0.6,1.1l-3.8,12.5
			C-394.3,14.7-394.7,15-395.1,15z M-392.6,22.5h-0.1c-0.5-0.1-0.8-0.5-0.7-1l1.2-7.5c0.1-0.5,0.5-0.8,1-0.7c0.5,0.1,0.8,0.5,0.7,1
			l-1.2,7.5C-391.7,22.1-392.1,22.5-392.6,22.5z"/>
		<path class="st2" d="M-396.3,25c-0.3,0-0.6-0.1-0.7-0.4c-0.3-0.4-0.2-1,0.2-1.2l3.8-2.5c0.4-0.3,1-0.2,1.2,0.2
			c0.3,0.4,0.2,1-0.2,1.2l-3.8,2.5C-396,24.9-396.1,25-396.3,25L-396.3,25z"/>
		<path class="st2" d="M-396.3,33.7c-0.5,0-0.9-0.4-0.9-0.9V24c0-0.5,0.4-0.9,0.9-0.9s0.9,0.4,0.9,0.9v8.8
			C-395.4,33.3-395.8,33.7-396.3,33.7z"/>
		<path class="st2" d="M-392.6,33.7h-3.8c-0.5,0-0.9-0.4-0.9-0.9s0.4-0.9,0.9-0.9h3.8c0.5,0,0.9,0.4,0.9,0.9S-392.1,33.7-392.6,33.7
			z M-381.3,22.5c-0.5,0-0.9-0.4-0.9-0.9v-7.5c0-0.5,0.4-0.9,0.9-0.9s0.9,0.4,0.9,0.9v7.5C-380.4,22.1-380.8,22.5-381.3,22.5z"/>
		<path class="st2" d="M-341.3,22.5h-51.3c-0.5,0-0.9-0.4-0.9-0.9s0.4-0.9,0.9-0.9h51.3c0.5,0,0.9,0.4,0.9,0.9
			S-340.8,22.5-341.3,22.5z"/>
		<path class="st2" d="M-341.3,22.5c-0.5,0-0.9-0.4-0.9-0.9v-7.5c0-0.5,0.4-0.9,0.9-0.9s0.9,0.4,0.9,0.9v7.5
			C-340.4,22.1-340.8,22.5-341.3,22.5z M-351.3,22.5c-0.5,0-0.9-0.4-0.9-0.9v-7.5c0-0.5,0.4-0.9,0.9-0.9s0.9,0.4,0.9,0.9v7.5
			C-350.4,22.1-350.8,22.5-351.3,22.5z M-371.3,22.5c-0.5,0-0.9-0.4-0.9-0.9v-7.5c0-0.5,0.4-0.9,0.9-0.9s0.9,0.4,0.9,0.9v7.5
			C-370.4,22.1-370.8,22.5-371.3,22.5z M-361.3,22.5c-0.5,0-0.9-0.4-0.9-0.9v-7.5c0-0.5,0.4-0.9,0.9-0.9s0.9,0.4,0.9,0.9v7.5
			C-360.4,22.1-360.8,22.5-361.3,22.5z M-381.3,9.9c-0.5,0-0.9-0.4-0.9-0.9V1.5c0-0.5,0.4-0.9,0.9-0.9s0.9,0.4,0.9,0.9V9
			C-380.4,9.5-380.8,9.9-381.3,9.9z"/>
		<path class="st2" d="M-331.3,9.9h-61.3c-0.5,0-0.9-0.4-0.9-0.9s0.4-0.9,0.9-0.9h61.3c0.5,0,0.9,0.4,0.9,0.9S-330.8,9.9-331.3,9.9z
			"/>
		<path class="st2" d="M-341.3,9.9c-0.5,0-0.9-0.4-0.9-0.9V1.5c0-0.5,0.4-0.9,0.9-0.9s0.9,0.4,0.9,0.9V9
			C-340.4,9.5-340.8,9.9-341.3,9.9z M-351.3,9.9c-0.5,0-0.9-0.4-0.9-0.9V1.5c0-0.5,0.4-0.9,0.9-0.9s0.9,0.4,0.9,0.9V9
			C-350.4,9.5-350.8,9.9-351.3,9.9z M-371.3,9.9c-0.5,0-0.9-0.4-0.9-0.9V1.5c0-0.5,0.4-0.9,0.9-0.9s0.9,0.4,0.9,0.9V9
			C-370.4,9.5-370.8,9.9-371.3,9.9z M-361.3,9.9c-0.5,0-0.9-0.4-0.9-0.9V1.5c0-0.5,0.4-0.9,0.9-0.9s0.9,0.4,0.9,0.9V9
			C-360.4,9.5-360.8,9.9-361.3,9.9z M-331.3,9.9c-0.5,0-0.9-0.4-0.9-0.9V4c0-0.5,0.4-0.9,0.9-0.9s0.9,0.4,0.9,0.9v5
			C-330.4,9.5-330.8,9.9-331.3,9.9z"/>
		<path class="st2" d="M-333.8,2.4h-57.5c-0.5,0-0.9-0.4-0.9-0.9s0.4-0.9,0.9-0.9h57.5c0.5,0,0.9,0.4,0.9,0.9S-333.3,2.4-333.8,2.4z
			"/>
		<path class="st2" d="M-331.3,4.9c-0.5,0-0.9-0.4-0.9-0.9c0-0.9-0.7-1.6-1.6-1.6c-0.5,0-0.9-0.4-0.9-0.9s0.4-0.9,0.9-0.9
			c1.9,0,3.4,1.5,3.4,3.4C-330.4,4.5-330.8,4.9-331.3,4.9z M-326.3,3.7c-0.5,0-0.9-0.4-0.9-0.9c0-3-2.4-5.4-5.4-5.4
			c-0.5,0-0.9-0.4-0.9-0.9s0.4-0.9,0.9-0.9c3.9,0,7.1,3.2,7.1,7.1C-325.4,3.3-325.8,3.7-326.3,3.7L-326.3,3.7z M-391.3,2.4h-0.2
			c-0.4-0.1-0.7-0.5-0.7-0.9c0-0.1,0-0.1,0.1-0.2c1.1-3.8,3-5.7,5.9-5.7c0.5,0,0.9,0.4,0.9,0.9s-0.4,0.9-0.9,0.9
			c-2,0-3.3,1.4-4.1,4.3C-390.6,2.2-390.9,2.4-391.3,2.4L-391.3,2.4z M-393.8,26.2h-2.5c-0.5,0-0.9-0.4-0.9-0.9s0.4-0.9,0.9-0.9h2.5
			c0.5,0,0.9,0.4,0.9,0.9S-393.3,26.2-393.8,26.2z"/>
	</g>
	<g>
		<path class="st2" d="M-312.8,26.3l2-0.7c0.5-0.2,0.3-0.8-0.2-0.8h-61.6c-0.3,0-0.5,0.2-0.5,0.4v23.5c0,0.2,0.2,0.4,0.5,0.4h61.8
			c0.6,0,0.7-0.6,0.2-0.8l-2.2-0.9c-0.4-0.2-0.4-0.6,0-0.8l3.2-1.2c0.4-0.1,0.4-0.6,0-0.8l-3.2-1.3c-0.4-0.2-0.4-0.6,0-0.8l3.2-1.2
			c0.4-0.1,0.4-0.6,0-0.8l-3.2-1.3c-0.4-0.2-0.4-0.6,0-0.8l3.2-1.2c0.4-0.1,0.4-0.6,0-0.8l-3.2-1.3c-0.4-0.2-0.4-0.6,0-0.8l3.2-1.2
			c0.4-0.1,0.4-0.6,0-0.8l-3.2-1.3c-0.4-0.2-0.4-0.6,0-0.8l3.2-1.2c0.4-0.1,0.4-0.6,0-0.8l-3.2-1.3
			C-313.3,26.9-313.2,26.5-312.8,26.3L-312.8,26.3z"/>
		<g>
			<path class="st0" d="M-367.9,42.2l1.3-1.8c0.8,0.8,1.9,1.4,3.1,1.4c1.4,0,2.4-0.7,2.4-2c0-1.4-0.8-2.2-3.9-2.2v-2
				c2.6,0,3.4-0.9,3.4-2.1c0-1.1-0.7-1.7-1.9-1.8c-1,0-1.8,0.5-2.7,1.3l-1.4-1.7c1.2-1.1,2.6-1.7,4.2-1.7c2.7,0,4.6,1.3,4.6,3.7
				c0,1.5-0.9,2.6-2.4,3.2v0.1c1.6,0.4,2.8,1.6,2.8,3.5c0,2.6-2.3,4.1-4.9,4.1C-365.5,44.1-367,43.3-367.9,42.2L-367.9,42.2z
				 M-356.4,36.8c0-4.9,1.9-7.2,4.8-7.2c2.8,0,4.7,2.4,4.7,7.2c0,4.8-1.9,7.3-4.7,7.3C-354.5,44.1-356.4,41.6-356.4,36.8z
				 M-349.6,36.8c0-3.9-0.9-5.1-2.1-5.1c-1.2,0-2.1,1.1-2.1,5.1c0,3.9,0.9,5.2,2.1,5.2S-349.6,40.8-349.6,36.8z M-343.8,38.4
				c0-1.5,0.8-2.4,1.9-2.4s1.9,0.9,1.9,2.4c0,1.6-0.8,2.5-1.9,2.5C-343,40.9-343.8,40-343.8,38.4z M-341.1,38.4
				c0-1.1-0.4-1.6-0.8-1.6c-0.4,0-0.8,0.4-0.8,1.6c0,1.1,0.3,1.6,0.8,1.6S-341.1,39.6-341.1,38.4z M-337.5,36h0.9l-4.2,8h-0.9
				L-337.5,36z M-338.2,41.6c0-1.6,0.8-2.4,1.9-2.4s1.9,0.9,1.9,2.4s-0.8,2.5-1.9,2.5C-337.4,44.1-338.2,43.1-338.2,41.6z
				 M-335.5,41.6c0-1.1-0.4-1.6-0.8-1.6c-0.4,0-0.8,0.4-0.8,1.6c0,1.1,0.4,1.6,0.8,1.6C-335.9,43.1-335.5,42.7-335.5,41.6z
				 M-331.3,41c0-2,1.4-3.1,2.8-3.1s2.8,1.1,2.8,3.1c0,1.9-1.4,3.1-2.8,3.1S-331.3,42.9-331.3,41z M-327.2,41c0-1.1-0.5-1.8-1.2-1.8
				s-1.2,0.7-1.2,1.8s0.5,1.8,1.2,1.8S-327.2,42.1-327.2,41z M-317.6,36.7c-0.2-0.1-0.4-0.1-0.6-0.1c-0.5,0-0.7,0.3-0.7,0.9V38h1.1
				v1.2h-1.1v4.6h-1.5v-4.6h-2.1v4.6h-1.6v-4.6h-0.8v-1.1l0.8-0.1v-0.4c0-1.2,0.6-2.1,2.1-2.1c0.5,0,0.9,0.1,1.2,0.2l-0.3,1.1
				c-0.2-0.1-0.4-0.1-0.7-0.1c-0.5,0-0.8,0.3-0.8,0.9V38h2.1v-0.5c0-1.2,0.6-2.2,2-2.2c0.5,0,0.9,0.1,1.1,0.2L-317.6,36.7
				L-317.6,36.7z"/>
		</g>
	</g>
</g>
<path class="st2" d="M-351.3,73.1c-31.9,0-57.9-26-57.9-57.9s26-57.9,57.9-57.9s57.9,26,57.9,57.9S-319.4,73.1-351.3,73.1
	L-351.3,73.1z M-351.3-40.9c-30.9,0-56.1,25.2-56.1,56.1s25.2,56.1,56.1,56.1s56.1-25.2,56.1-56.1S-320.4-40.9-351.3-40.9
	L-351.3-40.9z"/>
<g>
	<g>
		<path class="st2" d="M-479.4,30.3h-3.7V8.7l0.9,0.5c0.2,0.1,0.4,0.2,0.6,0.2c0.4,0,0.8-0.2,1-0.6l1.8-3c0.2-0.3,0.2-0.6,0.1-0.9
			c-0.1-0.3-0.3-0.5-0.5-0.7l-21.3-12.5c-0.4-0.2-0.8-0.2-1.1,0l-21.3,12.5c-0.3,0.2-0.4,0.4-0.5,0.7c-0.1,0.3,0,0.6,0.1,0.9l1.8,3
			c0.3,0.5,1,0.7,1.6,0.4l0.9-0.5v21.6h-3.7c-0.6,0-1.1,0.5-1.1,1.1v3.8c0,0.6,0.5,1.1,1.1,1.1h43.4c0.6,0,1.1-0.5,1.1-1.1v-3.8
			C-478.3,30.8-478.8,30.3-479.4,30.3L-479.4,30.3z M-480.6,34.2h-20.6v-1.6h20.6V34.2z M-521.7,32.6h9v1.6h-9V32.6z M-481.4,5.7
			l-0.6,1.1L-500.5-4c-0.1,0-0.1-0.1-0.2-0.1h-0.2c-0.3,0-0.5,0-0.8,0.1l-18.5,10.9l-0.6-1.1l19.7-11.6L-481.4,5.7z M-516.9,7.4
			l15.8-9.3l14.8,8.7l1,0.6v22.9h-15.8V17.8c0-0.6-0.5-1.1-1.1-1.1h-9.3c-0.6,0-1.1,0.5-1.1,1.1v12.5h-4.2V7.4
			C-516.8,7.4-516.9,7.4-516.9,7.4z M-510.5,34.2V19h7v6.9h-1.8c-0.6,0-1.1,0.5-1.1,1.1s0.5,1.1,1.1,1.1h1.8v6.1H-510.5z"/>
		<path class="st2" d="M-440.8,26.3l2-0.7c0.5-0.2,0.3-0.8-0.2-0.8h-61.6c-0.3,0-0.5,0.2-0.5,0.4v23.5c0,0.2,0.2,0.4,0.5,0.4h61.8
			c0.6,0,0.7-0.6,0.2-0.8l-2.2-0.9c-0.4-0.2-0.4-0.6,0-0.8l3.2-1.2c0.4-0.1,0.4-0.6,0-0.8l-3.2-1.3c-0.4-0.2-0.4-0.6,0-0.8l3.2-1.2
			c0.4-0.1,0.4-0.6,0-0.8l-3.2-1.3c-0.4-0.2-0.4-0.6,0-0.8l3.2-1.2c0.4-0.1,0.4-0.6,0-0.8l-3.2-1.3c-0.4-0.2-0.4-0.6,0-0.8l3.2-1.2
			c0.4-0.1,0.4-0.6,0-0.8l-3.2-1.3c-0.4-0.2-0.4-0.6,0-0.8l3.2-1.2c0.4-0.1,0.4-0.6,0-0.8l-3.2-1.3C-441.2,27-441.2,26.5-440.8,26.3
			L-440.8,26.3z"/>
		<g>
			<path class="st0" d="M-495.9,37.5h5.2v2h-5.2V37.5z M-481.6,33.3c-0.8-0.7-1.5-1.1-2.4-1.1c-1.1,0-1.7,0.5-1.7,1.6
				c0,2.4,5.8,2,5.8,6.2c0,2.1-1.2,3.6-3.3,4v2.2h-1.9v-2.1c-1.3-0.2-2.8-0.7-3.8-1.7l1.2-1.9c1,0.8,2,1.3,3.1,1.3
				c1.3,0,1.9-0.6,1.9-1.7c0-2.6-5.8-2.3-5.8-6.3c0-2.1,1.2-3.5,3.2-3.9v-2.2h1.9v2.2c1.4,0.2,2.3,0.9,3.1,1.7L-481.6,33.3
				L-481.6,33.3z M-478.2,42.3l1.3-1.8c0.8,0.8,1.8,1.4,3.1,1.4c1.5,0,2.5-0.9,2.5-2.6c0-1.6-0.9-2.5-2.4-2.5
				c-0.8,0-1.3,0.2-2.1,0.7l-1.3-0.8l0.4-6.8h7.5v2.3h-5.1l-0.3,3c0.6-0.3,1-0.4,1.7-0.4c2.4,0,4.3,1.4,4.3,4.5s-2.3,4.9-4.9,4.9
				C-475.7,44.2-477.1,43.3-478.2,42.3L-478.2,42.3z M-466.7,36.8c0-4.9,1.9-7.2,4.8-7.2c2.8,0,4.7,2.4,4.7,7.2
				c0,4.8-1.9,7.3-4.7,7.3C-464.8,44.2-466.7,41.7-466.7,36.8z M-459.8,36.8c0-3.9-0.9-5.1-2.1-5.1c-1.2,0-2.1,1.1-2.1,5.1
				c0,3.9,0.9,5.2,2.1,5.2C-460.7,42-459.8,40.8-459.8,36.8z M-455.5,36.8c0-4.9,1.9-7.2,4.8-7.2c2.8,0,4.7,2.4,4.7,7.2
				c0,4.8-1.9,7.3-4.7,7.3C-453.6,44.2-455.5,41.7-455.5,36.8z M-448.6,36.8c0-3.9-0.9-5.1-2.1-5.1c-1.2,0-2.1,1.1-2.1,5.1
				c0,3.9,0.9,5.2,2.1,5.2S-448.6,40.8-448.6,36.8z"/>
		</g>
		<path class="st2" d="M-465.7-9.1c-3.9,0.9-7.7-1.5-8.6-5.4c-0.3-1.4-0.2-2.8,0.3-4.1c-3.1,1.2-4.9,4.5-4.1,7.9
			c0.8,3.7,4.5,6,8.2,5.1c2.1-0.5,3.7-1.9,4.6-3.7C-465.4-9.2-465.6-9.2-465.7-9.1z"/>
		<g>
			<path class="st0" d="M-460.3,6.9c-2.1,0-3.7-1.9-3.1-3.9c0.2-0.8,0.8-1.5,2-2.1c2.5-1.3,4.4-0.7,5.6,0.4c0.5,0.4,1.1,0.3,1.5-0.2
				c0.2-0.3,0.6-0.6,1.2-0.6c0.7,0,1.2,0.2,1.6,0.5c0.5,0.4,1.3,0.2,1.6-0.4c0.8-1.9,2.9-4.5,8-3c3.3,1,4.4,3.6,4.6,5.7
				c0.2,1.6-1.1,3.1-2.7,3.1L-460.3,6.9L-460.3,6.9z"/>
			<path class="st2" d="M-460.4,7.9c-1.3,0-2.6-0.6-3.3-1.7c-0.8-1-1-2.3-0.6-3.5c0.4-1.1,1.2-2.1,2.5-2.7c2.5-1.3,5-1.1,6.7,0.5
				c0.4-0.5,1-1,2-1.1c0.8,0,1.5,0.2,2.2,0.6c0.8-1.7,3.2-5.3,9.3-3.5c3.9,1.2,5,4.2,5.3,6.6c0.1,1.1-0.2,2.1-0.9,3
				c-0.7,0.8-1.7,1.3-2.8,1.3L-460.4,7.9C-460.3,7.9-460.4,7.9-460.4,7.9L-460.4,7.9z M-458.7,1.1c-0.6,0-1.4,0.2-2.3,0.6
				c-0.8,0.4-1.3,0.9-1.5,1.5c-0.3,0.8,0.1,1.4,0.3,1.7c0.4,0.6,1.1,0.9,1.8,0.9l20.3-0.5c0.5,0,1-0.2,1.3-0.6
				c0.3-0.4,0.5-0.9,0.4-1.4c-0.3-2.6-1.6-4.2-3.9-4.9c-3.4-1-5.7-0.2-6.8,2.4c-0.2,0.6-0.7,1-1.3,1.1c-0.6,0.2-1.2,0.1-1.8-0.3
				c-0.3-0.2-0.6-0.3-1-0.3c-0.3,0-0.4,0.1-0.4,0.2c-0.4,0.5-0.9,0.8-1.5,0.9s-1.1-0.1-1.5-0.5S-457.7,1.1-458.7,1.1L-458.7,1.1z"/>
		</g>
	</g>
	<path class="st2" d="M-479.4,73.1c-31.9,0-57.9-26-57.9-57.9s26-57.9,57.9-57.9s57.9,26,57.9,57.9S-447.5,73.1-479.4,73.1z
		 M-479.4-40.9c-30.9,0-56.1,25.2-56.1,56.1s25.2,56.1,56.1,56.1s56.1-25.2,56.1-56.1S-448.5-40.9-479.4-40.9z"/>
</g>
<path class="st2" d="M-223.2,73.1c-31.9,0-57.9-26-57.9-57.9s26-57.9,57.9-57.9s57.9,26,57.9,57.9S-191.3,73.1-223.2,73.1z
	 M-223.2-40.9c-30.9,0-56.1,25.2-56.1,56.1s25.2,56.1,56.1,56.1s56.1-25.2,56.1-56.1S-192.3-40.9-223.2-40.9z"/>
<path class="st2" d="M-221.2,15.2h-3.2V-3.9l0.8,0.4c0.2,0.1,0.3,0.1,0.5,0.1c0.3,0,0.7-0.2,0.9-0.5l1.6-2.7
	c0.1-0.2,0.2-0.5,0.1-0.8s-0.2-0.5-0.5-0.6l-18.8-11c-0.3-0.2-0.7-0.2-1,0l-18.8,11c-0.2,0.1-0.4,0.4-0.5,0.6
	c-0.1,0.3,0,0.5,0.1,0.8l1.6,2.7c0.3,0.5,0.9,0.6,1.4,0.4l0.8-0.4v19.1h-3.2c-0.6,0-1,0.4-1,1v3.4c0,0.6,0.4,1,1,1h38.4
	c0.6,0,1-0.4,1-1v-3.4C-220.1,15.6-220.6,15.2-221.2,15.2L-221.2,15.2z M-222.2,18.6h-18.2v-1.4h18.2V18.6z M-258.6,17.2h8v1.4h-8
	V17.2z M-222.9-6.6l-0.5,0.9l-16.4-9.6c-0.1,0-0.1-0.1-0.2-0.1h-0.2c-0.2,0-0.5,0-0.7,0.1l-16.4,9.6l-0.5-0.9l17.4-10.2L-222.9-6.6
	L-222.9-6.6z M-254.3-5.1l14-8.2l13.1,7.7l0.9,0.5v20.3h-14V4.1c0-0.6-0.4-1-1-1h-8.2c-0.6,0-1,0.4-1,1v11.1h-3.7L-254.3-5.1
	L-254.3-5.1L-254.3-5.1z M-248.6,18.6V5.2h6.2v6.1h-1.6c-0.6,0-1,0.4-1,1s0.4,1,1,1h1.6v5.4h-6.2V18.6z"/>
<path class="st0" d="M-231.9,31.3h-12.5V16c0-3.4,2.8-6.2,6.2-6.2h0.1c3.4,0,6.2,2.8,6.2,6.2L-231.9,31.3L-231.9,31.3z"/>
<path class="st2" d="M-230.9,32.3h-14.5V16c0-4,3.2-7.2,7.2-7.2h0.1c4,0,7.2,3.2,7.2,7.2L-230.9,32.3L-230.9,32.3z M-243.4,30.3
	h10.5V16c0-2.9-2.3-5.2-5.2-5.2h-0.1c-2.9,0-5.2,2.3-5.2,5.2L-243.4,30.3L-243.4,30.3z"/>
<g transform="translate(335 325)">
	<g transform="translate(6 2)">
		<circle class="st0" cx="-580.5" cy="-321.7" r="5.9"/>
		<path class="st2" d="M-580.6-314.8c-1.3,0-2.7-0.4-3.8-1.1c-1.5-1-2.6-2.6-3-4.4c-0.4-1.8,0-3.7,1-5.2s2.6-2.6,4.4-3
			c3.8-0.8,7.4,1.6,8.2,5.4c0.4,1.8,0,3.7-1,5.2s-2.6,2.6-4.4,3C-579.6-314.8-580.1-314.8-580.6-314.8z M-580.5-326.6
			c-0.3,0-0.7,0-1,0.1c-1.3,0.3-2.4,1-3.1,2.1c-0.7,1.1-1,2.4-0.7,3.7s1,2.4,2.1,3.1c1.1,0.7,2.4,1,3.7,0.7c1.3-0.3,2.4-1,3.1-2.1
			c0.7-1.1,1-2.4,0.7-3.7C-576.2-325-578.3-326.6-580.5-326.6z"/>
	</g>
	<path class="st2" d="M-561-315.2c0,0-5.2,1.9-7.5-1.9C-570.7-321-562.6-319.7-561-315.2z M-520-320.7c0,0-5.2,1.9-7.5-1.9
		C-529.7-326.5-521.6-325.2-520-320.7z M-587.5-312.9c0,0,5.1,2.1,7.6-1.6C-577.6-318.2-585.7-317.3-587.5-312.9z M-544.4-326.8
		c0,0,3.8,4.1,7.5,1.7C-533.1-327.5-540.9-330.1-544.4-326.8z"/>
	<circle class="st2" cx="-577.1" cy="-319.5" r="1"/>
	<circle class="st2" cx="-571.5" cy="-320.6" r="1"/>
	<path class="st2" d="M-571.6-318.9c0.2,1.2-0.5,2.3-1.7,2.6c-1.2,0.2-2.3-0.5-2.6-1.7L-571.6-318.9z M-580.2-321.6l4.4-0.9l1.3-1.1
		l1.5,0.6l2.4-0.6l-1-1.7l-4.3-0.7C-575.9-326-580-324.4-580.2-321.6z"/>
</g>
<g>
	<path class="st0" d="M-211.5,30.2H-224V14.9c0-3.4,2.8-6.2,6.2-6.2h0.1c3.4,0,6.2,2.8,6.2,6.2L-211.5,30.2L-211.5,30.2z"/>
	<path class="st2" d="M-210.5,31.3H-225V15c0-4,3.2-7.2,7.2-7.2h0.1c4,0,7.2,3.2,7.2,7.2L-210.5,31.3L-210.5,31.3z M-223,29.2h10.5
		V14.9c0-2.9-2.3-5.2-5.2-5.2h-0.1c-2.9,0-5.2,2.3-5.2,5.2L-223,29.2L-223,29.2z"/>
	<g transform="translate(364 326)">
		<circle class="st0" cx="-580.6" cy="-321.5" r="5.9"/>
		<path class="st2" d="M-580.6-314.5c-0.9,0-1.7-0.2-2.6-0.5c-1.7-0.7-3.1-2-3.8-3.7s-0.7-3.6-0.1-5.3c0.7-1.7,2-3.1,3.7-3.8
			c1.7-0.7,3.6-0.7,5.3-0.1c1.7,0.7,3.1,2,3.8,3.7s0.7,3.6,0.1,5.3C-575.2-316.2-577.8-314.5-580.6-314.5z M-580.6-326.4
			c-0.7,0-1.3,0.1-1.9,0.4c-1.2,0.5-2.1,1.5-2.6,2.7c-0.5,1.2-0.5,2.6,0,3.8c0.5,1.2,1.5,2.1,2.7,2.6c2.5,1,5.4-0.2,6.4-2.7
			c0.5-1.2,0.5-2.6,0-3.8c-0.5-1.2-1.5-2.1-2.7-2.6C-579.3-326.3-580-326.4-580.6-326.4z"/>
		<circle class="st2" cx="-582.8" cy="-322.7" r="1"/>
		<circle class="st2" cx="-577.5" cy="-320.6" r="1"/>
		<path class="st2" d="M-578.6-319.2c-0.5,1.1-1.7,1.7-2.9,1.2c-1.1-0.5-1.7-1.7-1.2-2.9L-578.6-319.2z M-575.1-322.4l-2.3-0.9
			l-0.7-2l-1.8,1l-1.5-0.6l-2.7-1.1l2.6-1.2l3.7,0.7C-577.9-326.6-575.1-324.7-575.1-322.4z"/>
	</g>
</g>
<g>
	<path class="st2" d="M-192.1,30.4h-14.5V14.1c0-4,3.2-7.2,7.2-7.2h0.1c4,0,7.2,3.2,7.2,7.2L-192.1,30.4L-192.1,30.4z M-204.6,28.3
		h10.5V14c0-2.9-2.3-5.2-5.2-5.2h-0.1c-2.9,0-5.2,2.3-5.2,5.2L-204.6,28.3L-204.6,28.3z"/>
	<g transform="translate(383 325)">
		<circle class="st0" cx="-580.9" cy="-321.7" r="5.9"/>
		<path class="st2" d="M-580.9-314.7c-0.5,0-0.9,0-1.4-0.1c-3.8-0.8-6.2-4.5-5.4-8.2c0.8-3.8,4.5-6.2,8.2-5.4
			c3.8,0.8,6.2,4.5,5.4,8.2c-0.4,1.8-1.4,3.4-3,4.4C-578.2-315.1-579.5-314.7-580.9-314.7z M-580.9-326.6c-2.3,0-4.3,1.6-4.8,3.9
			c-0.5,2.7,1.2,5.3,3.8,5.8c1.3,0.3,2.6,0,3.7-0.7c1.1-0.7,1.8-1.8,2.1-3.1c0.5-2.7-1.2-5.3-3.8-5.8
			C-580.2-326.6-580.6-326.6-580.9-326.6z"/>
		<circle class="st2" cx="-578.3" cy="-321.4" r="1"/>
		<circle class="st2" cx="-583.9" cy="-322.6" r="1"/>
		<path class="st2" d="M-583.8-320.9c-0.2,1.2,0.5,2.3,1.7,2.6c1.2,0.2,2.3-0.5,2.6-1.7C-579.5-320-583.8-320.9-583.8-320.9z
			 M-584.9-325.5l2.4,0.6l1.5-0.6l1.3,1.1l4.4,0.9l-1.4-2.9l-4.2-1.2C-580.9-327.6-584.2-327.4-584.9-325.5z"/>
	</g>
</g>
<g>
	<path class="st2" d="M-189.3,26.3l2-0.7c0.5-0.2,0.3-0.8-0.2-0.8h-61.6c-0.3,0-0.5,0.2-0.5,0.4v23.5c0,0.2,0.2,0.4,0.5,0.4h61.8
		c0.6,0,0.7-0.6,0.2-0.8l-2.2-0.9c-0.4-0.2-0.4-0.6,0-0.8l3.2-1.2c0.4-0.1,0.4-0.6,0-0.8l-3.2-1.3c-0.4-0.2-0.4-0.6,0-0.8l3.2-1.2
		c0.4-0.1,0.4-0.6,0-0.8l-3.2-1.3c-0.4-0.2-0.4-0.6,0-0.8l3.2-1.2c0.4-0.1,0.4-0.6,0-0.8l-3.2-1.3c-0.4-0.2-0.4-0.6,0-0.8l3.2-1.2
		c0.4-0.1,0.4-0.6,0-0.8l-3.2-1.3c-0.4-0.2-0.4-0.6,0-0.8l3.2-1.2c0.4-0.1,0.4-0.6,0-0.8l-3.2-1.3C-189.7,27-189.7,26.5-189.3,26.3
		L-189.3,26.3z"/>
	<g>
		<path class="st0" d="M-244.4,37.5h5.2v2h-5.2V37.5z M-230.1,33.3c-0.8-0.7-1.5-1.1-2.4-1.1c-1.1,0-1.7,0.5-1.7,1.6
			c0,2.4,5.8,2,5.8,6.2c0,2.1-1.2,3.6-3.3,4v2.2h-1.9v-2.1c-1.3-0.2-2.8-0.7-3.8-1.7l1.2-1.9c1,0.8,2,1.3,3.1,1.3
			c1.3,0,1.9-0.6,1.9-1.7c0-2.6-5.8-2.3-5.8-6.3c0-2.1,1.2-3.5,3.2-3.9v-2.2h1.9v2.2c1.4,0.2,2.3,0.9,3.1,1.7L-230.1,33.3z
			 M-226.7,42.3l1.3-1.8c0.8,0.8,1.8,1.4,3.1,1.4c1.5,0,2.5-0.9,2.5-2.6c0-1.6-0.9-2.5-2.4-2.5c-0.8,0-1.3,0.2-2.1,0.7l-1.3-0.8
			l0.4-6.8h7.5v2.3h-5.1l-0.3,3c0.6-0.3,1-0.4,1.7-0.4c2.4,0,4.3,1.4,4.3,4.5s-2.3,4.9-4.9,4.9C-224.2,44.2-225.6,43.3-226.7,42.3
			L-226.7,42.3z M-215.2,36.8c0-4.9,1.9-7.2,4.8-7.2c2.8,0,4.7,2.4,4.7,7.2c0,4.8-1.9,7.3-4.7,7.3
			C-213.3,44.2-215.2,41.7-215.2,36.8z M-208.3,36.8c0-3.9-0.9-5.1-2.1-5.1s-2.1,1.1-2.1,5.1c0,3.9,0.9,5.2,2.1,5.2
			S-208.3,40.8-208.3,36.8z M-204,36.8c0-4.9,1.9-7.2,4.8-7.2c2.8,0,4.7,2.4,4.7,7.2c0,4.8-1.9,7.3-4.7,7.3
			C-202.1,44.2-204,41.7-204,36.8z M-197.1,36.8c0-3.9-0.9-5.1-2.1-5.1s-2.1,1.1-2.1,5.1c0,3.9,0.9,5.2,2.1,5.2
			C-198.1,42-197.1,40.8-197.1,36.8z"/>
	</g>
</g>
<g transform="translate(343 383)">
	<circle class="st1" cx="-320.5" cy="-360.5" r="21.9"/>
	<g>
		<path class="st0" d="M-320.5-371.6c0,0.3-0.1,0.5-0.4,0.5h-4.6v0.7h4.1c0.2,0,0.4,0.1,0.4,0.4s-0.1,0.4-0.4,0.4h-4.1v0.8h5.1
			c0.3,0,0.4,0.1,0.4,0.4c0,0.3-0.1,0.5-0.4,0.5h-11.1c-0.3,0-0.4-0.1-0.4-0.5c0-0.3,0.1-0.4,0.4-0.4h5.1v-0.8h-4.2
			c-0.2,0-0.4-0.1-0.4-0.4c0-0.2,0.1-0.4,0.4-0.4h4.2v-0.7h-4.7c-0.3,0-0.4-0.1-0.4-0.5c0-0.3,0.1-0.4,0.4-0.4h4.7v-0.5
			c0-0.3,0.2-0.5,0.5-0.5c0.3,0,0.5,0.2,0.5,0.5v0.5h4.6C-320.7-372-320.5-371.9-320.5-371.6z M-322.3-367.2c0.6,0,1,0.3,1,0.9v4.2
			c0,0.8-0.5,1.2-1.5,1.2c-0.5,0-1.1-0.1-1.8-0.2c-0.2-0.1-0.3-0.2-0.3-0.4c0-0.4,0.1-0.6,0.4-0.6h0.4c0.5,0.1,1,0.2,1.3,0.2
			c0.4,0,0.6-0.2,0.6-0.6v-0.6h-7.5v1.8c0,0.3-0.2,0.5-0.5,0.5c-0.3,0-0.5-0.2-0.5-0.5v-5c0-0.6,0.3-0.9,1-0.9
			C-329.7-367.2-322.3-367.2-322.3-367.2z M-322.3-365.6v-0.5c0-0.2-0.1-0.3-0.2-0.3h-7.3c-0.1,0-0.1,0.1-0.1,0.3v0.5
			C-329.9-365.6-322.3-365.6-322.3-365.6z M-322.3-363.9v-0.9h-7.5v0.9H-322.3z M-315.9-372.7c0.1,0.1,0.2,0.2,0.2,0.4v0.2
			c-0.1,0.1-0.1,0.2-0.1,0.4h7.9c0.3,0,0.5,0.2,0.5,0.5c0,0.3-0.2,0.5-0.5,0.5h-4.1v2.2h3.4c0.3,0,0.4,0.2,0.4,0.5s-0.1,0.5-0.4,0.5
			h-3.4v3h4.6c0.3,0,0.5,0.2,0.5,0.5s-0.2,0.5-0.5,0.5h-4.6v2.4c0,0.3-0.2,0.5-0.5,0.5s-0.5-0.2-0.5-0.5v-2.4h-5.4
			c-0.3,0-0.5-0.2-0.5-0.5s0.1-0.5,0.5-0.5h1.2v-3.1c0-0.5,0.3-0.8,0.8-0.8h3.3v-2.2h-3.2c-0.1,0.2-0.3,0.4-0.4,0.6
			c-0.4,0.5-0.8,1-1.2,1.4c-0.2,0.1-0.3,0.2-0.4,0.2c-0.3,0-0.5-0.1-0.5-0.5c0-0.1,0-0.2,0.1-0.3c0.4-0.4,0.8-0.9,1.2-1.4
			s0.7-1.1,0.9-1.8c0-0.2,0.2-0.3,0.4-0.3C-316.1-372.8-316-372.8-315.9-372.7z M-315.9-367.7c-0.2,0-0.4,0.1-0.4,0.4v2.6h3.1v-3
			C-313.2-367.7-315.9-367.7-315.9-367.7z M-328.7-357.9c0.4,0,0.7,0.2,0.7,0.6c0,0.1,0,0.3-0.1,0.5l-0.8,2.4c0,0.1-0.1,0.2-0.1,0.4
			s0,0.3,0.1,0.5c0.3,0.6,0.6,1.1,0.7,1.5c0.1,0.4,0.1,0.8,0.1,1.2c0,0.5-0.1,1-0.4,1.3c-0.3,0.4-0.8,0.7-1.4,0.7
			c-0.3,0-0.6-0.1-1-0.2v2.5c0,0.3-0.2,0.5-0.5,0.5c-0.3,0-0.5-0.2-0.5-0.5V-357c0-0.5,0.2-0.7,0.8-0.7h2.4
			C-328.7-357.7-328.7-357.9-328.7-357.9z M-329.9-349.9c0.3,0,0.6-0.1,0.7-0.4c0.2-0.2,0.3-0.5,0.3-0.8s0-0.5-0.1-0.9
			s-0.4-0.9-0.8-1.7c-0.1-0.1-0.1-0.3-0.1-0.4v-0.5l0.8-2.5c0-0.1-0.1-0.1-0.2-0.1h-1.3c-0.2,0-0.3,0.1-0.3,0.3v6.6
			C-330.3-350-330-349.9-329.9-349.9z M-326.5-347.9c0.7-0.2,1.3-0.5,1.8-0.7c0.1,0,0.2-0.1,0.3-0.1c0.2,0,0.4,0.1,0.4,0.4
			c0,0.2-0.1,0.4-0.3,0.5c-0.5,0.3-1.1,0.6-1.9,0.8c-0.6,0.2-1.3,0.4-2.1,0.6c-0.3,0-0.5-0.2-0.5-0.5c0-0.3,0.1-0.5,0.4-0.5
			c0.4-0.1,0.7-0.1,1-0.2v-9.4c0-0.5,0.3-0.8,0.8-0.8h4.8c0.5,0,0.7,0.2,0.7,0.7v4.2c0,0.5-0.2,0.7-0.7,0.7h-2.5
			c0.3,0.7,0.5,1.3,0.9,1.8c0.1,0.1,0.1,0.2,0.2,0.3c0.7-0.5,1.3-1,1.8-1.5c0.1-0.1,0.2-0.2,0.4-0.2c0.3,0,0.5,0.2,0.5,0.5
			c0,0.2-0.1,0.3-0.2,0.4c-0.5,0.5-1.2,1-1.9,1.5c0.2,0.2,0.3,0.4,0.5,0.6c0.5,0.5,1.2,1,2,1.5c0.2,0.1,0.3,0.3,0.3,0.4
			c0,0.4-0.2,0.6-0.6,0.6c-0.2,0-0.4-0.1-0.6-0.2c-0.9-0.6-1.7-1.3-2.3-2c-0.5-0.5-0.8-1-1.1-1.6c-0.3-0.6-0.5-1.3-0.7-2h-1.3v4.2
			C-326.4-347.9-326.5-347.9-326.5-347.9z M-326.3-357c-0.1,0-0.2,0.1-0.2,0.2v1.3h4.5v-1.3c0-0.1-0.1-0.2-0.2-0.2H-326.3z
			 M-326.5-353.1h4.3c0.1,0,0.2-0.1,0.2-0.2v-1.3h-4.5C-326.5-354.6-326.5-353.1-326.5-353.1z M-317.8-346.7
			c-0.1,0.1-0.2,0.2-0.4,0.2c-0.4,0-0.6-0.2-0.6-0.6c0-0.1,0-0.2,0.1-0.3c0.8-0.7,1.4-1.6,1.7-2.5c0.2-0.7,0.3-1.5,0.3-2.4
			c0-0.3,0.1-0.4,0.5-0.4c0.4,0,0.5,0.2,0.5,0.5c0,0.9-0.1,1.8-0.3,2.7c0,0.1-0.1,0.2-0.1,0.3c0.3,0.3,0.6,0.6,0.9,0.7
			c0.5,0.3,1.1,0.5,1.8,0.7v-5.9h-3c-0.3,0-0.5-0.1-0.5-0.5c0-0.3,0.1-0.5,0.5-0.5h6.8c0.3,0,0.5,0.2,0.5,0.5c0,0.3-0.2,0.5-0.5,0.5
			h-2.9v2.3h3.7c0.3,0,0.5,0.2,0.5,0.5s-0.2,0.5-0.5,0.5h-3.7v2.8c1,0.1,2.7,0.2,5.1,0.2c0.3,0,0.4,0.2,0.4,0.5s-0.2,0.4-0.5,0.5
			c-3.3,0-5.4-0.2-6.3-0.4c-0.8-0.2-1.4-0.4-1.9-0.7c-0.3-0.2-0.6-0.4-0.8-0.7C-316.9-347.8-317.3-347.2-317.8-346.7z M-312.5-357.8
			v0.7h4.2c0.4,0,0.6,0.1,0.8,0.4c0.2,0.2,0.2,0.5,0.2,0.9c0,0.4,0,0.8-0.1,1.3c-0.1,0.3-0.3,0.4-0.6,0.4c-0.3,0-0.5-0.2-0.5-0.5
			c0.1-0.6,0.1-1,0.1-1.2c0-0.3-0.1-0.5-0.4-0.5h-8.5c-0.3,0-0.4,0.1-0.4,0.4v1c0,0.3-0.2,0.5-0.5,0.5c-0.3,0-0.5-0.1-0.5-0.5v-1.4
			c0-0.6,0.3-0.9,0.9-0.9h4.1v-0.7c0-0.3,0.2-0.5,0.5-0.5C-312.7-358.4-312.5-358.2-312.5-357.8z"/>
	</g>
</g>
<text transform="matrix(1 0 0 1 -538.126 -208.7)" class="st1" style="font-family:'DFYuanStd-W3-B5pc-H'; font-size:18px;">台北市春遊方案預計從108年4月1日至6月30</text>
<text transform="matrix(1 0 0 1 -188.3521 -208.7)" class="st1" style="font-family:'DFYuanStd-W3-B5pc-H'; font-size:18px;"> </text>
<text transform="matrix(1 0 0 1 -538.126 -181.7)" class="st1" style="font-family:'DFYuanStd-W3-B5pc-H'; font-size:18px;">日，凡週日至週四入住台北市合法旅館及民</text>
<text transform="matrix(1 0 0 1 -196.126 -181.7)" class="st1" style="font-family:'DFYuanStd-W3-B5pc-H'; font-size:18px;"> </text>
<text transform="matrix(1 0 0 1 -538.126 -154.7)" class="st1" style="font-family:'DFYuanStd-W3-B5pc-H'; font-size:18px;">宿，補助金額為每人每房500元，且入住旅客</text>
<text transform="matrix(1 0 0 1 -184.2107 -154.7)" class="st1" style="font-family:'DFYuanStd-W3-B5pc-H'; font-size:18px;"> </text>
<text transform="matrix(1 0 0 1 -538.126 -127.7)" class="st1" style="font-family:'DFYuanStd-W3-B5pc-H'; font-size:18px;">可以用7折優惠價格購買雙層觀光巴士票券！而</text>
<text transform="matrix(1 0 0 1 -168.1542 -127.7)" class="st1" style="font-family:'DFYuanStd-W3-B5pc-H'; font-size:18px;"> </text>
<text transform="matrix(1 0 0 1 -538.126 -100.7)" class="st1" style="font-family:'DFYuanStd-W3-B5pc-H'; font-size:18px;">18至40歲青年入住經典小鎮民宿，可再多1次</text>
<text transform="matrix(1 0 0 1 -182.2672 -100.7)" class="st1" style="font-family:'DFYuanStd-W3-B5pc-H'; font-size:18px;"> </text>
<text transform="matrix(1 0 0 1 -538.126 -73.7)" class="st1" style="font-family:'DFYuanStd-W3-B5pc-H'; font-size:18px;">500元住宿優惠！</text>
<g>
	<path class="st2" d="M-18.5-279.7h-3.7v-21.6l0.9,0.5c0.2,0.1,0.4,0.2,0.6,0.2c0.4,0,0.8-0.2,1-0.6l1.8-3c0.2-0.3,0.2-0.6,0.1-0.9
		s-0.3-0.5-0.5-0.7l-21.3-12.5c-0.4-0.2-0.8-0.2-1.1,0L-62-305.8c-0.3,0.2-0.4,0.4-0.5,0.7c-0.1,0.3,0,0.6,0.1,0.9l1.8,3
		c0.3,0.5,1,0.7,1.6,0.4l0.9-0.5v21.6h-3.7c-0.6,0-1.1,0.5-1.1,1.1v3.8c0,0.6,0.5,1.1,1.1,1.1h43.4c0.6,0,1.1-0.5,1.1-1.1v-3.8
		C-17.4-279.2-17.9-279.7-18.5-279.7L-18.5-279.7z M-19.7-275.8h-20.6v-1.6h20.6V-275.8z M-60.8-277.4h9v1.6h-9V-277.4z
		 M-20.5-304.3l-0.6,1.1L-39.6-314c-0.1,0-0.1-0.1-0.2-0.1H-40c-0.3,0-0.5,0-0.8,0.1l-18.5,10.9l-0.6-1.1l19.7-11.6L-20.5-304.3z
		 M-56-302.6l15.8-9.3l14.8,8.7l1,0.6v22.9h-15.8v-12.5c0-0.6-0.5-1.1-1.1-1.1h-9.3c-0.6,0-1.1,0.5-1.1,1.1v12.5h-4.2v-22.9
		C-55.9-302.6-56-302.6-56-302.6z M-49.6-275.8V-291h7v6.9h-1.8c-0.6,0-1.1,0.5-1.1,1.1s0.5,1.1,1.1,1.1h1.8v6.1H-49.6z"/>
	<path class="st2" d="M20.1-283.7l2-0.7c0.5-0.2,0.3-0.8-0.2-0.8h-61.6c-0.3,0-0.5,0.2-0.5,0.4v23.5c0,0.2,0.2,0.4,0.5,0.4h61.8
		c0.6,0,0.7-0.6,0.2-0.8l-2.2-0.9c-0.4-0.2-0.4-0.6,0-0.8l3.2-1.2c0.4-0.1,0.4-0.6,0-0.8l-3.2-1.3c-0.4-0.2-0.4-0.6,0-0.8l3.2-1.2
		c0.4-0.1,0.4-0.6,0-0.8l-3.2-1.3c-0.4-0.2-0.4-0.6,0-0.8l3.2-1.2c0.4-0.1,0.4-0.6,0-0.8l-3.2-1.3c-0.4-0.2-0.4-0.6,0-0.8l3.2-1.2
		c0.4-0.1,0.4-0.6,0-0.8l-3.2-1.3c-0.4-0.2-0.4-0.6,0-0.8l3.2-1.2c0.4-0.1,0.4-0.6,0-0.8l-3.2-1.3C19.7-283,19.7-283.5,20.1-283.7
		L20.1-283.7z"/>
	<g>
		<path class="st0" d="M-35-272.5h5.2v2H-35V-272.5z M-20.7-276.7c-0.8-0.7-1.5-1.1-2.4-1.1c-1.1,0-1.7,0.5-1.7,1.6
			c0,2.4,5.8,2,5.8,6.2c0,2.1-1.2,3.6-3.3,4v2.2h-1.9v-2.1c-1.3-0.2-2.8-0.7-3.8-1.7l1.2-1.9c1,0.8,2,1.3,3.1,1.3
			c1.3,0,1.9-0.6,1.9-1.7c0-2.6-5.8-2.3-5.8-6.3c0-2.1,1.2-3.5,3.2-3.9v-2.2h1.9v2.2c1.4,0.2,2.3,0.9,3.1,1.7L-20.7-276.7
			L-20.7-276.7z M-17.3-267.7l1.3-1.8c0.8,0.8,1.8,1.4,3.1,1.4c1.5,0,2.5-0.9,2.5-2.6c0-1.6-0.9-2.5-2.4-2.5c-0.8,0-1.3,0.2-2.1,0.7
			l-1.3-0.8l0.4-6.8h7.5v2.3h-5.1l-0.3,3c0.6-0.3,1-0.4,1.7-0.4c2.4,0,4.3,1.4,4.3,4.5s-2.3,4.9-4.9,4.9
			C-14.8-265.8-16.2-266.7-17.3-267.7L-17.3-267.7z M-5.8-273.2c0-4.9,1.9-7.2,4.8-7.2c2.8,0,4.7,2.4,4.7,7.2c0,4.8-1.9,7.3-4.7,7.3
			C-3.9-265.8-5.8-268.3-5.8-273.2z M1.1-273.2c0-3.9-0.9-5.1-2.1-5.1s-2.1,1.1-2.1,5.1c0,3.9,0.9,5.2,2.1,5.2S1.1-269.2,1.1-273.2z
			 M5.4-273.2c0-4.9,1.9-7.2,4.8-7.2c2.8,0,4.7,2.4,4.7,7.2c0,4.8-1.9,7.3-4.7,7.3C7.3-265.8,5.4-268.3,5.4-273.2z M12.3-273.2
			c0-3.9-0.9-5.1-2.1-5.1c-1.2,0-2.1,1.1-2.1,5.1c0,3.9,0.9,5.2,2.1,5.2C11.4-268,12.3-269.2,12.3-273.2z"/>
	</g>
	<path class="st2" d="M-4.8-319.1c-3.9,0.9-7.7-1.5-8.6-5.4c-0.3-1.4-0.2-2.8,0.3-4.1c-3.1,1.2-4.9,4.5-4.1,7.9
		c0.8,3.7,4.5,6,8.2,5.1c2.1-0.5,3.7-1.9,4.6-3.7C-4.5-319.2-4.7-319.2-4.8-319.1z"/>
	<g>
		<path class="st0" d="M0.6-303.1c-2.1,0-3.7-1.9-3.1-3.9c0.2-0.8,0.8-1.5,2-2.1c2.5-1.3,4.4-0.7,5.6,0.4c0.5,0.4,1.1,0.3,1.5-0.2
			c0.2-0.3,0.6-0.6,1.2-0.6c0.7,0,1.2,0.2,1.6,0.5c0.5,0.4,1.3,0.2,1.6-0.4c0.8-1.9,2.9-4.5,8-3c3.3,1,4.4,3.6,4.6,5.7
			c0.2,1.6-1.1,3.1-2.7,3.1L0.6-303.1L0.6-303.1z"/>
		<path class="st2" d="M0.5-302.1c-1.3,0-2.6-0.6-3.3-1.7c-0.8-1-1-2.3-0.6-3.5c0.4-1.1,1.2-2.1,2.5-2.7c2.5-1.3,5-1.1,6.7,0.5
			c0.4-0.5,1-1,2-1.1c0.8,0,1.5,0.2,2.2,0.6c0.8-1.7,3.2-5.3,9.3-3.5c3.9,1.2,5,4.2,5.3,6.6c0.1,1.1-0.2,2.1-0.9,3
			c-0.7,0.8-1.7,1.3-2.8,1.3L0.5-302.1C0.6-302.1,0.5-302.1,0.5-302.1L0.5-302.1z M2.2-308.9c-0.6,0-1.4,0.2-2.3,0.6
			c-0.8,0.4-1.3,0.9-1.5,1.5c-0.3,0.8,0.1,1.4,0.3,1.7c0.4,0.6,1.1,0.9,1.8,0.9l20.3-0.5c0.5,0,1-0.2,1.3-0.6s0.5-0.9,0.4-1.4
			c-0.3-2.6-1.6-4.2-3.9-4.9c-3.4-1-5.7-0.2-6.8,2.4c-0.2,0.6-0.7,1-1.3,1.1c-0.6,0.2-1.2,0.1-1.8-0.3c-0.3-0.2-0.6-0.3-1-0.3
			c-0.3,0-0.4,0.1-0.4,0.2c-0.4,0.5-0.9,0.8-1.5,0.9s-1.1-0.1-1.5-0.5S3.2-308.9,2.2-308.9L2.2-308.9z"/>
	</g>
</g>
<g>
	<g>
		<path class="st2" d="M-20.7-183.3c-1.9,0-3.4-1.5-3.4-3.4s1.5-3.4,3.4-3.4s3.4,1.5,3.4,3.4S-18.8-183.3-20.7-183.3z M-20.7-188.3
			c-0.9,0-1.6,0.7-1.6,1.6s0.7,1.6,1.6,1.6c0.9,0,1.6-0.7,1.6-1.6S-19.8-188.3-20.7-188.3z"/>
		<path class="st3" d="M26.8-186.7c0,1.4-1.1,2.5-2.5,2.5s-2.5-1.1-2.5-2.5s1.1-2.5,2.5-2.5S26.8-188.1,26.8-186.7"/>
		<path class="st2" d="M24.3-183.3c-1.9,0-3.4-1.5-3.4-3.4s1.5-3.4,3.4-3.4s3.4,1.5,3.4,3.4S26.2-183.3,24.3-183.3z M24.3-188.3
			c-0.9,0-1.6,0.7-1.6,1.6s0.7,1.6,1.6,1.6c0.9,0,1.6-0.7,1.6-1.6S25.2-188.3,24.3-188.3z M-14.5-185.8c-0.5,0-0.9-0.4-0.9-0.9
			c0-3-2.4-5.4-5.4-5.4s-5.4,2.4-5.4,5.4c0,0.5-0.4,0.9-0.9,0.9s-0.9-0.4-0.9-0.9c0-3.9,3.2-7.1,7.1-7.1c3.9,0,7.1,3.2,7.1,7.1
			C-13.6-186.2-14-185.8-14.5-185.8L-14.5-185.8z"/>
		<path class="st2" d="M30.6-185.8c-0.5,0-0.9-0.4-0.9-0.9c0-3-2.4-5.4-5.4-5.4s-5.4,2.4-5.4,5.4c0,0.5-0.4,0.9-0.9,0.9
			s-0.9-0.4-0.9-0.9c0-3.9,3.2-7.1,7.1-7.1c3.9,0,7.1,3.2,7.1,7.1C31.5-186.2,31.1-185.8,30.6-185.8L30.6-185.8z"/>
		<path class="st2" d="M18.1-185.8h-32.6c-0.5,0-0.9-0.4-0.9-0.9s0.4-0.9,0.9-0.9H18c0.5,0,0.9,0.4,0.9,0.9S18.6-185.8,18.1-185.8
			L18.1-185.8z M41.8-185.8H30.5c-0.5,0-0.9-0.4-0.9-0.9s0.4-0.9,0.9-0.9h11.3c0.5,0,0.9,0.4,0.9,0.9S42.3-185.8,41.8-185.8z"/>
		<path class="st2" d="M39.3-185.8c-0.5,0-0.9-0.4-0.9-0.9v-18.8c0-0.5,0.4-0.9,0.9-0.9s0.9,0.4,0.9,0.9v18.8
			C40.2-186.2,39.8-185.8,39.3-185.8z M33.1-185.8c-0.5,0-0.9-0.4-0.9-0.9v-18.8c0-0.5,0.4-0.9,0.9-0.9s0.9,0.4,0.9,0.9v18.8
			C34-186.2,33.6-185.8,33.1-185.8z"/>
		<path class="st2" d="M41.8-204.5h-71.3c-0.5,0-0.9-0.4-0.9-0.9s0.4-0.9,0.9-0.9h71.3c0.5,0,0.9,0.4,0.9,0.9S42.3-204.5,41.8-204.5
			z"/>
		<path class="st2" d="M39.3-204.5c-0.5,0-0.9-0.4-0.9-0.9v-11.3c0-0.5,0.4-0.9,0.9-0.9s0.9,0.4,0.9,0.9v11.3
			C40.2-205,39.8-204.5,39.3-204.5z M33.1-222.1h-53.8c-0.5,0-0.9-0.4-0.9-0.9s0.4-0.9,0.9-0.9h53.8c0.5,0,0.9,0.4,0.9,0.9
			S33.6-222.1,33.1-222.1z M-29.5-204.5h-0.3c-0.5-0.1-0.7-0.6-0.6-1.1l3.8-12.5c0.1-0.5,0.6-0.7,1.1-0.6s0.7,0.6,0.6,1.1l-3.8,12.5
			C-28.7-204.8-29.1-204.5-29.5-204.5z M-27-197h-0.1c-0.5-0.1-0.8-0.5-0.7-1l1.2-7.5c0.1-0.5,0.5-0.8,1-0.7c0.5,0.1,0.8,0.5,0.7,1
			l-1.2,7.5C-26.1-197.4-26.5-197-27-197z"/>
		<path class="st2" d="M-30.7-194.5c-0.3,0-0.6-0.1-0.7-0.4c-0.3-0.4-0.2-1,0.2-1.2l3.8-2.5c0.4-0.3,1-0.2,1.2,0.2
			c0.3,0.4,0.2,1-0.2,1.2l-3.8,2.5C-30.4-194.6-30.5-194.5-30.7-194.5L-30.7-194.5z"/>
		<path class="st2" d="M-30.7-185.8c-0.5,0-0.9-0.4-0.9-0.9v-8.8c0-0.5,0.4-0.9,0.9-0.9s0.9,0.4,0.9,0.9v8.8
			C-29.8-186.2-30.2-185.8-30.7-185.8z"/>
		<path class="st2" d="M-27-185.8h-3.8c-0.5,0-0.9-0.4-0.9-0.9s0.4-0.9,0.9-0.9h3.8c0.5,0,0.9,0.4,0.9,0.9S-26.5-185.8-27-185.8z
			 M-15.7-197c-0.5,0-0.9-0.4-0.9-0.9v-7.5c0-0.5,0.4-0.9,0.9-0.9s0.9,0.4,0.9,0.9v7.5C-14.8-197.4-15.2-197-15.7-197z"/>
		<path class="st2" d="M24.3-197H-27c-0.5,0-0.9-0.4-0.9-0.9s0.4-0.9,0.9-0.9h51.3c0.5,0,0.9,0.4,0.9,0.9S24.8-197,24.3-197z"/>
		<path class="st2" d="M24.3-197c-0.5,0-0.9-0.4-0.9-0.9v-7.5c0-0.5,0.4-0.9,0.9-0.9s0.9,0.4,0.9,0.9v7.5
			C25.2-197.4,24.8-197,24.3-197z M14.3-197c-0.5,0-0.9-0.4-0.9-0.9v-7.5c0-0.5,0.4-0.9,0.9-0.9s0.9,0.4,0.9,0.9v7.5
			C15.2-197.4,14.8-197,14.3-197z M-5.7-197c-0.5,0-0.9-0.4-0.9-0.9v-7.5c0-0.5,0.4-0.9,0.9-0.9s0.9,0.4,0.9,0.9v7.5
			C-4.8-197.4-5.2-197-5.7-197z M4.3-197c-0.5,0-0.9-0.4-0.9-0.9v-7.5c0-0.5,0.4-0.9,0.9-0.9s0.9,0.4,0.9,0.9v7.5
			C5.2-197.4,4.8-197,4.3-197z M-15.7-209.6c-0.5,0-0.9-0.4-0.9-0.9v-7.5c0-0.5,0.4-0.9,0.9-0.9s0.9,0.4,0.9,0.9v7.5
			C-14.8-210-15.2-209.6-15.7-209.6z"/>
		<path class="st2" d="M34.3-209.6H-27c-0.5,0-0.9-0.4-0.9-0.9s0.4-0.9,0.9-0.9h61.3c0.5,0,0.9,0.4,0.9,0.9S34.8-209.6,34.3-209.6z"
			/>
		<path class="st2" d="M24.3-209.6c-0.5,0-0.9-0.4-0.9-0.9v-7.5c0-0.5,0.4-0.9,0.9-0.9s0.9,0.4,0.9,0.9v7.5
			C25.2-210,24.8-209.6,24.3-209.6z M14.3-209.6c-0.5,0-0.9-0.4-0.9-0.9v-7.5c0-0.5,0.4-0.9,0.9-0.9s0.9,0.4,0.9,0.9v7.5
			C15.2-210,14.8-209.6,14.3-209.6z M-5.7-209.6c-0.5,0-0.9-0.4-0.9-0.9v-7.5c0-0.5,0.4-0.9,0.9-0.9s0.9,0.4,0.9,0.9v7.5
			C-4.8-210-5.2-209.6-5.7-209.6z M4.3-209.6c-0.5,0-0.9-0.4-0.9-0.9v-7.5c0-0.5,0.4-0.9,0.9-0.9s0.9,0.4,0.9,0.9v7.5
			C5.2-210,4.8-209.6,4.3-209.6z M34.3-209.6c-0.5,0-0.9-0.4-0.9-0.9v-5c0-0.5,0.4-0.9,0.9-0.9s0.9,0.4,0.9,0.9v5
			C35.2-210,34.8-209.6,34.3-209.6z"/>
		<path class="st2" d="M31.8-217.1h-57.5c-0.5,0-0.9-0.4-0.9-0.9s0.4-0.9,0.9-0.9h57.5c0.5,0,0.9,0.4,0.9,0.9S32.3-217.1,31.8-217.1
			z"/>
		<path class="st2" d="M34.3-214.6c-0.5,0-0.9-0.4-0.9-0.9c0-0.9-0.7-1.6-1.6-1.6c-0.5,0-0.9-0.4-0.9-0.9s0.4-0.9,0.9-0.9
			c1.9,0,3.4,1.5,3.4,3.4C35.2-215,34.8-214.6,34.3-214.6z M39.3-215.8c-0.5,0-0.9-0.4-0.9-0.9c0-3-2.4-5.4-5.4-5.4
			c-0.5,0-0.9-0.4-0.9-0.9s0.4-0.9,0.9-0.9c3.9,0,7.1,3.2,7.1,7.1C40.2-216.2,39.8-215.8,39.3-215.8L39.3-215.8z M-25.7-217.1h-0.2
			c-0.4-0.1-0.7-0.5-0.7-0.9c0-0.1,0-0.1,0.1-0.2c1.1-3.8,3-5.7,5.9-5.7c0.5,0,0.9,0.4,0.9,0.9s-0.4,0.9-0.9,0.9
			c-2,0-3.3,1.4-4.1,4.3C-25-217.3-25.3-217.1-25.7-217.1L-25.7-217.1z M-28.2-193.3h-2.5c-0.5,0-0.9-0.4-0.9-0.9s0.4-0.9,0.9-0.9
			h2.5c0.5,0,0.9,0.4,0.9,0.9S-27.7-193.3-28.2-193.3z"/>
	</g>
	<g>
		<path class="st2" d="M52.8-193.2l2-0.7c0.5-0.2,0.3-0.8-0.2-0.8H-7c-0.3,0-0.5,0.2-0.5,0.4v23.5c0,0.2,0.2,0.4,0.5,0.4h61.8
			c0.6,0,0.7-0.6,0.2-0.8l-2.2-0.9c-0.4-0.2-0.4-0.6,0-0.8l3.2-1.2c0.4-0.1,0.4-0.6,0-0.8l-3.2-1.3c-0.4-0.2-0.4-0.6,0-0.8l3.2-1.2
			c0.4-0.1,0.4-0.6,0-0.8l-3.2-1.3c-0.4-0.2-0.4-0.6,0-0.8l3.2-1.2c0.4-0.1,0.4-0.6,0-0.8l-3.2-1.3c-0.4-0.2-0.4-0.6,0-0.8l3.2-1.2
			c0.4-0.1,0.4-0.6,0-0.8l-3.2-1.3c-0.4-0.2-0.4-0.6,0-0.8l3.2-1.2c0.4-0.1,0.4-0.6,0-0.8l-3.2-1.3C52.3-192.6,52.4-193,52.8-193.2
			L52.8-193.2z"/>
		<g>
			<path class="st0" d="M-2.3-177.3l1.3-1.8c0.8,0.8,1.9,1.4,3.1,1.4c1.4,0,2.4-0.7,2.4-2c0-1.4-0.8-2.2-3.9-2.2v-2
				c2.6,0,3.4-0.9,3.4-2.1c0-1.1-0.7-1.7-1.9-1.8c-1,0-1.8,0.5-2.7,1.3l-1.4-1.7c1.2-1.1,2.6-1.7,4.2-1.7c2.7,0,4.6,1.3,4.6,3.7
				c0,1.5-0.9,2.6-2.4,3.2v0.1c1.6,0.4,2.8,1.6,2.8,3.5c0,2.6-2.3,4.1-4.9,4.1C0.1-175.4-1.4-176.2-2.3-177.3L-2.3-177.3z
				 M9.2-182.7c0-4.9,1.9-7.2,4.8-7.2c2.8,0,4.7,2.4,4.7,7.2c0,4.8-1.9,7.3-4.7,7.3C11.1-175.4,9.2-177.9,9.2-182.7z M16-182.7
				c0-3.9-0.9-5.1-2.1-5.1c-1.2,0-2.1,1.1-2.1,5.1c0,3.9,0.9,5.2,2.1,5.2C15.1-177.5,16-178.7,16-182.7z M21.8-181.1
				c0-1.5,0.8-2.4,1.9-2.4c1.1,0,1.9,0.9,1.9,2.4c0,1.6-0.8,2.5-1.9,2.5C22.6-178.6,21.8-179.5,21.8-181.1z M24.5-181.1
				c0-1.1-0.4-1.6-0.8-1.6s-0.8,0.4-0.8,1.6c0,1.1,0.3,1.6,0.8,1.6S24.5-179.9,24.5-181.1z M28.1-183.5H29l-4.2,8h-0.9L28.1-183.5z
				 M27.4-177.9c0-1.6,0.8-2.4,1.9-2.4c1.1,0,1.9,0.9,1.9,2.4s-0.8,2.5-1.9,2.5C28.2-175.4,27.4-176.4,27.4-177.9z M30.1-177.9
				c0-1.1-0.4-1.6-0.8-1.6s-0.8,0.4-0.8,1.6c0,1.1,0.4,1.6,0.8,1.6C29.7-176.4,30.1-176.8,30.1-177.9z M34.3-178.5
				c0-2,1.4-3.1,2.8-3.1s2.8,1.1,2.8,3.1c0,1.9-1.4,3.1-2.8,3.1S34.3-176.6,34.3-178.5z M38.4-178.5c0-1.1-0.5-1.8-1.2-1.8
				s-1.2,0.7-1.2,1.8s0.5,1.8,1.2,1.8S38.4-177.4,38.4-178.5z M48-182.8c-0.2-0.1-0.4-0.1-0.6-0.1c-0.5,0-0.7,0.3-0.7,0.9v0.5h1.1
				v1.2h-1.1v4.6h-1.5v-4.6h-2.1v4.6h-1.6v-4.6h-0.8v-1.1l0.8-0.1v-0.4c0-1.2,0.6-2.1,2.1-2.1c0.5,0,0.9,0.1,1.2,0.2l-0.3,1.1
				c-0.2-0.1-0.4-0.1-0.7-0.1c-0.5,0-0.8,0.3-0.8,0.9v0.4h2.1v-0.5c0-1.2,0.6-2.2,2-2.2c0.5,0,0.9,0.1,1.1,0.2L48-182.8L48-182.8z"
				/>
		</g>
	</g>
</g>
<g>
	<path class="st2" d="M24-99h-3.2v-19.1l0.8,0.4c0.2,0.1,0.3,0.1,0.5,0.1c0.3,0,0.7-0.2,0.9-0.5l1.6-2.7c0.1-0.2,0.2-0.5,0.1-0.8
		s-0.2-0.5-0.5-0.6l-18.8-11c-0.3-0.2-0.7-0.2-1,0l-18.8,11c-0.2,0.1-0.4,0.4-0.5,0.6c-0.1,0.3,0,0.5,0.1,0.8l1.6,2.7
		c0.3,0.5,0.9,0.6,1.4,0.4l0.8-0.4V-99h-3.2c-0.6,0-1,0.4-1,1v3.4c0,0.6,0.4,1,1,1h38.4c0.6,0,1-0.4,1-1V-98
		C25.1-98.7,24.6-99,24-99L24-99z M23-95.7H4.8V-97H23V-95.7z M-13.4-97h8v1.4h-8V-97z M22.3-120.8l-0.5,0.9l-16.4-9.6
		c-0.1,0-0.1-0.1-0.2-0.1H5c-0.2,0-0.5,0-0.7,0.1l-16.4,9.6l-0.5-0.9l17.4-10.2L22.3-120.8L22.3-120.8z M-9.1-119.3l14-8.2l13.1,7.7
		l0.9,0.5V-99h-14v-11.1c0-0.6-0.4-1-1-1h-8.2c-0.6,0-1,0.4-1,1V-99H-9L-9.1-119.3L-9.1-119.3L-9.1-119.3z M-3.4-95.6V-109h6.2v6.1
		H1.2c-0.6,0-1,0.4-1,1s0.4,1,1,1h1.6v5.4h-6.2V-95.6z"/>
	<path class="st0" d="M13.3-82.9H0.8v-15.3c0-3.4,2.8-6.2,6.2-6.2h0.1c3.4,0,6.2,2.8,6.2,6.2L13.3-82.9L13.3-82.9z"/>
	<path class="st2" d="M14.3-81.9H-0.2v-16.3c0-4,3.2-7.2,7.2-7.2h0.1c4,0,7.2,3.2,7.2,7.2L14.3-81.9L14.3-81.9z M1.8-83.9h10.5
		v-14.3c0-2.9-2.3-5.2-5.2-5.2H7c-2.9,0-5.2,2.3-5.2,5.2L1.8-83.9L1.8-83.9z"/>
	<g transform="translate(335 325)">
		<g transform="translate(6 2)">
			<circle class="st0" cx="-335.3" cy="-435.9" r="5.9"/>
			<path class="st2" d="M-335.4-429c-1.3,0-2.7-0.4-3.8-1.1c-1.5-1-2.6-2.6-3-4.4c-0.4-1.8,0-3.7,1-5.2s2.6-2.6,4.4-3
				c3.8-0.8,7.4,1.6,8.2,5.4c0.4,1.8,0,3.7-1,5.2s-2.6,2.6-4.4,3C-334.4-429-334.9-429-335.4-429z M-335.3-440.9c-0.3,0-0.7,0-1,0.1
				c-1.3,0.3-2.4,1-3.1,2.1c-0.7,1.1-1,2.4-0.7,3.7c0.3,1.3,1,2.4,2.1,3.1c1.1,0.7,2.4,1,3.7,0.7s2.4-1,3.1-2.1
				c0.7-1.1,1-2.4,0.7-3.7C-331-439.2-333.1-440.9-335.3-440.9z"/>
		</g>
		<path class="st2" d="M-315.8-429.4c0,0-5.2,1.9-7.5-1.9C-325.5-435.2-317.4-433.9-315.8-429.4z M-274.8-434.9c0,0-5.2,1.9-7.5-1.9
			C-284.5-440.8-276.4-439.4-274.8-434.9z M-342.3-427.1c0,0,5.1,2.1,7.6-1.6C-332.4-432.4-340.5-431.5-342.3-427.1z M-299.2-441
			c0,0,3.8,4.1,7.5,1.7C-287.9-441.8-295.7-444.4-299.2-441z"/>
		<circle class="st2" cx="-331.9" cy="-433.8" r="1"/>
		<circle class="st2" cx="-326.3" cy="-434.8" r="1"/>
		<path class="st2" d="M-326.4-433.1c0.2,1.2-0.5,2.3-1.7,2.6c-1.2,0.2-2.3-0.5-2.6-1.7L-326.4-433.1z M-335-435.9l4.4-0.9l1.3-1.1
			l1.5,0.6l2.4-0.6l-1-1.7l-4.3-0.7C-330.7-440.2-334.8-438.6-335-435.9z"/>
	</g>
	<g>
		<path class="st0" d="M33.7-84H21.2v-15.3c0-3.4,2.8-6.2,6.2-6.2h0.1c3.4,0,6.2,2.8,6.2,6.2L33.7-84L33.7-84z"/>
		<path class="st2" d="M34.7-82.9H20.2v-16.3c0-4,3.2-7.2,7.2-7.2h0.1c4,0,7.2,3.2,7.2,7.2L34.7-82.9L34.7-82.9z M22.2-85h10.5
			v-14.3c0-2.9-2.3-5.2-5.2-5.2h-0.1c-2.9,0-5.2,2.3-5.2,5.2L22.2-85L22.2-85z"/>
		<g transform="translate(364 326)">
			<circle class="st0" cx="-335.4" cy="-435.8" r="5.9"/>
			<path class="st2" d="M-335.4-428.8c-0.9,0-1.7-0.2-2.6-0.5c-1.7-0.7-3.1-2-3.8-3.7c-0.7-1.7-0.7-3.6-0.1-5.3
				c0.7-1.7,2-3.1,3.7-3.8c1.7-0.7,3.6-0.7,5.3-0.1c1.7,0.7,3.1,2,3.8,3.7c0.7,1.7,0.7,3.6,0.1,5.3
				C-330-430.4-332.6-428.8-335.4-428.8z M-335.4-440.6c-0.7,0-1.3,0.1-1.9,0.4c-1.2,0.5-2.1,1.5-2.6,2.7c-0.5,1.2-0.5,2.6,0,3.8
				c0.5,1.2,1.5,2.1,2.7,2.6c2.5,1,5.4-0.2,6.4-2.7c0.5-1.2,0.5-2.6,0-3.8c-0.5-1.2-1.5-2.1-2.7-2.6
				C-334.1-440.5-334.8-440.6-335.4-440.6z"/>
			<circle class="st2" cx="-337.6" cy="-436.9" r="1"/>
			<circle class="st2" cx="-332.3" cy="-434.8" r="1"/>
			<path class="st2" d="M-333.4-433.4c-0.5,1.1-1.7,1.7-2.9,1.2c-1.1-0.5-1.7-1.7-1.2-2.9L-333.4-433.4z M-329.9-436.6l-2.3-0.9
				l-0.7-2l-1.8,1l-1.5-0.6l-2.7-1.1l2.6-1.2l3.7,0.7C-332.7-440.9-329.9-438.9-329.9-436.6z"/>
		</g>
	</g>
	<g>
		<path class="st2" d="M53.1-83.8H38.6v-16.3c0-4,3.2-7.2,7.2-7.2h0.1c4,0,7.2,3.2,7.2,7.2L53.1-83.8L53.1-83.8z M40.6-85.9h10.5
			v-14.3c0-2.9-2.3-5.2-5.2-5.2h-0.1c-2.9,0-5.2,2.3-5.2,5.2L40.6-85.9L40.6-85.9z"/>
		<g transform="translate(383 325)">
			<circle class="st0" cx="-335.7" cy="-435.9" r="5.9"/>
			<path class="st2" d="M-335.7-428.9c-0.5,0-0.9,0-1.4-0.1c-3.8-0.8-6.2-4.5-5.4-8.2c0.8-3.8,4.5-6.2,8.2-5.4
				c3.8,0.8,6.2,4.5,5.4,8.2c-0.4,1.8-1.4,3.4-3,4.4C-333-429.4-334.3-428.9-335.7-428.9z M-335.7-440.8c-2.3,0-4.3,1.6-4.8,3.9
				c-0.5,2.7,1.2,5.3,3.8,5.8c1.3,0.3,2.6,0,3.7-0.7c1.1-0.7,1.8-1.8,2.1-3.1c0.5-2.7-1.2-5.3-3.8-5.8
				C-335-440.9-335.4-440.9-335.7-440.8z"/>
			<circle class="st2" cx="-333.1" cy="-435.6" r="1"/>
			<circle class="st2" cx="-338.7" cy="-436.9" r="1"/>
			<path class="st2" d="M-338.6-435.1c-0.2,1.2,0.5,2.3,1.7,2.6c1.2,0.2,2.3-0.5,2.6-1.7C-334.3-434.2-338.6-435.1-338.6-435.1z
				 M-339.7-439.8l2.4,0.6l1.5-0.6l1.3,1.1l4.4,0.9l-1.4-2.9l-4.2-1.2C-335.7-441.8-339-441.6-339.7-439.8z"/>
		</g>
	</g>
	<g>
		<path class="st2" d="M55.9-87.9l2-0.7c0.5-0.2,0.3-0.8-0.2-0.8H-3.9c-0.3,0-0.5,0.2-0.5,0.4v23.5c0,0.2,0.2,0.4,0.5,0.4h61.8
			c0.6,0,0.7-0.6,0.2-0.8l-2.2-0.9c-0.4-0.2-0.4-0.6,0-0.8l3.2-1.2c0.4-0.1,0.4-0.6,0-0.8l-3.2-1.3c-0.4-0.2-0.4-0.6,0-0.8l3.2-1.2
			c0.4-0.1,0.4-0.6,0-0.8L55.9-75c-0.4-0.2-0.4-0.6,0-0.8l3.2-1.2c0.4-0.1,0.4-0.6,0-0.8l-3.2-1.3c-0.4-0.2-0.4-0.6,0-0.8l3.2-1.2
			c0.4-0.1,0.4-0.6,0-0.8l-3.2-1.3c-0.4-0.2-0.4-0.6,0-0.8l3.2-1.2c0.4-0.1,0.4-0.6,0-0.8l-3.2-1.3C55.5-87.2,55.5-87.7,55.9-87.9
			L55.9-87.9z"/>
		<g>
			<path class="st0" d="M0.8-76.7H6v2H0.8V-76.7z M15.1-80.9c-0.8-0.7-1.5-1.1-2.4-1.1c-1.1,0-1.7,0.5-1.7,1.6c0,2.4,5.8,2,5.8,6.2
				c0,2.1-1.2,3.6-3.3,4v2.2h-1.9v-2.1c-1.3-0.2-2.8-0.7-3.8-1.7L9-73.7c1,0.8,2,1.3,3.1,1.3c1.3,0,1.9-0.6,1.9-1.7
				c0-2.6-5.8-2.3-5.8-6.3c0-2.1,1.2-3.5,3.2-3.9v-2.2h1.9v2.2c1.4,0.2,2.3,0.9,3.1,1.7L15.1-80.9z M18.5-71.9l1.3-1.8
				c0.8,0.8,1.8,1.4,3.1,1.4c1.5,0,2.5-0.9,2.5-2.6c0-1.6-0.9-2.5-2.4-2.5c-0.8,0-1.3,0.2-2.1,0.7l-1.3-0.8l0.4-6.8h7.5v2.3h-5.1
				l-0.3,3c0.6-0.3,1-0.4,1.7-0.4c2.4,0,4.3,1.4,4.3,4.5S25.8-70,23.2-70C21-70,19.6-70.9,18.5-71.9L18.5-71.9z M30-77.4
				c0-4.9,1.9-7.2,4.8-7.2c2.8,0,4.7,2.4,4.7,7.2c0,4.8-1.9,7.3-4.7,7.3C31.9-70,30-72.5,30-77.4z M36.9-77.4c0-3.9-0.9-5.1-2.1-5.1
				s-2.1,1.1-2.1,5.1c0,3.9,0.9,5.2,2.1,5.2S36.9-73.4,36.9-77.4z M41.2-77.4c0-4.9,1.9-7.2,4.8-7.2c2.8,0,4.7,2.4,4.7,7.2
				c0,4.8-1.9,7.3-4.7,7.3C43.1-70,41.2-72.5,41.2-77.4z M48.1-77.4c0-3.9-0.9-5.1-2.1-5.1s-2.1,1.1-2.1,5.1c0,3.9,0.9,5.2,2.1,5.2
				C47.1-72.2,48.1-73.4,48.1-77.4z"/>
		</g>
	</g>
</g>
<g transform="translate(342 383)">
	<circle class="st1" cx="-238.1" cy="-361.4" r="21.9"/>
	<g>
		<path class="st0" d="M-245.9-373.3v0.6h2.2c0.3,0,0.4,0.1,0.4,0.4c0,0.3-0.1,0.4-0.4,0.4h-5.6c-0.3,0-0.4-0.1-0.4-0.4
			c0-0.3,0.1-0.4,0.4-0.4h2.4v-0.6c0-0.3,0.2-0.5,0.5-0.5C-246-373.8-245.9-373.6-245.9-373.3z M-248.3-371.2v2.3
			c0,0.2,0.1,0.3,0.2,0.3h3.3c0.2,0,0.2-0.1,0.2-0.3v-2.3c0-0.3,0.1-0.5,0.4-0.5c0.3,0,0.5,0.2,0.5,0.5v1.1c0.4-0.4,0.7-0.9,1-1.4
			c0.3-0.6,0.6-1.2,0.8-2c0-0.2,0.1-0.2,0.3-0.2c0.1,0,0.2,0,0.3,0.1c0.1,0.1,0.2,0.2,0.2,0.3s0,0.1-0.1,0.2
			c-0.2,0.6-0.4,1.1-0.6,1.5h1.5v-0.1c0.2-0.5,0.5-1,0.8-1.7c0-0.1,0.1-0.2,0.3-0.2c0.1,0,0.2,0,0.4,0.1c0.1,0.1,0.2,0.2,0.2,0.3
			c0,0.1,0,0.1-0.1,0.2c-0.2,0.5-0.4,1-0.7,1.5h1.4c0.3,0,0.4,0.1,0.4,0.4c0,0.3-0.1,0.5-0.4,0.5h-1.6v1.9h1.3
			c0.3,0,0.4,0.1,0.4,0.4c0,0.3-0.1,0.4-0.4,0.4h-1.3v2h1.3c0.3,0,0.4,0.1,0.4,0.4c0,0.3-0.1,0.4-0.4,0.4h-1.3v2.1h1.6
			c0.3,0,0.5,0.1,0.5,0.4c0,0.3-0.2,0.5-0.5,0.5h-4.1c-0.5,0-0.8-0.3-0.8-0.9v-6.9c-0.1,0.1-0.2,0.3-0.4,0.4
			c-0.1,0.1-0.2,0.2-0.3,0.2s-0.2,0-0.3-0.1v0.9c0,0.5-0.3,0.7-0.8,0.7h-1.6l-0.2,0.8h1.9c0.5,0,0.8,0.2,0.8,0.7v3.1
			c0,0.9-0.4,1.3-1.3,1.3c-0.3,0-0.7-0.1-1.1-0.2c-0.2-0.1-0.3-0.2-0.3-0.4c0-0.3,0.1-0.5,0.4-0.5h0.2c0.3,0.1,0.6,0.1,0.7,0.1
			c0.3,0,0.5-0.2,0.5-0.5v-2.7c0-0.2-0.1-0.3-0.2-0.3h-1.8l-0.5,1.9c0.4,0,0.8-0.1,1.2-0.2l-0.3-0.9l-0.1-0.2c0-0.2,0.1-0.3,0.4-0.3
			c0.2,0,0.3,0.1,0.4,0.2c0.2,0.4,0.4,0.9,0.6,1.7c0.1,0.2,0.1,0.3,0.1,0.3c0,0.2-0.1,0.4-0.4,0.4c-0.3,0-0.4-0.1-0.4-0.4
			c0-0.1,0-0.2-0.1-0.2c-0.8,0.2-1.6,0.3-2.3,0.4c-0.2,0-0.4-0.2-0.4-0.5c0-0.2,0.1-0.3,0.4-0.4h0.2l0.5-2h-1.1
			c-0.1,0-0.1,0.1-0.1,0.3v3.7c0,0.3-0.2,0.4-0.5,0.4s-0.4-0.1-0.4-0.4v-4.1c0-0.5,0.3-0.7,0.8-0.7h1.5l0.2-0.8h-1.6
			c-0.5,0-0.7-0.2-0.7-0.7v-2.7c0-0.3,0.1-0.5,0.4-0.5C-248.5-371.6-248.3-371.5-248.3-371.2z M-244.8-371.3c0,0.1-0.1,0.2-0.2,0.3
			c-0.2,0.3-0.5,0.5-0.7,0.8c0.3,0.2,0.5,0.5,0.7,0.7c0.1,0.1,0.1,0.2,0.1,0.2c0,0.2-0.1,0.4-0.4,0.4c-0.1,0-0.3,0-0.4-0.1l-0.7-0.7
			c-0.3,0.2-0.7,0.5-1,0.7c-0.1,0.1-0.2,0.1-0.2,0.1c-0.3,0-0.4-0.1-0.4-0.5c0-0.1,0.1-0.2,0.2-0.3c0.3-0.2,0.6-0.4,0.9-0.5
			c-0.3-0.2-0.6-0.4-0.9-0.7c-0.1-0.1-0.1-0.2-0.1-0.2c0-0.2,0.1-0.4,0.4-0.4c0.1,0,0.1,0,0.2,0.1c0.4,0.3,0.7,0.5,1,0.8
			c0.3-0.3,0.6-0.5,0.9-0.8c0.1-0.1,0.2-0.1,0.2-0.1C-245-371.6-244.8-371.5-244.8-371.3z M-240.3-370.7h-1.6v1.9h1.6V-370.7z
			 M-240.3-368h-1.6v2h1.6C-240.3-366-240.3-368-240.3-368z M-240.3-365.1h-1.6v1.7c0,0.3,0.1,0.4,0.4,0.4h1.2V-365.1z
			 M-235.1-364.8v1.5c0,0.2,0.1,0.3,0.2,0.3h2.1v-2.2c0-0.3,0.1-0.5,0.5-0.5c0.3,0,0.5,0.2,0.5,0.5v2.2h2c0.1,0,0.2-0.1,0.2-0.3
			v-1.5c0-0.3,0.1-0.5,0.5-0.5c0.3,0,0.5,0.2,0.5,0.5v1.7c0,0.5-0.3,0.8-0.9,0.8h-5.5c-0.6,0-0.9-0.3-0.9-0.8v-1.8
			c0-0.3,0.2-0.5,0.5-0.5C-235.2-365.2-235.1-365.1-235.1-364.8z M-231.5-372.9C-231.4-372.9-231.4-373-231.5-372.9
			c0.2-0.3,0.3-0.5,0.4-0.8c0.1-0.1,0.2-0.2,0.4-0.2c0.1,0,0.2,0.1,0.3,0.1c0.1,0.1,0.1,0.2,0.1,0.3s0,0.2-0.1,0.4
			c0,0.1-0.1,0.1-0.1,0.2h3.3c0.5,0,0.7,0.2,0.7,0.7v2.6c0,0.4-0.2,0.7-0.7,0.7h-7.5v0.8h9.2c0.3,0,0.4,0.1,0.4,0.4
			c0,0.3-0.1,0.4-0.4,0.4h-9.2v0.5c0,0.2,0.1,0.3,0.2,0.3h8.6c0.6,0,0.9,0.3,0.9,1c0,0.8-0.1,1.6-0.1,2.3c-0.1,0.6-0.2,1-0.5,1.2
			c-0.3,0.2-0.6,0.3-1.2,0.3c-0.4,0-0.9-0.1-1.4-0.2c-0.2-0.1-0.4-0.3-0.4-0.5c0-0.4,0.2-0.6,0.5-0.6c0.5,0.2,0.9,0.2,1.2,0.2
			c0.3,0,0.5-0.1,0.6-0.2c0.1-0.1,0.2-0.4,0.2-0.8c0-0.4,0.1-0.9,0.1-1.5c0-0.4-0.2-0.6-0.5-0.6h-8.6c-0.4,0-0.7-0.2-0.7-0.7v-5.7
			c0-0.4,0.2-0.7,0.7-0.7h3.6C-231.5-373-231.5-372.9-231.5-372.9z M-227.3-371.8c0-0.2-0.1-0.2-0.2-0.2h-6.8
			c-0.2,0-0.2,0.1-0.2,0.3v0.5h7.3L-227.3-371.8L-227.3-371.8z M-227.5-369.8c0.1,0,0.2-0.1,0.2-0.2v-0.5h-7.3v0.8h7.1V-369.8z
			 M-246.3-358.8c0.4,0,0.7,0.2,0.7,0.6c0,0.1,0,0.3-0.1,0.5l-0.8,2.4c0,0.1-0.1,0.2-0.1,0.4s0,0.3,0.1,0.5c0.3,0.6,0.6,1.1,0.7,1.5
			s0.1,0.8,0.1,1.2c0,0.5-0.1,1-0.4,1.3c-0.3,0.4-0.8,0.7-1.4,0.7c-0.3,0-0.6-0.1-1-0.2v2.5c0,0.3-0.2,0.5-0.5,0.5s-0.5-0.2-0.5-0.5
			v-10.5c0-0.5,0.2-0.7,0.8-0.7h2.4C-246.3-358.6-246.3-358.8-246.3-358.8z M-247.5-350.8c0.3,0,0.6-0.1,0.7-0.4
			c0.2-0.2,0.3-0.5,0.3-0.8s0-0.5-0.1-0.9c-0.1-0.4-0.4-0.9-0.8-1.7c-0.1-0.1-0.1-0.3-0.1-0.4v-0.5l0.8-2.5c0-0.1-0.1-0.1-0.2-0.1
			h-1.3c-0.2,0-0.3,0.1-0.3,0.3v6.6C-247.9-350.9-247.6-350.8-247.5-350.8z M-244.1-348.8c0.7-0.2,1.3-0.5,1.8-0.7
			c0.1,0,0.2-0.1,0.3-0.1c0.2,0,0.4,0.1,0.4,0.4c0,0.2-0.1,0.4-0.3,0.5c-0.5,0.3-1.1,0.6-1.9,0.8c-0.6,0.2-1.3,0.4-2.1,0.6
			c-0.3,0-0.5-0.2-0.5-0.5c0-0.3,0.1-0.5,0.4-0.5c0.4-0.1,0.7-0.1,1-0.2v-9.4c0-0.5,0.3-0.8,0.8-0.8h4.8c0.5,0,0.7,0.2,0.7,0.7v4.2
			c0,0.5-0.2,0.7-0.7,0.7h-2.5c0.3,0.7,0.5,1.3,0.9,1.8c0.1,0.1,0.1,0.2,0.2,0.3c0.7-0.5,1.3-1,1.8-1.5c0.1-0.1,0.2-0.2,0.4-0.2
			c0.3,0,0.5,0.2,0.5,0.5c0,0.2-0.1,0.3-0.2,0.4c-0.5,0.5-1.2,1-1.9,1.5c0.2,0.2,0.3,0.4,0.5,0.6c0.5,0.5,1.2,1,2,1.5
			c0.2,0.1,0.3,0.3,0.3,0.4c0,0.4-0.2,0.6-0.6,0.6c-0.2,0-0.4-0.1-0.6-0.2c-0.9-0.6-1.7-1.3-2.3-2c-0.5-0.5-0.8-1-1.1-1.6
			s-0.5-1.3-0.7-2h-1.3v4.2C-244-348.8-244.1-348.8-244.1-348.8z M-243.9-357.9c-0.1,0-0.2,0.1-0.2,0.2v1.3h4.5v-1.3
			c0-0.1-0.1-0.2-0.2-0.2C-239.8-357.9-243.9-357.9-243.9-357.9z M-244.1-354h4.3c0.1,0,0.2-0.1,0.2-0.2v-1.3h-4.5
			C-244.1-355.5-244.1-354-244.1-354z M-235.5-347.6c-0.1,0.1-0.2,0.2-0.4,0.2c-0.4,0-0.6-0.2-0.6-0.6c0-0.1,0-0.2,0.1-0.3
			c0.8-0.7,1.4-1.6,1.7-2.5c0.2-0.7,0.3-1.5,0.3-2.4c0-0.3,0.1-0.4,0.5-0.4c0.4,0,0.5,0.2,0.5,0.5c0,0.9-0.1,1.8-0.3,2.7
			c0,0.1-0.1,0.2-0.1,0.3c0.3,0.3,0.6,0.6,0.9,0.7c0.5,0.3,1.1,0.5,1.8,0.7v-5.9h-3c-0.3,0-0.5-0.1-0.5-0.5c0-0.3,0.1-0.5,0.5-0.5
			h6.8c0.3,0,0.5,0.2,0.5,0.5c0,0.3-0.2,0.5-0.5,0.5h-2.9v2.3h3.7c0.3,0,0.5,0.2,0.5,0.5s-0.2,0.5-0.5,0.5h-3.7v2.8
			c1,0.1,2.7,0.2,5.1,0.2c0.3,0,0.4,0.2,0.4,0.5s-0.2,0.4-0.5,0.5c-3.3,0-5.4-0.2-6.3-0.4c-0.8-0.2-1.4-0.4-1.9-0.7
			c-0.3-0.2-0.6-0.4-0.8-0.7C-234.5-348.7-234.9-348.1-235.5-347.6z M-230.1-358.7v0.7h4.2c0.4,0,0.6,0.1,0.8,0.4
			c0.2,0.2,0.2,0.5,0.2,0.9c0,0.4,0,0.8-0.1,1.3c-0.1,0.3-0.3,0.4-0.6,0.4c-0.3,0-0.5-0.2-0.5-0.5c0.1-0.6,0.1-1,0.1-1.2
			c0-0.3-0.1-0.5-0.4-0.5h-8.5c-0.3,0-0.4,0.1-0.4,0.4v1c0,0.3-0.2,0.5-0.5,0.5s-0.5-0.1-0.5-0.5v-1.4c0-0.6,0.3-0.9,0.9-0.9h4.1
			v-0.7c0-0.3,0.2-0.5,0.5-0.5C-230.3-359.3-230.1-359.1-230.1-358.7z"/>
	</g>
</g>
</svg>
