<?xml version="1.0" encoding="utf-8"?>
<!-- Generator: Adobe Illustrator 23.0.2, SVG Export Plug-In . SVG Version: 6.00 Build 0)  -->
<svg version="1.1" id="圖層_1" xmlns="http://www.w3.org/2000/svg" xmlns:xlink="http://www.w3.org/1999/xlink" x="0px" y="0px"
	 viewBox="0 0 45 45" style="enable-background:new 0 0 45 45;" xml:space="preserve">
<style type="text/css">
	.st0{fill:#35A936;}
	.st1{fill:#FFFFFF;}
	.st2{fill:#D5EA50;}
	.st3{fill-rule:evenodd;clip-rule:evenodd;fill:#D5EA50;}
</style>
<path class="st0" d="M-347.7,225.2h-170c-83.5,0-151.2-67.7-151.2-151.2v-250.5c0-83.5,67.7-151.2,151.2-151.2h170
	c83.5,0,151.2,67.7,151.2,151.2V74C-196.5,157.5-264.2,225.2-347.7,225.2z"/>
<g>
	<path class="st1" d="M-529.6-262.4v-1.9h7v1.9H-529.6z M-488.3-279.9c0.2,0.2,0.3,0.5,0.3,0.8c0,0.3-0.1,0.5-0.2,0.6
		c-0.3,0.4-0.6,0.9-0.8,1.2h9.2c1.3,0,2,0.6,2,1.9v18.7c0,1.2-0.7,1.8-2,1.8h-17.7c-1.2,0-1.8-0.6-1.8-1.8v-18.7
		c0-1.2,0.6-1.9,1.8-1.9h6.3c0.1-0.2,0.2-0.3,0.3-0.5c0.4-0.6,0.8-1.3,1.1-2c0.2-0.3,0.5-0.4,0.9-0.4
		C-488.8-280.2-488.5-280.1-488.3-279.9L-488.3-279.9z M-480-270.5v-4c0-0.5-0.3-0.8-0.8-0.8h-16c-0.4,0-0.6,0.3-0.6,0.8v4H-480
		L-480-270.5z M-480-263.8v-4.8h-17.4v4.8H-480z M-480-257.5v-4.3h-17.4v4.3c0,0.5,0.2,0.8,0.6,0.8h16
		C-480.2-256.7-480-257-480-257.5L-480-257.5z M-461.8-275.8v-3.2c0-0.7,0.4-1.1,1.1-1.1s1.1,0.4,1.1,1.1v3.2h8.6c1.3,0,2,0.6,2,1.8
		v16.5c0,1.2-0.7,1.9-2,1.9h-19.5c-1.3,0-1.9-0.6-1.9-1.9V-274c0-1.2,0.6-1.8,1.9-1.8H-461.8z M-461.8-267.3v-6.6h-7.5
		c-0.6,0-0.9,0.3-0.9,1v5.6H-461.8z M-461.8-265.2h-8.4v6.7c0,0.7,0.3,1,0.9,1h7.5C-461.8-257.5-461.8-265.2-461.8-265.2z
		 M-459.6-267.3h8.5v-5.6c0-0.6-0.3-1-1-1h-7.5V-267.3z M-451.1-258.5v-6.7h-8.5v7.7h7.5C-451.4-257.5-451.1-257.8-451.1-258.5z
		 M-438.2-272.4c0.2,0.2,0.4,0.4,0.4,0.7c0,0.1-0.1,0.3-0.1,0.5c-0.6,1.3-1.3,2.4-2.1,3.4v12.4c0,0.7-0.3,1-1,1c-0.7,0-1-0.3-1-1
		v-10.3c-0.4,0.4-0.9,0.8-1.4,1.1c-0.3,0.3-0.6,0.4-0.8,0.4c-0.7,0-1.1-0.3-1.1-1c0-0.2,0.1-0.4,0.2-0.6c1.2-0.8,2.2-1.7,3.1-2.7
		c1-1,1.8-2.2,2.4-3.6c0.1-0.4,0.3-0.7,0.7-0.7C-438.7-272.6-438.4-272.6-438.2-272.4L-438.2-272.4z M-438.8-279.6
		c0.2,0.2,0.4,0.4,0.4,0.7c0,0.1-0.1,0.3-0.1,0.5c-0.6,1.5-1.3,2.7-2.2,3.8c-0.8,1-1.7,2-2.7,2.8c-0.3,0.3-0.5,0.4-0.7,0.4
		c-0.7,0-1.1-0.3-1.1-0.9c0-0.2,0.1-0.4,0.2-0.6c1-0.8,1.9-1.7,2.7-2.7c0.8-1,1.5-2.2,2.1-3.6c0.1-0.4,0.3-0.7,0.6-0.7
		C-439.2-279.9-439-279.8-438.8-279.6z M-420-271.2c0,0.7-0.3,1-1,1h-4v12.5c0,2.2-1,3.3-3.1,3.3c-1.3,0-3-0.3-5.2-0.9
		c-0.5-0.2-0.8-0.5-0.8-1c0-0.7,0.3-1,0.9-1.1c0.2,0,0.5,0.1,0.9,0.1c2.2,0.5,3.7,0.8,4.4,0.8c0.5,0,0.8-0.5,0.8-1.7v-12.1h-8.7
		c-0.7,0-1-0.3-1-1c0-0.6,0.3-1,1-1h14.8C-420.3-272.2-420-271.9-420-271.2L-420-271.2z M-421.2-277.8c0,0.7-0.3,1-1,1h-12.2
		c-0.7,0-1-0.3-1-1c0-0.6,0.3-1,1-1h12.2C-421.5-278.7-421.2-278.4-421.2-277.8z M-410.8-279.1v2.4h2.6c0.6,0,0.9,0.3,0.9,0.9
		c0,0.7-0.3,1-0.9,1h-4.4c0,1.3,0,2.5-0.1,3.6h2.7c1.3,0,2,0.6,2,1.8c0,4.5-0.1,8-0.4,10.5c-0.2,1.7-0.5,2.8-1,3.4s-1.3,0.9-2.2,0.9
		c-0.4,0-0.9-0.1-1.5-0.3c-0.5-0.2-0.8-0.5-0.8-1c0-0.7,0.3-1.1,1-1.1c0.6,0.2,1.1,0.3,1.3,0.3c0.4,0,0.8-0.2,1-0.7
		c0.2-0.6,0.4-1.4,0.5-2.4c0.2-1.6,0.3-4.6,0.3-8.9c0-0.5-0.2-0.8-0.6-0.8h-2.1c-0.1,1.5-0.2,2.9-0.3,4.2c-0.5,3.9-1.3,7.3-2.6,10.3
		c-0.2,0.3-0.5,0.4-0.8,0.4c-0.8,0-1.1-0.4-1.1-1.1c0-0.1,0.1-0.3,0.2-0.6c1.1-2.8,2-6.1,2.4-9.7c0.3-2.8,0.4-5.8,0.4-9h-1.5
		c-0.6,0-0.9-0.3-0.9-1c0-0.6,0.3-0.9,0.9-0.9h3.1v-2.4c0-0.6,0.3-1,1-1C-411.2-280.1-410.8-279.7-410.8-279.1L-410.8-279.1z
		 M-402.9-279.4c-0.1,0.8-0.2,1.5-0.3,2.1h10c0.6,0,0.9,0.3,0.9,0.9c0,0.7-0.3,1-0.9,1h-10.5c0,0.1-0.1,0.1-0.1,0.2
		c-0.6,1.4-1.3,2.6-2.2,3.6c-0.4,0.4-0.8,0.5-1.1,0.5c-0.8,0-1.2-0.4-1.2-1.1c0-0.1,0.1-0.3,0.4-0.6c1-1,1.7-2,2.2-3
		c0.4-0.9,0.6-2.1,0.8-3.5c0-0.6,0.3-0.9,1-0.9C-403.3-280.3-402.9-280-402.9-279.4L-402.9-279.4z M-393.7-272.6
		c0,0.6-0.4,1-1.1,1.1c-1.5,0.4-2.9,0.7-4.3,0.8c0.3,2.1,0.7,3.8,1.1,5.1c1.3-1,2.5-2,3.3-2.8c0.3-0.3,0.5-0.4,0.8-0.4
		c0.6,0,1,0.3,1,1c0,0.3-0.1,0.6-0.4,0.9c-1.1,1.1-2.5,2.1-4,3.1c0.3,0.8,0.7,1.6,1.1,2.4c0.7,1.4,1.9,3,3.6,5
		c0.4,0.3,0.7,0.6,0.7,0.9c0,0.6-0.3,1-1,1c-0.3,0-0.6-0.1-1-0.3c-1.4-1.4-2.6-2.8-3.4-4.4c-0.9-1.3-1.6-3-2.2-5
		c-0.5-1.5-0.9-3.6-1.3-6.1c-0.6,0.1-1.1,0.1-1.5,0.1s-0.7,0.3-0.7,0.8v11.7c0.8-0.4,1.7-1,2.9-1.8l0.3-0.1c0.7,0,1,0.4,1,1.1
		c0,0.3-0.1,0.5-0.4,0.7c-0.7,0.6-1.5,1.2-2.6,1.8c-1.4,0.8-2.6,1.3-3.8,1.8c-0.2,0.1-0.4,0.1-0.5,0.1c-0.7,0-1-0.3-1-1
		c0-0.6,0.3-1,0.8-1.1l1.5-0.6v-13.1c0-0.7,0.2-1.2,0.5-1.5c0.3-0.3,0.8-0.4,1.6-0.4c2.7-0.1,5.5-0.6,8.3-1.4
		C-394.1-273.6-393.7-273.3-393.7-272.6z M-380.2-275.3c0.2,0.2,0.3,0.4,0.3,0.6c0,0.3-0.1,0.6-0.2,0.8c-0.1,0.1-0.1,0.2-0.2,0.2
		h9.9c1.3,0,2,0.5,2,1.4c0,0.3-0.3,0.8-0.9,1.4c-1.3,1.3-2.9,2.4-4.6,3.3c-0.2,0.1-0.3,0.2-0.4,0.2c0.8,0.3,1.5,0.4,2.3,0.6
		c1.8,0.3,4.3,0.5,7.5,0.5c0.6,0,1,0.3,1,0.9c0,0.8-0.4,1.2-1.3,1.2c-1.5,0-3.2-0.1-5.3-0.4c-2.6-0.4-4.8-1-6.5-1.6
		c-0.8,0.4-1.7,0.7-2.5,1c-2.6,0.9-5,1.6-7.3,2c-0.9,0.2-1.5,0.3-1.8,0.3c-0.8,0-1.2-0.4-1.2-1.1c0-0.4,0.3-0.8,0.9-0.9
		c2.4-0.4,4.3-0.8,5.7-1.1c1.4-0.3,2.7-0.7,4-1.2c-1.2-0.6-2.1-1.1-2.9-1.7c-0.9-0.6-1.5-1.1-1.8-1.4c-0.1,0.1-0.3,0.2-0.4,0.3
		c-0.8,0.6-1.8,1.1-2.7,1.6c-0.3,0.2-0.5,0.2-0.6,0.2c-0.3,0-0.5-0.1-0.6-0.3c-0.2-0.2-0.3-0.5-0.3-0.8c0-0.3,0.2-0.6,0.6-0.8
		c1-0.4,1.8-1,2.5-1.5c0.6-0.4,1.2-1,1.8-1.5c0.4-0.4,1-1.1,1.7-2c0.2-0.2,0.4-0.3,0.6-0.3C-380.7-275.6-380.5-275.5-380.2-275.3
		L-380.2-275.3z M-375.5-279.1v1.3h9.3c0.8,0,1.4,0.3,1.8,0.8c0.3,0.4,0.5,1.1,0.5,1.9c0,0.6-0.1,1.3-0.1,2
		c-0.2,0.6-0.6,0.9-1.2,0.9c-0.7,0-1.1-0.4-1.1-1.1c0.1-0.9,0.2-1.4,0.2-1.7c0-0.6-0.3-1-0.8-1h-18.9c-0.6,0-0.9,0.3-0.9,0.9v1.9
		c0,0.7-0.4,1-1.1,1s-1-0.3-1-1v-2.6c0-1.3,0.6-2,2-2h9.1v-1.3c0-0.7,0.4-1.1,1.1-1.1S-375.5-279.8-375.5-279.1z M-369.3-263.4
		c1.5,0,2.3,0.8,2.3,2.2v4.1c0,1.5-0.8,2.2-2.3,2.2h-14.2c-1.5,0-2.2-0.7-2.2-2.2v-4.1c0-1.5,0.7-2.2,2.2-2.2H-369.3z M-369.1-257.7
		v-2.9c0-0.6-0.3-0.9-0.9-0.9h-12.8c-0.5,0-0.8,0.3-0.8,0.9v2.9c0,0.6,0.3,0.9,0.8,0.9h12.8C-369.4-256.9-369.1-257.1-369.1-257.7z
		 M-377.3-268.4l0.6,0.3c1.6-0.7,3.1-1.7,4.6-2.8c0.4-0.3,0.6-0.5,0.6-0.6c0-0.1-0.2-0.2-0.4-0.2h-9.6c-0.2,0-0.3,0-0.4-0.1
		l-0.1,0.1l-0.1,0.1C-380.6-270.3-379-269.2-377.3-268.4L-377.3-268.4z M-342.8-262.4v-1.9h7v1.9H-342.8z"/>
</g>
<g>
	<g>
		<path class="st2" d="M-467.7,37.1c-1.9,0-3.4-1.5-3.4-3.4s1.5-3.4,3.4-3.4s3.4,1.5,3.4,3.4S-465.8,37.1-467.7,37.1z M-467.7,32.1
			c-0.9,0-1.6,0.7-1.6,1.6s0.7,1.6,1.6,1.6s1.6-0.7,1.6-1.6S-466.8,32.1-467.7,32.1z"/>
		<path class="st3" d="M-420.2,33.7c0,1.4-1.1,2.5-2.5,2.5s-2.5-1.1-2.5-2.5s1.1-2.5,2.5-2.5S-420.2,32.3-420.2,33.7"/>
		<path class="st2" d="M-422.7,37.1c-1.9,0-3.4-1.5-3.4-3.4s1.5-3.4,3.4-3.4s3.4,1.5,3.4,3.4S-420.8,37.1-422.7,37.1z M-422.7,32.1
			c-0.9,0-1.6,0.7-1.6,1.6s0.7,1.6,1.6,1.6s1.6-0.7,1.6-1.6S-421.8,32.1-422.7,32.1z M-461.5,34.6c-0.5,0-0.9-0.4-0.9-0.9
			c0-3-2.4-5.4-5.4-5.4s-5.4,2.4-5.4,5.4c0,0.5-0.4,0.9-0.9,0.9s-0.9-0.4-0.9-0.9c0-3.9,3.2-7.1,7.1-7.1c3.9,0,7.1,3.2,7.1,7.1
			C-460.6,34.2-461,34.6-461.5,34.6L-461.5,34.6z"/>
		<path class="st2" d="M-416.4,34.6c-0.5,0-0.9-0.4-0.9-0.9c0-3-2.4-5.4-5.4-5.4s-5.4,2.4-5.4,5.4c0,0.5-0.4,0.9-0.9,0.9
			s-0.9-0.4-0.9-0.9c0-3.9,3.2-7.1,7.1-7.1c3.9,0,7.1,3.2,7.1,7.1C-415.5,34.2-415.9,34.6-416.4,34.6L-416.4,34.6z"/>
		<path class="st2" d="M-428.9,34.6h-32.6c-0.5,0-0.9-0.4-0.9-0.9s0.4-0.9,0.9-0.9h32.5c0.5,0,0.9,0.4,0.9,0.9
			S-428.4,34.6-428.9,34.6L-428.9,34.6z M-405.2,34.6h-11.3c-0.5,0-0.9-0.4-0.9-0.9s0.4-0.9,0.9-0.9h11.3c0.5,0,0.9,0.4,0.9,0.9
			S-404.7,34.6-405.2,34.6z"/>
		<path class="st2" d="M-407.7,34.6c-0.5,0-0.9-0.4-0.9-0.9V14.9c0-0.5,0.4-0.9,0.9-0.9s0.9,0.4,0.9,0.9v18.8
			C-406.8,34.2-407.2,34.6-407.7,34.6z M-413.9,34.6c-0.5,0-0.9-0.4-0.9-0.9V14.9c0-0.5,0.4-0.9,0.9-0.9s0.9,0.4,0.9,0.9v18.8
			C-413,34.2-413.4,34.6-413.9,34.6z"/>
		<path class="st2" d="M-405.2,15.9h-71.3c-0.5,0-0.9-0.4-0.9-0.9s0.4-0.9,0.9-0.9h71.3c0.5,0,0.9,0.4,0.9,0.9
			S-404.7,15.9-405.2,15.9z"/>
		<path class="st2" d="M-407.7,15.9c-0.5,0-0.9-0.4-0.9-0.9V3.7c0-0.5,0.4-0.9,0.9-0.9s0.9,0.4,0.9,0.9V15
			C-406.8,15.4-407.2,15.9-407.7,15.9z M-413.9-1.7h-53.8c-0.5,0-0.9-0.4-0.9-0.9s0.4-0.9,0.9-0.9h53.8c0.5,0,0.9,0.4,0.9,0.9
			S-413.4-1.7-413.9-1.7z M-476.5,15.9h-0.3c-0.5-0.1-0.7-0.6-0.6-1.1l3.8-12.5c0.1-0.5,0.6-0.7,1.1-0.6s0.7,0.6,0.6,1.1l-3.8,12.5
			C-475.7,15.6-476.1,15.9-476.5,15.9z M-474,23.4h-0.1c-0.5-0.1-0.8-0.5-0.7-1l1.2-7.5c0.1-0.5,0.5-0.8,1-0.7
			c0.5,0.1,0.8,0.5,0.7,1l-1.2,7.5C-473.1,23-473.5,23.4-474,23.4z"/>
		<path class="st2" d="M-477.7,25.9c-0.3,0-0.6-0.1-0.7-0.4c-0.3-0.4-0.2-1,0.2-1.2l3.8-2.5c0.4-0.3,1-0.2,1.2,0.2
			c0.3,0.4,0.2,1-0.2,1.2l-3.8,2.5C-477.4,25.8-477.5,25.9-477.7,25.9L-477.7,25.9z"/>
		<path class="st2" d="M-477.7,34.6c-0.5,0-0.9-0.4-0.9-0.9v-8.8c0-0.5,0.4-0.9,0.9-0.9s0.9,0.4,0.9,0.9v8.8
			C-476.8,34.2-477.2,34.6-477.7,34.6z"/>
		<path class="st2" d="M-474,34.6h-3.8c-0.5,0-0.9-0.4-0.9-0.9s0.4-0.9,0.9-0.9h3.8c0.5,0,0.9,0.4,0.9,0.9S-473.5,34.6-474,34.6z
			 M-462.7,23.4c-0.5,0-0.9-0.4-0.9-0.9V15c0-0.5,0.4-0.9,0.9-0.9s0.9,0.4,0.9,0.9v7.5C-461.8,23-462.2,23.4-462.7,23.4z"/>
		<path class="st2" d="M-422.7,23.4H-474c-0.5,0-0.9-0.4-0.9-0.9s0.4-0.9,0.9-0.9h51.3c0.5,0,0.9,0.4,0.9,0.9
			S-422.2,23.4-422.7,23.4z"/>
		<path class="st2" d="M-422.7,23.4c-0.5,0-0.9-0.4-0.9-0.9V15c0-0.5,0.4-0.9,0.9-0.9s0.9,0.4,0.9,0.9v7.5
			C-421.8,23-422.2,23.4-422.7,23.4z M-432.7,23.4c-0.5,0-0.9-0.4-0.9-0.9V15c0-0.5,0.4-0.9,0.9-0.9s0.9,0.4,0.9,0.9v7.5
			C-431.8,23-432.2,23.4-432.7,23.4z M-452.7,23.4c-0.5,0-0.9-0.4-0.9-0.9V15c0-0.5,0.4-0.9,0.9-0.9s0.9,0.4,0.9,0.9v7.5
			C-451.8,23-452.2,23.4-452.7,23.4z M-442.7,23.4c-0.5,0-0.9-0.4-0.9-0.9V15c0-0.5,0.4-0.9,0.9-0.9s0.9,0.4,0.9,0.9v7.5
			C-441.8,23-442.2,23.4-442.7,23.4z M-462.7,10.8c-0.5,0-0.9-0.4-0.9-0.9V2.4c0-0.5,0.4-0.9,0.9-0.9s0.9,0.4,0.9,0.9v7.5
			C-461.8,10.4-462.2,10.8-462.7,10.8z"/>
		<path class="st2" d="M-412.7,10.8H-474c-0.5,0-0.9-0.4-0.9-0.9S-474.5,9-474,9h61.3c0.5,0,0.9,0.4,0.9,0.9S-412.2,10.8-412.7,10.8
			z"/>
		<path class="st2" d="M-422.7,10.8c-0.5,0-0.9-0.4-0.9-0.9V2.4c0-0.5,0.4-0.9,0.9-0.9s0.9,0.4,0.9,0.9v7.5
			C-421.8,10.4-422.2,10.8-422.7,10.8z M-432.7,10.8c-0.5,0-0.9-0.4-0.9-0.9V2.4c0-0.5,0.4-0.9,0.9-0.9s0.9,0.4,0.9,0.9v7.5
			C-431.8,10.4-432.2,10.8-432.7,10.8z M-452.7,10.8c-0.5,0-0.9-0.4-0.9-0.9V2.4c0-0.5,0.4-0.9,0.9-0.9s0.9,0.4,0.9,0.9v7.5
			C-451.8,10.4-452.2,10.8-452.7,10.8z M-442.7,10.8c-0.5,0-0.9-0.4-0.9-0.9V2.4c0-0.5,0.4-0.9,0.9-0.9s0.9,0.4,0.9,0.9v7.5
			C-441.8,10.4-442.2,10.8-442.7,10.8z M-412.7,10.8c-0.5,0-0.9-0.4-0.9-0.9v-5c0-0.5,0.4-0.9,0.9-0.9s0.9,0.4,0.9,0.9v5
			C-411.8,10.4-412.2,10.8-412.7,10.8z"/>
		<path class="st2" d="M-415.2,3.3h-57.5c-0.5,0-0.9-0.4-0.9-0.9s0.4-0.9,0.9-0.9h57.5c0.5,0,0.9,0.4,0.9,0.9S-414.7,3.3-415.2,3.3z
			"/>
		<path class="st2" d="M-412.7,5.8c-0.5,0-0.9-0.4-0.9-0.9c0-0.9-0.7-1.6-1.6-1.6c-0.5,0-0.9-0.4-0.9-0.9s0.4-0.9,0.9-0.9
			c1.9,0,3.4,1.5,3.4,3.4C-411.8,5.4-412.2,5.8-412.7,5.8z M-407.7,4.6c-0.5,0-0.9-0.4-0.9-0.9c0-3-2.4-5.4-5.4-5.4
			c-0.5,0-0.9-0.4-0.9-0.9s0.4-0.9,0.9-0.9c3.9,0,7.1,3.2,7.1,7.1C-406.8,4.2-407.2,4.6-407.7,4.6L-407.7,4.6z M-472.7,3.3h-0.2
			c-0.4-0.1-0.7-0.5-0.7-0.9c0-0.1,0-0.1,0.1-0.2c1.1-3.8,3-5.7,5.9-5.7c0.5,0,0.9,0.4,0.9,0.9s-0.4,0.9-0.9,0.9
			c-2,0-3.3,1.4-4.1,4.3C-472,3.1-472.3,3.3-472.7,3.3L-472.7,3.3z M-475.2,27.1h-2.5c-0.5,0-0.9-0.4-0.9-0.9s0.4-0.9,0.9-0.9h2.5
			c0.5,0,0.9,0.4,0.9,0.9S-474.7,27.1-475.2,27.1z"/>
	</g>
	<g>
		<path class="st2" d="M-394.2,27.2l2-0.7c0.5-0.2,0.3-0.8-0.2-0.8H-454c-0.3,0-0.5,0.2-0.5,0.4v23.5c0,0.2,0.2,0.4,0.5,0.4h61.8
			c0.6,0,0.7-0.6,0.2-0.8l-2.2-0.9c-0.4-0.2-0.4-0.6,0-0.8l3.2-1.2c0.4-0.1,0.4-0.6,0-0.8l-3.2-1.3c-0.4-0.2-0.4-0.6,0-0.8l3.2-1.2
			c0.4-0.1,0.4-0.6,0-0.8l-3.2-1.3c-0.4-0.2-0.4-0.6,0-0.8l3.2-1.2c0.4-0.1,0.4-0.6,0-0.8l-3.2-1.3c-0.4-0.2-0.4-0.6,0-0.8l3.2-1.2
			c0.4-0.1,0.4-0.6,0-0.8l-3.2-1.3c-0.4-0.2-0.4-0.6,0-0.8l3.2-1.2c0.4-0.1,0.4-0.6,0-0.8l-3.2-1.3
			C-394.7,27.8-394.6,27.4-394.2,27.2L-394.2,27.2z"/>
		<g>
			<path class="st0" d="M-449.3,43.1l1.3-1.8c0.8,0.8,1.9,1.4,3.1,1.4c1.4,0,2.4-0.7,2.4-2c0-1.4-0.8-2.2-3.9-2.2v-2
				c2.6,0,3.4-0.9,3.4-2.1c0-1.1-0.7-1.7-1.9-1.8c-1,0-1.8,0.5-2.7,1.3l-1.4-1.7c1.2-1.1,2.6-1.7,4.2-1.7c2.7,0,4.6,1.3,4.6,3.7
				c0,1.5-0.9,2.6-2.4,3.2v0.1c1.6,0.4,2.8,1.6,2.8,3.5c0,2.6-2.3,4.1-4.9,4.1C-446.9,45-448.4,44.2-449.3,43.1L-449.3,43.1z
				 M-437.8,37.7c0-4.9,1.9-7.2,4.8-7.2c2.8,0,4.7,2.4,4.7,7.2c0,4.8-1.9,7.3-4.7,7.3C-435.9,45-437.8,42.5-437.8,37.7z M-431,37.7
				c0-3.9-0.9-5.1-2.1-5.1s-2.1,1.1-2.1,5.1c0,3.9,0.9,5.2,2.1,5.2C-431.9,42.9-431,41.7-431,37.7z M-425.2,39.3
				c0-1.5,0.8-2.4,1.9-2.4c1.1,0,1.9,0.9,1.9,2.4c0,1.6-0.8,2.5-1.9,2.5S-425.2,40.9-425.2,39.3z M-422.5,39.3
				c0-1.1-0.4-1.6-0.8-1.6c-0.4,0-0.8,0.4-0.8,1.6c0,1.1,0.3,1.6,0.8,1.6S-422.5,40.5-422.5,39.3z M-418.9,36.9h0.9l-4.2,8h-0.9
				L-418.9,36.9z M-419.6,42.5c0-1.6,0.8-2.4,1.9-2.4c1.1,0,1.9,0.9,1.9,2.4s-0.8,2.5-1.9,2.5S-419.6,44-419.6,42.5z M-416.9,42.5
				c0-1.1-0.4-1.6-0.8-1.6c-0.4,0-0.8,0.4-0.8,1.6c0,1.1,0.4,1.6,0.8,1.6C-417.3,44-416.9,43.6-416.9,42.5z M-412.7,41.9
				c0-2,1.4-3.1,2.8-3.1s2.8,1.1,2.8,3.1c0,1.9-1.4,3.1-2.8,3.1S-412.7,43.8-412.7,41.9z M-408.6,41.9c0-1.1-0.5-1.8-1.2-1.8
				s-1.2,0.7-1.2,1.8s0.5,1.8,1.2,1.8S-408.6,43-408.6,41.9z M-399,37.6c-0.2-0.1-0.4-0.1-0.6-0.1c-0.5,0-0.7,0.3-0.7,0.9v0.5h1.1
				v1.2h-1.1v4.6h-1.5v-4.6h-2.1v4.6h-1.6v-4.6h-0.8V39l0.8-0.1v-0.4c0-1.2,0.6-2.1,2.1-2.1c0.5,0,0.9,0.1,1.2,0.2l-0.3,1.1
				c-0.2-0.1-0.4-0.1-0.7-0.1c-0.5,0-0.8,0.3-0.8,0.9v0.4h2.1v-0.5c0-1.2,0.6-2.2,2-2.2c0.5,0,0.9,0.1,1.1,0.2L-399,37.6L-399,37.6z
				"/>
		</g>
	</g>
</g>
<path class="st2" d="M-432.7,74c-31.9,0-57.9-26-57.9-57.9s26-57.9,57.9-57.9s57.9,26,57.9,57.9S-400.8,74-432.7,74L-432.7,74z
	 M-432.7-40c-30.9,0-56.1,25.2-56.1,56.1s25.2,56.1,56.1,56.1s56.1-25.2,56.1-56.1S-401.8-40-432.7-40L-432.7-40z"/>
<g>
	<g>
		<path class="st2" d="M-560.8,31.2h-3.7V9.6l0.9,0.5c0.2,0.1,0.4,0.2,0.6,0.2c0.4,0,0.8-0.2,1-0.6l1.8-3c0.2-0.3,0.2-0.6,0.1-0.9
			s-0.3-0.5-0.5-0.7l-21.3-12.5c-0.4-0.2-0.8-0.2-1.1,0l-21.3,12.5c-0.3,0.2-0.4,0.4-0.5,0.7c-0.1,0.3,0,0.6,0.1,0.9l1.8,3
			c0.3,0.5,1,0.7,1.6,0.4l0.9-0.5v21.6h-3.7c-0.6,0-1.1,0.5-1.1,1.1v3.8c0,0.6,0.5,1.1,1.1,1.1h43.4c0.6,0,1.1-0.5,1.1-1.1v-3.8
			C-559.7,31.7-560.2,31.2-560.8,31.2L-560.8,31.2z M-562,35.1h-20.6v-1.6h20.6V35.1z M-603.1,33.5h9v1.6h-9V33.5z M-562.8,6.6
			l-0.6,1.1l-18.5-10.8c-0.1,0-0.1-0.1-0.2-0.1h-0.2c-0.3,0-0.5,0-0.8,0.1l-18.5,10.9l-0.6-1.1l19.7-11.6L-562.8,6.6z M-598.3,8.3
			l15.8-9.3l14.8,8.7l1,0.6v22.9h-15.8V18.7c0-0.6-0.5-1.1-1.1-1.1h-9.3c-0.6,0-1.1,0.5-1.1,1.1v12.5h-4.2V8.3
			C-598.2,8.3-598.3,8.3-598.3,8.3z M-591.9,35.1V19.9h7v6.9h-1.8c-0.6,0-1.1,0.5-1.1,1.1s0.5,1.1,1.1,1.1h1.8v6.1H-591.9z"/>
		<path class="st2" d="M-522.2,27.2l2-0.7c0.5-0.2,0.3-0.8-0.2-0.8H-582c-0.3,0-0.5,0.2-0.5,0.4v23.5c0,0.2,0.2,0.4,0.5,0.4h61.8
			c0.6,0,0.7-0.6,0.2-0.8l-2.2-0.9c-0.4-0.2-0.4-0.6,0-0.8l3.2-1.2c0.4-0.1,0.4-0.6,0-0.8l-3.2-1.3c-0.4-0.2-0.4-0.6,0-0.8l3.2-1.2
			c0.4-0.1,0.4-0.6,0-0.8l-3.2-1.3c-0.4-0.2-0.4-0.6,0-0.8l3.2-1.2c0.4-0.1,0.4-0.6,0-0.8l-3.2-1.3c-0.4-0.2-0.4-0.6,0-0.8l3.2-1.2
			c0.4-0.1,0.4-0.6,0-0.8l-3.2-1.3c-0.4-0.2-0.4-0.6,0-0.8l3.2-1.2c0.4-0.1,0.4-0.6,0-0.8l-3.2-1.3
			C-522.6,27.9-522.6,27.4-522.2,27.2L-522.2,27.2z"/>
		<g>
			<path class="st0" d="M-577.3,38.4h5.2v2h-5.2V38.4z M-563,34.2c-0.8-0.7-1.5-1.1-2.4-1.1c-1.1,0-1.7,0.5-1.7,1.6
				c0,2.4,5.8,2,5.8,6.2c0,2.1-1.2,3.6-3.3,4v2.2h-1.9V45c-1.3-0.2-2.8-0.7-3.8-1.7l1.2-1.9c1,0.8,2,1.3,3.1,1.3
				c1.3,0,1.9-0.6,1.9-1.7c0-2.6-5.8-2.3-5.8-6.3c0-2.1,1.2-3.5,3.2-3.9v-2.2h1.9v2.2c1.4,0.2,2.3,0.9,3.1,1.7L-563,34.2L-563,34.2z
				 M-559.6,43.2l1.3-1.8c0.8,0.8,1.8,1.4,3.1,1.4c1.5,0,2.5-0.9,2.5-2.6c0-1.6-0.9-2.5-2.4-2.5c-0.8,0-1.3,0.2-2.1,0.7l-1.3-0.8
				l0.4-6.8h7.5v2.3h-5.1l-0.3,3c0.6-0.3,1-0.4,1.7-0.4c2.4,0,4.3,1.4,4.3,4.5s-2.3,4.9-4.9,4.9C-557.1,45.1-558.5,44.2-559.6,43.2
				L-559.6,43.2z M-548.1,37.7c0-4.9,1.9-7.2,4.8-7.2c2.8,0,4.7,2.4,4.7,7.2c0,4.8-1.9,7.3-4.7,7.3
				C-546.2,45.1-548.1,42.6-548.1,37.7z M-541.2,37.7c0-3.9-0.9-5.1-2.1-5.1c-1.2,0-2.1,1.1-2.1,5.1c0,3.9,0.9,5.2,2.1,5.2
				C-542.1,42.9-541.2,41.7-541.2,37.7z M-536.9,37.7c0-4.9,1.9-7.2,4.8-7.2c2.8,0,4.7,2.4,4.7,7.2c0,4.8-1.9,7.3-4.7,7.3
				C-535,45.1-536.9,42.6-536.9,37.7z M-530,37.7c0-3.9-0.9-5.1-2.1-5.1s-2.1,1.1-2.1,5.1c0,3.9,0.9,5.2,2.1,5.2S-530,41.7-530,37.7
				z"/>
		</g>
		<path class="st2" d="M-547.1-8.2c-3.9,0.9-7.7-1.5-8.6-5.4c-0.3-1.4-0.2-2.8,0.3-4.1c-3.1,1.2-4.9,4.5-4.1,7.9
			c0.8,3.7,4.5,6,8.2,5.1c2.1-0.5,3.7-1.9,4.6-3.7C-546.8-8.3-547-8.3-547.1-8.2z"/>
		<g>
			<path class="st0" d="M-541.7,7.8c-2.1,0-3.7-1.9-3.1-3.9c0.2-0.8,0.8-1.5,2-2.1c2.5-1.3,4.4-0.7,5.6,0.4c0.5,0.4,1.1,0.3,1.5-0.2
				c0.2-0.3,0.6-0.6,1.2-0.6c0.7,0,1.2,0.2,1.6,0.5c0.5,0.4,1.3,0.2,1.6-0.4c0.8-1.9,2.9-4.5,8-3c3.3,1,4.4,3.6,4.6,5.7
				c0.2,1.6-1.1,3.1-2.7,3.1L-541.7,7.8L-541.7,7.8z"/>
			<path class="st2" d="M-541.8,8.8c-1.3,0-2.6-0.6-3.3-1.7c-0.8-1-1-2.3-0.6-3.5c0.4-1.1,1.2-2.1,2.5-2.7c2.5-1.3,5-1.1,6.7,0.5
				c0.4-0.5,1-1,2-1.1c0.8,0,1.5,0.2,2.2,0.6c0.8-1.7,3.2-5.3,9.3-3.5c3.9,1.2,5,4.2,5.3,6.6c0.1,1.1-0.2,2.1-0.9,3
				c-0.7,0.8-1.7,1.3-2.8,1.3L-541.8,8.8C-541.7,8.8-541.8,8.8-541.8,8.8L-541.8,8.8z M-540.1,2c-0.6,0-1.4,0.2-2.3,0.6
				c-0.8,0.4-1.3,0.9-1.5,1.5c-0.3,0.8,0.1,1.4,0.3,1.7c0.4,0.6,1.1,0.9,1.8,0.9l20.3-0.5c0.5,0,1-0.2,1.3-0.6
				c0.3-0.4,0.5-0.9,0.4-1.4c-0.3-2.6-1.6-4.2-3.9-4.9c-3.4-1-5.7-0.2-6.8,2.4c-0.2,0.6-0.7,1-1.3,1.1c-0.6,0.2-1.2,0.1-1.8-0.3
				c-0.3-0.2-0.6-0.3-1-0.3c-0.3,0-0.4,0.1-0.4,0.2c-0.4,0.5-0.9,0.8-1.5,0.9c-0.6,0.1-1.1-0.1-1.5-0.5C-538.4,2.4-539.1,2-540.1,2
				L-540.1,2z"/>
		</g>
	</g>
	<path class="st2" d="M-560.8,74c-31.9,0-57.9-26-57.9-57.9s26-57.9,57.9-57.9c31.9,0,57.9,26,57.9,57.9S-528.9,74-560.8,74z
		 M-560.8-40c-30.9,0-56.1,25.2-56.1,56.1s25.2,56.1,56.1,56.1c30.9,0,56.1-25.2,56.1-56.1S-529.9-40-560.8-40z"/>
</g>
<path class="st2" d="M-304.6,74c-31.9,0-57.9-26-57.9-57.9s26-57.9,57.9-57.9s57.9,26,57.9,57.9S-272.7,74-304.6,74z M-304.6-40
	c-30.9,0-56.1,25.2-56.1,56.1s25.2,56.1,56.1,56.1s56.1-25.2,56.1-56.1S-273.7-40-304.6-40z"/>
<path class="st2" d="M-302.6,16.1h-3.2V-3l0.8,0.4c0.2,0.1,0.3,0.1,0.5,0.1c0.3,0,0.7-0.2,0.9-0.5l1.6-2.7c0.1-0.2,0.2-0.5,0.1-0.8
	s-0.2-0.5-0.5-0.6l-18.8-11c-0.3-0.2-0.7-0.2-1,0l-18.8,11c-0.2,0.1-0.4,0.4-0.5,0.6c-0.1,0.3,0,0.5,0.1,0.8l1.6,2.7
	c0.3,0.5,0.9,0.6,1.4,0.4l0.8-0.4v19.1h-3.2c-0.6,0-1,0.4-1,1v3.4c0,0.6,0.4,1,1,1h38.4c0.6,0,1-0.4,1-1v-3.4
	C-301.5,16.5-302,16.1-302.6,16.1L-302.6,16.1z M-303.6,19.5h-18.2v-1.4h18.2V19.5z M-340,18.1h8v1.4h-8V18.1z M-304.3-5.7l-0.5,0.9
	l-16.4-9.6c-0.1,0-0.1-0.1-0.2-0.1h-0.2c-0.2,0-0.5,0-0.7,0.1l-16.4,9.6l-0.5-0.9l17.4-10.2L-304.3-5.7L-304.3-5.7z M-335.7-4.2
	l14-8.2l13.1,7.7l0.9,0.5v20.3h-14V5c0-0.6-0.4-1-1-1h-8.2c-0.6,0-1,0.4-1,1v11.1h-3.7L-335.7-4.2L-335.7-4.2L-335.7-4.2z
	 M-330,19.5V6.1h6.2v6.1h-1.6c-0.6,0-1,0.4-1,1s0.4,1,1,1h1.6v5.4h-6.2V19.5z"/>
<path class="st0" d="M-313.3,32.2h-12.5V16.9c0-3.4,2.8-6.2,6.2-6.2h0.1c3.4,0,6.2,2.8,6.2,6.2L-313.3,32.2L-313.3,32.2z"/>
<path class="st2" d="M-312.3,33.2h-14.5V16.9c0-4,3.2-7.2,7.2-7.2h0.1c4,0,7.2,3.2,7.2,7.2L-312.3,33.2L-312.3,33.2z M-324.8,31.2
	h10.5V16.9c0-2.9-2.3-5.2-5.2-5.2h-0.1c-2.9,0-5.2,2.3-5.2,5.2L-324.8,31.2L-324.8,31.2z"/>
<g transform="translate(335 325)">
	<g transform="translate(6 2)">
		<circle class="st0" cx="-661.9" cy="-320.8" r="5.9"/>
		<path class="st2" d="M-662-313.9c-1.3,0-2.7-0.4-3.8-1.1c-1.5-1-2.6-2.6-3-4.4c-0.4-1.8,0-3.7,1-5.2s2.6-2.6,4.4-3
			c3.8-0.8,7.4,1.6,8.2,5.4c0.4,1.8,0,3.7-1,5.2s-2.6,2.6-4.4,3C-661-313.9-661.5-313.9-662-313.9z M-661.9-325.7
			c-0.3,0-0.7,0-1,0.1c-1.3,0.3-2.4,1-3.1,2.1c-0.7,1.1-1,2.4-0.7,3.7c0.3,1.3,1,2.4,2.1,3.1c1.1,0.7,2.4,1,3.7,0.7
			c1.3-0.3,2.4-1,3.1-2.1c0.7-1.1,1-2.4,0.7-3.7C-657.6-324.1-659.7-325.7-661.9-325.7z"/>
	</g>
	<path class="st2" d="M-642.4-314.3c0,0-5.2,1.9-7.5-1.9C-652.1-320.1-644-318.8-642.4-314.3z M-601.4-319.8c0,0-5.2,1.9-7.5-1.9
		C-611.1-325.6-603-324.3-601.4-319.8z M-668.9-312c0,0,5.1,2.1,7.6-1.6C-659-317.3-667.1-316.4-668.9-312z M-625.8-325.9
		c0,0,3.8,4.1,7.5,1.7C-614.5-326.6-622.3-329.2-625.8-325.9z"/>
	<circle class="st2" cx="-658.5" cy="-318.6" r="1"/>
	<circle class="st2" cx="-652.9" cy="-319.7" r="1"/>
	<path class="st2" d="M-653-318c0.2,1.2-0.5,2.3-1.7,2.6c-1.2,0.2-2.3-0.5-2.6-1.7L-653-318z M-661.6-320.7l4.4-0.9l1.3-1.1l1.5,0.6
		l2.4-0.6l-1-1.7l-4.3-0.7C-657.3-325.1-661.4-323.5-661.6-320.7z"/>
</g>
<g>
	<path class="st0" d="M-292.9,31.1h-12.5V15.8c0-3.4,2.8-6.2,6.2-6.2h0.1c3.4,0,6.2,2.8,6.2,6.2L-292.9,31.1L-292.9,31.1z"/>
	<path class="st2" d="M-291.9,32.2h-14.5V15.9c0-4,3.2-7.2,7.2-7.2h0.1c4,0,7.2,3.2,7.2,7.2L-291.9,32.2L-291.9,32.2z M-304.4,30.1
		h10.5V15.8c0-2.9-2.3-5.2-5.2-5.2h-0.1c-2.9,0-5.2,2.3-5.2,5.2L-304.4,30.1L-304.4,30.1z"/>
	<g transform="translate(364 326)">
		<circle class="st0" cx="-662" cy="-320.6" r="5.9"/>
		<path class="st2" d="M-662-313.6c-0.9,0-1.7-0.2-2.6-0.5c-1.7-0.7-3.1-2-3.8-3.7s-0.7-3.6-0.1-5.3c0.7-1.7,2-3.1,3.7-3.8
			c1.7-0.7,3.6-0.7,5.3-0.1c1.7,0.7,3.1,2,3.8,3.7c0.7,1.7,0.7,3.6,0.1,5.3C-656.6-315.3-659.2-313.6-662-313.6z M-662-325.5
			c-0.7,0-1.3,0.1-1.9,0.4c-1.2,0.5-2.1,1.5-2.6,2.7c-0.5,1.2-0.5,2.6,0,3.8c0.5,1.2,1.5,2.1,2.7,2.6c2.5,1,5.4-0.2,6.4-2.7
			c0.5-1.2,0.5-2.6,0-3.8c-0.5-1.2-1.5-2.1-2.7-2.6C-660.7-325.4-661.4-325.5-662-325.5z"/>
		<circle class="st2" cx="-664.2" cy="-321.8" r="1"/>
		<circle class="st2" cx="-658.9" cy="-319.7" r="1"/>
		<path class="st2" d="M-660-318.3c-0.5,1.1-1.7,1.7-2.9,1.2c-1.1-0.5-1.7-1.7-1.2-2.9L-660-318.3z M-656.5-321.5l-2.3-0.9l-0.7-2
			l-1.8,1l-1.5-0.6l-2.7-1.1l2.6-1.2l3.7,0.7C-659.3-325.7-656.5-323.8-656.5-321.5z"/>
	</g>
</g>
<g>
	<path class="st2" d="M-273.5,31.3H-288V15c0-4,3.2-7.2,7.2-7.2h0.1c4,0,7.2,3.2,7.2,7.2L-273.5,31.3L-273.5,31.3z M-286,29.2h10.5
		V14.9c0-2.9-2.3-5.2-5.2-5.2h-0.1c-2.9,0-5.2,2.3-5.2,5.2L-286,29.2L-286,29.2z"/>
	<g transform="translate(383 325)">
		<circle class="st0" cx="-662.3" cy="-320.8" r="5.9"/>
		<path class="st2" d="M-662.3-313.8c-0.5,0-0.9,0-1.4-0.1c-3.8-0.8-6.2-4.5-5.4-8.2c0.8-3.8,4.5-6.2,8.2-5.4
			c3.8,0.8,6.2,4.5,5.4,8.2c-0.4,1.8-1.4,3.4-3,4.4C-659.6-314.2-660.9-313.8-662.3-313.8z M-662.3-325.7c-2.3,0-4.3,1.6-4.8,3.9
			c-0.5,2.7,1.2,5.3,3.8,5.8c1.3,0.3,2.6,0,3.7-0.7c1.1-0.7,1.8-1.8,2.1-3.1c0.5-2.7-1.2-5.3-3.8-5.8
			C-661.6-325.7-662-325.7-662.3-325.7z"/>
		<circle class="st2" cx="-659.7" cy="-320.5" r="1"/>
		<circle class="st2" cx="-665.3" cy="-321.7" r="1"/>
		<path class="st2" d="M-665.2-320c-0.2,1.2,0.5,2.3,1.7,2.6c1.2,0.2,2.3-0.5,2.6-1.7C-660.9-319.1-665.2-320-665.2-320z
			 M-666.3-324.6l2.4,0.6l1.5-0.6l1.3,1.1l4.4,0.9l-1.4-2.9l-4.2-1.2C-662.3-326.7-665.6-326.5-666.3-324.6z"/>
	</g>
</g>
<g>
	<path class="st2" d="M-270.7,27.2l2-0.7c0.5-0.2,0.3-0.8-0.2-0.8h-61.6c-0.3,0-0.5,0.2-0.5,0.4v23.5c0,0.2,0.2,0.4,0.5,0.4h61.8
		c0.6,0,0.7-0.6,0.2-0.8l-2.2-0.9c-0.4-0.2-0.4-0.6,0-0.8l3.2-1.2c0.4-0.1,0.4-0.6,0-0.8l-3.2-1.3c-0.4-0.2-0.4-0.6,0-0.8l3.2-1.2
		c0.4-0.1,0.4-0.6,0-0.8l-3.2-1.3c-0.4-0.2-0.4-0.6,0-0.8l3.2-1.2c0.4-0.1,0.4-0.6,0-0.8l-3.2-1.3c-0.4-0.2-0.4-0.6,0-0.8l3.2-1.2
		c0.4-0.1,0.4-0.6,0-0.8l-3.2-1.3c-0.4-0.2-0.4-0.6,0-0.8l3.2-1.2c0.4-0.1,0.4-0.6,0-0.8l-3.2-1.3
		C-271.1,27.9-271.1,27.4-270.7,27.2L-270.7,27.2z"/>
	<g>
		<path class="st0" d="M-325.8,38.4h5.2v2h-5.2V38.4z M-311.5,34.2c-0.8-0.7-1.5-1.1-2.4-1.1c-1.1,0-1.7,0.5-1.7,1.6
			c0,2.4,5.8,2,5.8,6.2c0,2.1-1.2,3.6-3.3,4v2.2h-1.9V45c-1.3-0.2-2.8-0.7-3.8-1.7l1.2-1.9c1,0.8,2,1.3,3.1,1.3
			c1.3,0,1.9-0.6,1.9-1.7c0-2.6-5.8-2.3-5.8-6.3c0-2.1,1.2-3.5,3.2-3.9v-2.2h1.9v2.2c1.4,0.2,2.3,0.9,3.1,1.7L-311.5,34.2z
			 M-308.1,43.2l1.3-1.8c0.8,0.8,1.8,1.4,3.1,1.4c1.5,0,2.5-0.9,2.5-2.6c0-1.6-0.9-2.5-2.4-2.5c-0.8,0-1.3,0.2-2.1,0.7l-1.3-0.8
			l0.4-6.8h7.5v2.3h-5.1l-0.3,3c0.6-0.3,1-0.4,1.7-0.4c2.4,0,4.3,1.4,4.3,4.5s-2.3,4.9-4.9,4.9C-305.6,45.1-307,44.2-308.1,43.2
			L-308.1,43.2z M-296.6,37.7c0-4.9,1.9-7.2,4.8-7.2c2.8,0,4.7,2.4,4.7,7.2c0,4.8-1.9,7.3-4.7,7.3
			C-294.7,45.1-296.6,42.6-296.6,37.7z M-289.7,37.7c0-3.9-0.9-5.1-2.1-5.1s-2.1,1.1-2.1,5.1c0,3.9,0.9,5.2,2.1,5.2
			S-289.7,41.7-289.7,37.7z M-285.4,37.7c0-4.9,1.9-7.2,4.8-7.2c2.8,0,4.7,2.4,4.7,7.2c0,4.8-1.9,7.3-4.7,7.3
			C-283.5,45.1-285.4,42.6-285.4,37.7z M-278.5,37.7c0-3.9-0.9-5.1-2.1-5.1s-2.1,1.1-2.1,5.1c0,3.9,0.9,5.2,2.1,5.2
			C-279.5,42.9-278.5,41.7-278.5,37.7z"/>
	</g>
</g>
<g transform="translate(343 383)">
	<circle class="st1" cx="-401.9" cy="-359.6" r="21.9"/>
	<g>
		<path class="st0" d="M-401.9-370.7c0,0.3-0.1,0.5-0.4,0.5h-4.6v0.7h4.1c0.2,0,0.4,0.1,0.4,0.4s-0.1,0.4-0.4,0.4h-4.1v0.8h5.1
			c0.3,0,0.4,0.1,0.4,0.4c0,0.3-0.1,0.5-0.4,0.5h-11.1c-0.3,0-0.4-0.1-0.4-0.5c0-0.3,0.1-0.4,0.4-0.4h5.1v-0.8h-4.2
			c-0.2,0-0.4-0.1-0.4-0.4c0-0.2,0.1-0.4,0.4-0.4h4.2v-0.7h-4.7c-0.3,0-0.4-0.1-0.4-0.5c0-0.3,0.1-0.4,0.4-0.4h4.7v-0.5
			c0-0.3,0.2-0.5,0.5-0.5c0.3,0,0.5,0.2,0.5,0.5v0.5h4.6C-402.1-371.1-401.9-371-401.9-370.7z M-403.7-366.3c0.6,0,1,0.3,1,0.9v4.2
			c0,0.8-0.5,1.2-1.5,1.2c-0.5,0-1.1-0.1-1.8-0.2c-0.2-0.1-0.3-0.2-0.3-0.4c0-0.4,0.1-0.6,0.4-0.6h0.4c0.5,0.1,1,0.2,1.3,0.2
			c0.4,0,0.6-0.2,0.6-0.6v-0.6h-7.5v1.8c0,0.3-0.2,0.5-0.5,0.5c-0.3,0-0.5-0.2-0.5-0.5v-5c0-0.6,0.3-0.9,1-0.9
			C-411.1-366.3-403.7-366.3-403.7-366.3z M-403.7-364.7v-0.5c0-0.2-0.1-0.3-0.2-0.3h-7.3c-0.1,0-0.1,0.1-0.1,0.3v0.5
			C-411.3-364.7-403.7-364.7-403.7-364.7z M-403.7-363v-0.9h-7.5v0.9H-403.7z M-397.3-371.8c0.1,0.1,0.2,0.2,0.2,0.4v0.2
			c-0.1,0.1-0.1,0.2-0.1,0.4h7.9c0.3,0,0.5,0.2,0.5,0.5c0,0.3-0.2,0.5-0.5,0.5h-4.1v2.2h3.4c0.3,0,0.4,0.2,0.4,0.5s-0.1,0.5-0.4,0.5
			h-3.4v3h4.6c0.3,0,0.5,0.2,0.5,0.5s-0.2,0.5-0.5,0.5h-4.6v2.4c0,0.3-0.2,0.5-0.5,0.5s-0.5-0.2-0.5-0.5v-2.4h-5.4
			c-0.3,0-0.5-0.2-0.5-0.5s0.1-0.5,0.5-0.5h1.2v-3.1c0-0.5,0.3-0.8,0.8-0.8h3.3v-2.2h-3.2c-0.1,0.2-0.3,0.4-0.4,0.6
			c-0.4,0.5-0.8,1-1.2,1.4c-0.2,0.1-0.3,0.2-0.4,0.2c-0.3,0-0.5-0.1-0.5-0.5c0-0.1,0-0.2,0.1-0.3c0.4-0.4,0.8-0.9,1.2-1.4
			s0.7-1.1,0.9-1.8c0-0.2,0.2-0.3,0.4-0.3C-397.5-371.9-397.4-371.9-397.3-371.8z M-397.3-366.8c-0.2,0-0.4,0.1-0.4,0.4v2.6h3.1v-3
			C-394.6-366.8-397.3-366.8-397.3-366.8z M-410.1-357c0.4,0,0.7,0.2,0.7,0.6c0,0.1,0,0.3-0.1,0.5l-0.8,2.4c0,0.1-0.1,0.2-0.1,0.4
			s0,0.3,0.1,0.5c0.3,0.6,0.6,1.1,0.7,1.5c0.1,0.4,0.1,0.8,0.1,1.2c0,0.5-0.1,1-0.4,1.3c-0.3,0.4-0.8,0.7-1.4,0.7
			c-0.3,0-0.6-0.1-1-0.2v2.5c0,0.3-0.2,0.5-0.5,0.5c-0.3,0-0.5-0.2-0.5-0.5v-10.5c0-0.5,0.2-0.7,0.8-0.7h2.4
			C-410.1-356.8-410.1-357-410.1-357z M-411.3-349c0.3,0,0.6-0.1,0.7-0.4c0.2-0.2,0.3-0.5,0.3-0.8s0-0.5-0.1-0.9s-0.4-0.9-0.8-1.7
			c-0.1-0.1-0.1-0.3-0.1-0.4v-0.5l0.8-2.5c0-0.1-0.1-0.1-0.2-0.1h-1.3c-0.2,0-0.3,0.1-0.3,0.3v6.6C-411.7-349.1-411.4-349-411.3-349
			z M-407.9-347c0.7-0.2,1.3-0.5,1.8-0.7c0.1,0,0.2-0.1,0.3-0.1c0.2,0,0.4,0.1,0.4,0.4c0,0.2-0.1,0.4-0.3,0.5
			c-0.5,0.3-1.1,0.6-1.9,0.8c-0.6,0.2-1.3,0.4-2.1,0.6c-0.3,0-0.5-0.2-0.5-0.5c0-0.3,0.1-0.5,0.4-0.5c0.4-0.1,0.7-0.1,1-0.2v-9.4
			c0-0.5,0.3-0.8,0.8-0.8h4.8c0.5,0,0.7,0.2,0.7,0.7v4.2c0,0.5-0.2,0.7-0.7,0.7h-2.5c0.3,0.7,0.5,1.3,0.9,1.8
			c0.1,0.1,0.1,0.2,0.2,0.3c0.7-0.5,1.3-1,1.8-1.5c0.1-0.1,0.2-0.2,0.4-0.2c0.3,0,0.5,0.2,0.5,0.5c0,0.2-0.1,0.3-0.2,0.4
			c-0.5,0.5-1.2,1-1.9,1.5c0.2,0.2,0.3,0.4,0.5,0.6c0.5,0.5,1.2,1,2,1.5c0.2,0.1,0.3,0.3,0.3,0.4c0,0.4-0.2,0.6-0.6,0.6
			c-0.2,0-0.4-0.1-0.6-0.2c-0.9-0.6-1.7-1.3-2.3-2c-0.5-0.5-0.8-1-1.1-1.6c-0.3-0.6-0.5-1.3-0.7-2h-1.3v4.2
			C-407.8-347-407.9-347-407.9-347z M-407.7-356.1c-0.1,0-0.2,0.1-0.2,0.2v1.3h4.5v-1.3c0-0.1-0.1-0.2-0.2-0.2H-407.7z
			 M-407.9-352.2h4.3c0.1,0,0.2-0.1,0.2-0.2v-1.3h-4.5C-407.9-353.7-407.9-352.2-407.9-352.2z M-399.2-345.8
			c-0.1,0.1-0.2,0.2-0.4,0.2c-0.4,0-0.6-0.2-0.6-0.6c0-0.1,0-0.2,0.1-0.3c0.8-0.7,1.4-1.6,1.7-2.5c0.2-0.7,0.3-1.5,0.3-2.4
			c0-0.3,0.1-0.4,0.5-0.4c0.4,0,0.5,0.2,0.5,0.5c0,0.9-0.1,1.8-0.3,2.7c0,0.1-0.1,0.2-0.1,0.3c0.3,0.3,0.6,0.6,0.9,0.7
			c0.5,0.3,1.1,0.5,1.8,0.7v-5.9h-3c-0.3,0-0.5-0.1-0.5-0.5c0-0.3,0.1-0.5,0.5-0.5h6.8c0.3,0,0.5,0.2,0.5,0.5c0,0.3-0.2,0.5-0.5,0.5
			h-2.9v2.3h3.7c0.3,0,0.5,0.2,0.5,0.5s-0.2,0.5-0.5,0.5h-3.7v2.8c1,0.1,2.7,0.2,5.1,0.2c0.3,0,0.4,0.2,0.4,0.5s-0.2,0.4-0.5,0.5
			c-3.3,0-5.4-0.2-6.3-0.4c-0.8-0.2-1.4-0.4-1.9-0.7c-0.3-0.2-0.6-0.4-0.8-0.7C-398.3-346.9-398.7-346.3-399.2-345.8z M-393.9-356.9
			v0.7h4.2c0.4,0,0.6,0.1,0.8,0.4c0.2,0.2,0.2,0.5,0.2,0.9c0,0.4,0,0.8-0.1,1.3c-0.1,0.3-0.3,0.4-0.6,0.4s-0.5-0.2-0.5-0.5
			c0.1-0.6,0.1-1,0.1-1.2c0-0.3-0.1-0.5-0.4-0.5h-8.5c-0.3,0-0.4,0.1-0.4,0.4v1c0,0.3-0.2,0.5-0.5,0.5c-0.3,0-0.5-0.1-0.5-0.5v-1.4
			c0-0.6,0.3-0.9,0.9-0.9h4.1v-0.7c0-0.3,0.2-0.5,0.5-0.5C-394.1-357.5-393.9-357.3-393.9-356.9z"/>
	</g>
</g>
<text transform="matrix(1 0 0 1 -619.4792 -207.8)" class="st1" style="font-family:'DFYuanStd-W3-B5pc-H'; font-size:18px;">台北市春遊方案預計從108年4月1日至6月30</text>
<text transform="matrix(1 0 0 1 -269.7053 -207.8)" class="st1" style="font-family:'DFYuanStd-W3-B5pc-H'; font-size:18px;"> </text>
<text transform="matrix(1 0 0 1 -619.4792 -180.8)" class="st1" style="font-family:'DFYuanStd-W3-B5pc-H'; font-size:18px;">日，凡週日至週四入住台北市合法旅館及民</text>
<text transform="matrix(1 0 0 1 -277.4792 -180.8)" class="st1" style="font-family:'DFYuanStd-W3-B5pc-H'; font-size:18px;"> </text>
<text transform="matrix(1 0 0 1 -619.4792 -153.8)" class="st1" style="font-family:'DFYuanStd-W3-B5pc-H'; font-size:18px;">宿，補助金額為每人每房500元，且入住旅客</text>
<text transform="matrix(1 0 0 1 -265.5639 -153.8)" class="st1" style="font-family:'DFYuanStd-W3-B5pc-H'; font-size:18px;"> </text>
<text transform="matrix(1 0 0 1 -619.4792 -126.8)" class="st1" style="font-family:'DFYuanStd-W3-B5pc-H'; font-size:18px;">可以用7折優惠價格購買雙層觀光巴士票券！而</text>
<text transform="matrix(1 0 0 1 -249.5074 -126.8)" class="st1" style="font-family:'DFYuanStd-W3-B5pc-H'; font-size:18px;"> </text>
<text transform="matrix(1 0 0 1 -619.4792 -99.8)" class="st1" style="font-family:'DFYuanStd-W3-B5pc-H'; font-size:18px;">18至40歲青年入住經典小鎮民宿，可再多1次</text>
<text transform="matrix(1 0 0 1 -263.6205 -99.8)" class="st1" style="font-family:'DFYuanStd-W3-B5pc-H'; font-size:18px;"> </text>
<text transform="matrix(1 0 0 1 -619.4792 -72.8)" class="st1" style="font-family:'DFYuanStd-W3-B5pc-H'; font-size:18px;">500元住宿優惠！</text>
<g>
	<path class="st2" d="M-99.9-278.8h-3.7v-21.6l0.9,0.5c0.2,0.1,0.4,0.2,0.6,0.2c0.4,0,0.8-0.2,1-0.6l1.8-3c0.2-0.3,0.2-0.6,0.1-0.9
		s-0.3-0.5-0.5-0.7l-21.3-12.5c-0.4-0.2-0.8-0.2-1.1,0l-21.3,12.5c-0.3,0.2-0.4,0.4-0.5,0.7c-0.1,0.3,0,0.6,0.1,0.9l1.8,3
		c0.3,0.5,1,0.7,1.6,0.4l0.9-0.5v21.6h-3.7c-0.6,0-1.1,0.5-1.1,1.1v3.8c0,0.6,0.5,1.1,1.1,1.1h43.4c0.6,0,1.1-0.5,1.1-1.1v-3.8
		C-98.8-278.3-99.3-278.8-99.9-278.8L-99.9-278.8z M-101.1-274.9h-20.6v-1.6h20.6V-274.9z M-142.2-276.5h9v1.6h-9V-276.5z
		 M-101.9-303.4l-0.6,1.1l-18.5-10.8c-0.1,0-0.1-0.1-0.2-0.1h-0.2c-0.3,0-0.5,0-0.8,0.1l-18.5,10.9l-0.6-1.1l19.7-11.6L-101.9-303.4
		z M-137.4-301.7l15.8-9.3l14.8,8.7l1,0.6v22.9h-15.8v-12.5c0-0.6-0.5-1.1-1.1-1.1h-9.3c-0.6,0-1.1,0.5-1.1,1.1v12.5h-4.2v-22.9
		C-137.3-301.7-137.4-301.7-137.4-301.7z M-131-274.9v-15.2h7v6.9h-1.8c-0.6,0-1.1,0.5-1.1,1.1s0.5,1.1,1.1,1.1h1.8v6.1H-131z"/>
	<path class="st2" d="M-61.3-282.8l2-0.7c0.5-0.2,0.3-0.8-0.2-0.8h-61.6c-0.3,0-0.5,0.2-0.5,0.4v23.5c0,0.2,0.2,0.4,0.5,0.4h61.8
		c0.6,0,0.7-0.6,0.2-0.8l-2.2-0.9c-0.4-0.2-0.4-0.6,0-0.8l3.2-1.2c0.4-0.1,0.4-0.6,0-0.8l-3.2-1.3c-0.4-0.2-0.4-0.6,0-0.8l3.2-1.2
		c0.4-0.1,0.4-0.6,0-0.8l-3.2-1.3c-0.4-0.2-0.4-0.6,0-0.8l3.2-1.2c0.4-0.1,0.4-0.6,0-0.8l-3.2-1.3c-0.4-0.2-0.4-0.6,0-0.8l3.2-1.2
		c0.4-0.1,0.4-0.6,0-0.8l-3.2-1.3c-0.4-0.2-0.4-0.6,0-0.8l3.2-1.2c0.4-0.1,0.4-0.6,0-0.8l-3.2-1.3
		C-61.7-282.1-61.7-282.6-61.3-282.8L-61.3-282.8z"/>
	<g>
		<path class="st0" d="M-116.4-271.6h5.2v2h-5.2V-271.6z M-102.1-275.8c-0.8-0.7-1.5-1.1-2.4-1.1c-1.1,0-1.7,0.5-1.7,1.6
			c0,2.4,5.8,2,5.8,6.2c0,2.1-1.2,3.6-3.3,4v2.2h-1.9v-2.1c-1.3-0.2-2.8-0.7-3.8-1.7l1.2-1.9c1,0.8,2,1.3,3.1,1.3
			c1.3,0,1.9-0.6,1.9-1.7c0-2.6-5.8-2.3-5.8-6.3c0-2.1,1.2-3.5,3.2-3.9v-2.2h1.9v2.2c1.4,0.2,2.3,0.9,3.1,1.7L-102.1-275.8
			L-102.1-275.8z M-98.7-266.8l1.3-1.8c0.8,0.8,1.8,1.4,3.1,1.4c1.5,0,2.5-0.9,2.5-2.6c0-1.6-0.9-2.5-2.4-2.5
			c-0.8,0-1.3,0.2-2.1,0.7l-1.3-0.8l0.4-6.8h7.5v2.3h-5.1l-0.3,3c0.6-0.3,1-0.4,1.7-0.4c2.4,0,4.3,1.4,4.3,4.5s-2.3,4.9-4.9,4.9
			C-96.2-264.9-97.6-265.8-98.7-266.8L-98.7-266.8z M-87.2-272.3c0-4.9,1.9-7.2,4.8-7.2c2.8,0,4.7,2.4,4.7,7.2
			c0,4.8-1.9,7.3-4.7,7.3C-85.3-264.9-87.2-267.4-87.2-272.3z M-80.3-272.3c0-3.9-0.9-5.1-2.1-5.1s-2.1,1.1-2.1,5.1
			c0,3.9,0.9,5.2,2.1,5.2S-80.3-268.3-80.3-272.3z M-76-272.3c0-4.9,1.9-7.2,4.8-7.2c2.8,0,4.7,2.4,4.7,7.2c0,4.8-1.9,7.3-4.7,7.3
			C-74.1-264.9-76-267.4-76-272.3z M-69.1-272.3c0-3.9-0.9-5.1-2.1-5.1c-1.2,0-2.1,1.1-2.1,5.1c0,3.9,0.9,5.2,2.1,5.2
			C-70-267.1-69.1-268.3-69.1-272.3z"/>
	</g>
	<path class="st2" d="M-86.2-318.2c-3.9,0.9-7.7-1.5-8.6-5.4c-0.3-1.4-0.2-2.8,0.3-4.1c-3.1,1.2-4.9,4.5-4.1,7.9
		c0.8,3.7,4.5,6,8.2,5.1c2.1-0.5,3.7-1.9,4.6-3.7C-85.9-318.3-86.1-318.3-86.2-318.2z"/>
	<g>
		<path class="st0" d="M-80.8-302.2c-2.1,0-3.7-1.9-3.1-3.9c0.2-0.8,0.8-1.5,2-2.1c2.5-1.3,4.4-0.7,5.6,0.4c0.5,0.4,1.1,0.3,1.5-0.2
			c0.2-0.3,0.6-0.6,1.2-0.6c0.7,0,1.2,0.2,1.6,0.5c0.5,0.4,1.3,0.2,1.6-0.4c0.8-1.9,2.9-4.5,8-3c3.3,1,4.4,3.6,4.6,5.7
			c0.2,1.6-1.1,3.1-2.7,3.1L-80.8-302.2L-80.8-302.2z"/>
		<path class="st2" d="M-80.9-301.2c-1.3,0-2.6-0.6-3.3-1.7c-0.8-1-1-2.3-0.6-3.5c0.4-1.1,1.2-2.1,2.5-2.7c2.5-1.3,5-1.1,6.7,0.5
			c0.4-0.5,1-1,2-1.1c0.8,0,1.5,0.2,2.2,0.6c0.8-1.7,3.2-5.3,9.3-3.5c3.9,1.2,5,4.2,5.3,6.6c0.1,1.1-0.2,2.1-0.9,3
			c-0.7,0.8-1.7,1.3-2.8,1.3L-80.9-301.2C-80.8-301.2-80.9-301.2-80.9-301.2L-80.9-301.2z M-79.2-308c-0.6,0-1.4,0.2-2.3,0.6
			c-0.8,0.4-1.3,0.9-1.5,1.5c-0.3,0.8,0.1,1.4,0.3,1.7c0.4,0.6,1.1,0.9,1.8,0.9l20.3-0.5c0.5,0,1-0.2,1.3-0.6s0.5-0.9,0.4-1.4
			c-0.3-2.6-1.6-4.2-3.9-4.9c-3.4-1-5.7-0.2-6.8,2.4c-0.2,0.6-0.7,1-1.3,1.1c-0.6,0.2-1.2,0.1-1.8-0.3c-0.3-0.2-0.6-0.3-1-0.3
			c-0.3,0-0.4,0.1-0.4,0.2c-0.4,0.5-0.9,0.8-1.5,0.9s-1.1-0.1-1.5-0.5S-78.2-308-79.2-308L-79.2-308z"/>
	</g>
</g>
<g>
	<g>
		<path class="st2" d="M-102.1-182.4c-1.9,0-3.4-1.5-3.4-3.4s1.5-3.4,3.4-3.4s3.4,1.5,3.4,3.4S-100.2-182.4-102.1-182.4z
			 M-102.1-187.4c-0.9,0-1.6,0.7-1.6,1.6s0.7,1.6,1.6,1.6c0.9,0,1.6-0.7,1.6-1.6S-101.2-187.4-102.1-187.4z"/>
		<path class="st3" d="M-54.6-185.8c0,1.4-1.1,2.5-2.5,2.5s-2.5-1.1-2.5-2.5s1.1-2.5,2.5-2.5S-54.6-187.2-54.6-185.8"/>
		<path class="st2" d="M-57.1-182.4c-1.9,0-3.4-1.5-3.4-3.4s1.5-3.4,3.4-3.4s3.4,1.5,3.4,3.4S-55.2-182.4-57.1-182.4z M-57.1-187.4
			c-0.9,0-1.6,0.7-1.6,1.6s0.7,1.6,1.6,1.6c0.9,0,1.6-0.7,1.6-1.6S-56.2-187.4-57.1-187.4z M-95.9-184.9c-0.5,0-0.9-0.4-0.9-0.9
			c0-3-2.4-5.4-5.4-5.4s-5.4,2.4-5.4,5.4c0,0.5-0.4,0.9-0.9,0.9s-0.9-0.4-0.9-0.9c0-3.9,3.2-7.1,7.1-7.1c3.9,0,7.1,3.2,7.1,7.1
			C-95-185.3-95.4-184.9-95.9-184.9L-95.9-184.9z"/>
		<path class="st2" d="M-50.8-184.9c-0.5,0-0.9-0.4-0.9-0.9c0-3-2.4-5.4-5.4-5.4s-5.4,2.4-5.4,5.4c0,0.5-0.4,0.9-0.9,0.9
			s-0.9-0.4-0.9-0.9c0-3.9,3.2-7.1,7.1-7.1c3.9,0,7.1,3.2,7.1,7.1C-49.9-185.3-50.3-184.9-50.8-184.9L-50.8-184.9z"/>
		<path class="st2" d="M-63.3-184.9h-32.6c-0.5,0-0.9-0.4-0.9-0.9s0.4-0.9,0.9-0.9h32.5c0.5,0,0.9,0.4,0.9,0.9
			S-62.8-184.9-63.3-184.9L-63.3-184.9z M-39.6-184.9h-11.3c-0.5,0-0.9-0.4-0.9-0.9s0.4-0.9,0.9-0.9h11.3c0.5,0,0.9,0.4,0.9,0.9
			S-39.1-184.9-39.6-184.9z"/>
		<path class="st2" d="M-42.1-184.9c-0.5,0-0.9-0.4-0.9-0.9v-18.8c0-0.5,0.4-0.9,0.9-0.9s0.9,0.4,0.9,0.9v18.8
			C-41.2-185.3-41.6-184.9-42.1-184.9z M-48.3-184.9c-0.5,0-0.9-0.4-0.9-0.9v-18.8c0-0.5,0.4-0.9,0.9-0.9s0.9,0.4,0.9,0.9v18.8
			C-47.4-185.3-47.8-184.9-48.3-184.9z"/>
		<path class="st2" d="M-39.6-203.6h-71.3c-0.5,0-0.9-0.4-0.9-0.9s0.4-0.9,0.9-0.9h71.3c0.5,0,0.9,0.4,0.9,0.9
			S-39.1-203.6-39.6-203.6z"/>
		<path class="st2" d="M-42.1-203.6c-0.5,0-0.9-0.4-0.9-0.9v-11.3c0-0.5,0.4-0.9,0.9-0.9s0.9,0.4,0.9,0.9v11.3
			C-41.2-204.1-41.6-203.6-42.1-203.6z M-48.3-221.2h-53.8c-0.5,0-0.9-0.4-0.9-0.9s0.4-0.9,0.9-0.9h53.8c0.5,0,0.9,0.4,0.9,0.9
			S-47.8-221.2-48.3-221.2z M-110.9-203.6h-0.3c-0.5-0.1-0.7-0.6-0.6-1.1l3.8-12.5c0.1-0.5,0.6-0.7,1.1-0.6s0.7,0.6,0.6,1.1
			l-3.8,12.5C-110.1-203.9-110.5-203.6-110.9-203.6z M-108.4-196.1h-0.1c-0.5-0.1-0.8-0.5-0.7-1l1.2-7.5c0.1-0.5,0.5-0.8,1-0.7
			c0.5,0.1,0.8,0.5,0.7,1l-1.2,7.5C-107.5-196.5-107.9-196.1-108.4-196.1z"/>
		<path class="st2" d="M-112.1-193.6c-0.3,0-0.6-0.1-0.7-0.4c-0.3-0.4-0.2-1,0.2-1.2l3.8-2.5c0.4-0.3,1-0.2,1.2,0.2
			c0.3,0.4,0.2,1-0.2,1.2l-3.8,2.5C-111.8-193.7-111.9-193.6-112.1-193.6L-112.1-193.6z"/>
		<path class="st2" d="M-112.1-184.9c-0.5,0-0.9-0.4-0.9-0.9v-8.8c0-0.5,0.4-0.9,0.9-0.9s0.9,0.4,0.9,0.9v8.8
			C-111.2-185.3-111.6-184.9-112.1-184.9z"/>
		<path class="st2" d="M-108.4-184.9h-3.8c-0.5,0-0.9-0.4-0.9-0.9s0.4-0.9,0.9-0.9h3.8c0.5,0,0.9,0.4,0.9,0.9
			S-107.9-184.9-108.4-184.9z M-97.1-196.1c-0.5,0-0.9-0.4-0.9-0.9v-7.5c0-0.5,0.4-0.9,0.9-0.9s0.9,0.4,0.9,0.9v7.5
			C-96.2-196.5-96.6-196.1-97.1-196.1z"/>
		<path class="st2" d="M-57.1-196.1h-51.3c-0.5,0-0.9-0.4-0.9-0.9s0.4-0.9,0.9-0.9h51.3c0.5,0,0.9,0.4,0.9,0.9
			S-56.6-196.1-57.1-196.1z"/>
		<path class="st2" d="M-57.1-196.1c-0.5,0-0.9-0.4-0.9-0.9v-7.5c0-0.5,0.4-0.9,0.9-0.9s0.9,0.4,0.9,0.9v7.5
			C-56.2-196.5-56.6-196.1-57.1-196.1z M-67.1-196.1c-0.5,0-0.9-0.4-0.9-0.9v-7.5c0-0.5,0.4-0.9,0.9-0.9s0.9,0.4,0.9,0.9v7.5
			C-66.2-196.5-66.6-196.1-67.1-196.1z M-87.1-196.1c-0.5,0-0.9-0.4-0.9-0.9v-7.5c0-0.5,0.4-0.9,0.9-0.9s0.9,0.4,0.9,0.9v7.5
			C-86.2-196.5-86.6-196.1-87.1-196.1z M-77.1-196.1c-0.5,0-0.9-0.4-0.9-0.9v-7.5c0-0.5,0.4-0.9,0.9-0.9s0.9,0.4,0.9,0.9v7.5
			C-76.2-196.5-76.6-196.1-77.1-196.1z M-97.1-208.7c-0.5,0-0.9-0.4-0.9-0.9v-7.5c0-0.5,0.4-0.9,0.9-0.9s0.9,0.4,0.9,0.9v7.5
			C-96.2-209.1-96.6-208.7-97.1-208.7z"/>
		<path class="st2" d="M-47.1-208.7h-61.3c-0.5,0-0.9-0.4-0.9-0.9s0.4-0.9,0.9-0.9h61.3c0.5,0,0.9,0.4,0.9,0.9
			S-46.6-208.7-47.1-208.7z"/>
		<path class="st2" d="M-57.1-208.7c-0.5,0-0.9-0.4-0.9-0.9v-7.5c0-0.5,0.4-0.9,0.9-0.9s0.9,0.4,0.9,0.9v7.5
			C-56.2-209.1-56.6-208.7-57.1-208.7z M-67.1-208.7c-0.5,0-0.9-0.4-0.9-0.9v-7.5c0-0.5,0.4-0.9,0.9-0.9s0.9,0.4,0.9,0.9v7.5
			C-66.2-209.1-66.6-208.7-67.1-208.7z M-87.1-208.7c-0.5,0-0.9-0.4-0.9-0.9v-7.5c0-0.5,0.4-0.9,0.9-0.9s0.9,0.4,0.9,0.9v7.5
			C-86.2-209.1-86.6-208.7-87.1-208.7z M-77.1-208.7c-0.5,0-0.9-0.4-0.9-0.9v-7.5c0-0.5,0.4-0.9,0.9-0.9s0.9,0.4,0.9,0.9v7.5
			C-76.2-209.1-76.6-208.7-77.1-208.7z M-47.1-208.7c-0.5,0-0.9-0.4-0.9-0.9v-5c0-0.5,0.4-0.9,0.9-0.9s0.9,0.4,0.9,0.9v5
			C-46.2-209.1-46.6-208.7-47.1-208.7z"/>
		<path class="st2" d="M-49.6-216.2h-57.5c-0.5,0-0.9-0.4-0.9-0.9s0.4-0.9,0.9-0.9h57.5c0.5,0,0.9,0.4,0.9,0.9
			S-49.1-216.2-49.6-216.2z"/>
		<path class="st2" d="M-47.1-213.7c-0.5,0-0.9-0.4-0.9-0.9c0-0.9-0.7-1.6-1.6-1.6c-0.5,0-0.9-0.4-0.9-0.9s0.4-0.9,0.9-0.9
			c1.9,0,3.4,1.5,3.4,3.4C-46.2-214.1-46.6-213.7-47.1-213.7z M-42.1-214.9c-0.5,0-0.9-0.4-0.9-0.9c0-3-2.4-5.4-5.4-5.4
			c-0.5,0-0.9-0.4-0.9-0.9s0.4-0.9,0.9-0.9c3.9,0,7.1,3.2,7.1,7.1C-41.2-215.3-41.6-214.9-42.1-214.9L-42.1-214.9z M-107.1-216.2
			h-0.2c-0.4-0.1-0.7-0.5-0.7-0.9c0-0.1,0-0.1,0.1-0.2c1.1-3.8,3-5.7,5.9-5.7c0.5,0,0.9,0.4,0.9,0.9s-0.4,0.9-0.9,0.9
			c-2,0-3.3,1.4-4.1,4.3C-106.4-216.4-106.7-216.2-107.1-216.2L-107.1-216.2z M-109.6-192.4h-2.5c-0.5,0-0.9-0.4-0.9-0.9
			s0.4-0.9,0.9-0.9h2.5c0.5,0,0.9,0.4,0.9,0.9S-109.1-192.4-109.6-192.4z"/>
	</g>
	<g>
		<path class="st2" d="M-28.6-192.3l2-0.7c0.5-0.2,0.3-0.8-0.2-0.8h-61.6c-0.3,0-0.5,0.2-0.5,0.4v23.5c0,0.2,0.2,0.4,0.5,0.4h61.8
			c0.6,0,0.7-0.6,0.2-0.8l-2.2-0.9c-0.4-0.2-0.4-0.6,0-0.8l3.2-1.2c0.4-0.1,0.4-0.6,0-0.8l-3.2-1.3c-0.4-0.2-0.4-0.6,0-0.8l3.2-1.2
			c0.4-0.1,0.4-0.6,0-0.8l-3.2-1.3c-0.4-0.2-0.4-0.6,0-0.8l3.2-1.2c0.4-0.1,0.4-0.6,0-0.8l-3.2-1.3c-0.4-0.2-0.4-0.6,0-0.8l3.2-1.2
			c0.4-0.1,0.4-0.6,0-0.8l-3.2-1.3c-0.4-0.2-0.4-0.6,0-0.8l3.2-1.2c0.4-0.1,0.4-0.6,0-0.8l-3.2-1.3C-29.1-191.7-29-192.1-28.6-192.3
			L-28.6-192.3z"/>
		<g>
			<path class="st0" d="M-83.7-176.4l1.3-1.8c0.8,0.8,1.9,1.4,3.1,1.4c1.4,0,2.4-0.7,2.4-2c0-1.4-0.8-2.2-3.9-2.2v-2
				c2.6,0,3.4-0.9,3.4-2.1c0-1.1-0.7-1.7-1.9-1.8c-1,0-1.8,0.5-2.7,1.3l-1.4-1.7c1.2-1.1,2.6-1.7,4.2-1.7c2.7,0,4.6,1.3,4.6,3.7
				c0,1.5-0.9,2.6-2.4,3.2v0.1c1.6,0.4,2.8,1.6,2.8,3.5c0,2.6-2.3,4.1-4.9,4.1C-81.3-174.5-82.8-175.3-83.7-176.4L-83.7-176.4z
				 M-72.2-181.8c0-4.9,1.9-7.2,4.8-7.2c2.8,0,4.7,2.4,4.7,7.2c0,4.8-1.9,7.3-4.7,7.3C-70.3-174.5-72.2-177-72.2-181.8z
				 M-65.4-181.8c0-3.9-0.9-5.1-2.1-5.1c-1.2,0-2.1,1.1-2.1,5.1c0,3.9,0.9,5.2,2.1,5.2C-66.3-176.6-65.4-177.8-65.4-181.8z
				 M-59.6-180.2c0-1.5,0.8-2.4,1.9-2.4c1.1,0,1.9,0.9,1.9,2.4c0,1.6-0.8,2.5-1.9,2.5C-58.8-177.7-59.6-178.6-59.6-180.2z
				 M-56.9-180.2c0-1.1-0.4-1.6-0.8-1.6s-0.8,0.4-0.8,1.6c0,1.1,0.3,1.6,0.8,1.6S-56.9-179-56.9-180.2z M-53.3-182.6h0.9l-4.2,8
				h-0.9L-53.3-182.6z M-54-177c0-1.6,0.8-2.4,1.9-2.4c1.1,0,1.9,0.9,1.9,2.4s-0.8,2.5-1.9,2.5C-53.2-174.5-54-175.5-54-177z
				 M-51.3-177c0-1.1-0.4-1.6-0.8-1.6s-0.8,0.4-0.8,1.6c0,1.1,0.4,1.6,0.8,1.6C-51.7-175.5-51.3-175.9-51.3-177z M-47.1-177.6
				c0-2,1.4-3.1,2.8-3.1s2.8,1.1,2.8,3.1c0,1.9-1.4,3.1-2.8,3.1S-47.1-175.7-47.1-177.6z M-43-177.6c0-1.1-0.5-1.8-1.2-1.8
				s-1.2,0.7-1.2,1.8s0.5,1.8,1.2,1.8S-43-176.5-43-177.6z M-33.4-181.9c-0.2-0.1-0.4-0.1-0.6-0.1c-0.5,0-0.7,0.3-0.7,0.9v0.5h1.1
				v1.2h-1.1v4.6h-1.5v-4.6h-2.1v4.6h-1.6v-4.6h-0.8v-1.1l0.8-0.1v-0.4c0-1.2,0.6-2.1,2.1-2.1c0.5,0,0.9,0.1,1.2,0.2l-0.3,1.1
				c-0.2-0.1-0.4-0.1-0.7-0.1c-0.5,0-0.8,0.3-0.8,0.9v0.4h2.1v-0.5c0-1.2,0.6-2.2,2-2.2c0.5,0,0.9,0.1,1.1,0.2L-33.4-181.9
				L-33.4-181.9z"/>
		</g>
	</g>
</g>
<g>
	<path class="st2" d="M-57.4-98.2h-3.2v-19.1l0.8,0.4c0.2,0.1,0.3,0.1,0.5,0.1c0.3,0,0.7-0.2,0.9-0.5l1.6-2.7
		c0.1-0.2,0.2-0.5,0.1-0.8s-0.2-0.5-0.5-0.6l-18.8-11c-0.3-0.2-0.7-0.2-1,0l-18.8,11c-0.2,0.1-0.4,0.4-0.5,0.6
		c-0.1,0.3,0,0.5,0.1,0.8l1.6,2.7c0.3,0.5,0.9,0.6,1.4,0.4l0.8-0.4v19.1h-3.2c-0.6,0-1,0.4-1,1v3.4c0,0.6,0.4,1,1,1h38.4
		c0.6,0,1-0.4,1-1v-3.4C-56.3-97.8-56.8-98.2-57.4-98.2L-57.4-98.2z M-58.4-94.8h-18.2v-1.4h18.2V-94.8z M-94.8-96.2h8v1.4h-8V-96.2
		z M-59.1-119.9l-0.5,0.9l-16.4-9.6c-0.1,0-0.1-0.1-0.2-0.1h-0.2c-0.2,0-0.5,0-0.7,0.1l-16.4,9.6l-0.5-0.9l17.4-10.2L-59.1-119.9
		L-59.1-119.9z M-90.5-118.4l14-8.2l13.1,7.7l0.9,0.5v20.3h-14v-11.1c0-0.6-0.4-1-1-1h-8.2c-0.6,0-1,0.4-1,1v11.1h-3.7L-90.5-118.4
		L-90.5-118.4L-90.5-118.4z M-84.8-94.7v-13.4h6.2v6.1h-1.6c-0.6,0-1,0.4-1,1s0.4,1,1,1h1.6v5.4h-6.2V-94.7z"/>
	<path class="st0" d="M-68.1-82h-12.5v-15.3c0-3.4,2.8-6.2,6.2-6.2h0.1c3.4,0,6.2,2.8,6.2,6.2L-68.1-82L-68.1-82z"/>
	<path class="st2" d="M-67.1-81h-14.5v-16.3c0-4,3.2-7.2,7.2-7.2h0.1c4,0,7.2,3.2,7.2,7.2L-67.1-81L-67.1-81z M-79.6-83h10.5v-14.3
		c0-2.9-2.3-5.2-5.2-5.2h-0.1c-2.9,0-5.2,2.3-5.2,5.2L-79.6-83L-79.6-83z"/>
	<g transform="translate(335 325)">
		<g transform="translate(6 2)">
			<circle class="st0" cx="-416.7" cy="-435" r="5.9"/>
			<path class="st2" d="M-416.8-428.1c-1.3,0-2.7-0.4-3.8-1.1c-1.5-1-2.6-2.6-3-4.4c-0.4-1.8,0-3.7,1-5.2s2.6-2.6,4.4-3
				c3.8-0.8,7.4,1.6,8.2,5.4c0.4,1.8,0,3.7-1,5.2s-2.6,2.6-4.4,3C-415.8-428.1-416.3-428.1-416.8-428.1z M-416.7-440
				c-0.3,0-0.7,0-1,0.1c-1.3,0.3-2.4,1-3.1,2.1s-1,2.4-0.7,3.7c0.3,1.3,1,2.4,2.1,3.1c1.1,0.7,2.4,1,3.7,0.7c1.3-0.3,2.4-1,3.1-2.1
				c0.7-1.1,1-2.4,0.7-3.7C-412.4-438.4-414.5-440-416.7-440z"/>
		</g>
		<path class="st2" d="M-397.2-428.5c0,0-5.2,1.9-7.5-1.9C-406.9-434.4-398.8-433-397.2-428.5z M-356.2-434c0,0-5.2,1.9-7.5-1.9
			C-365.9-439.9-357.8-438.5-356.2-434z M-423.7-426.2c0,0,5.1,2.1,7.6-1.6C-413.8-431.5-421.9-430.6-423.7-426.2z M-380.6-440.1
			c0,0,3.8,4.1,7.5,1.7C-369.3-440.9-377.1-443.5-380.6-440.1z"/>
		<circle class="st2" cx="-413.3" cy="-432.9" r="1"/>
		<circle class="st2" cx="-407.7" cy="-433.9" r="1"/>
		<path class="st2" d="M-407.8-432.2c0.2,1.2-0.5,2.3-1.7,2.6c-1.2,0.2-2.3-0.5-2.6-1.7L-407.8-432.2z M-416.4-435l4.4-0.9l1.3-1.1
			l1.5,0.6l2.4-0.6l-1-1.7l-4.3-0.7C-412.1-439.4-416.2-437.8-416.4-435z"/>
	</g>
	<g>
		<path class="st0" d="M-47.7-83.2h-12.5v-15.3c0-3.4,2.8-6.2,6.2-6.2h0.1c3.4,0,6.2,2.8,6.2,6.2L-47.7-83.2L-47.7-83.2z"/>
		<path class="st2" d="M-46.7-82h-14.5v-16.3c0-4,3.2-7.2,7.2-7.2h0.1c4,0,7.2,3.2,7.2,7.2L-46.7-82L-46.7-82z M-59.2-84.2h10.5
			v-14.3c0-2.9-2.3-5.2-5.2-5.2H-54c-2.9,0-5.2,2.3-5.2,5.2L-59.2-84.2L-59.2-84.2z"/>
		<g transform="translate(364 326)">
			<circle class="st0" cx="-416.8" cy="-434.9" r="5.9"/>
			<path class="st2" d="M-416.8-427.9c-0.9,0-1.7-0.2-2.6-0.5c-1.7-0.7-3.1-2-3.8-3.7c-0.7-1.7-0.7-3.6-0.1-5.3
				c0.7-1.7,2-3.1,3.7-3.8c1.7-0.7,3.6-0.7,5.3-0.1c1.7,0.7,3.1,2,3.8,3.7c0.7,1.7,0.7,3.6,0.1,5.3
				C-411.4-429.5-414-427.9-416.8-427.9z M-416.8-439.8c-0.7,0-1.3,0.1-1.9,0.4c-1.2,0.5-2.1,1.5-2.6,2.7c-0.5,1.2-0.5,2.6,0,3.8
				c0.5,1.2,1.5,2.1,2.7,2.6c2.5,1,5.4-0.2,6.4-2.7c0.5-1.2,0.5-2.6,0-3.8c-0.5-1.2-1.5-2.1-2.7-2.6
				C-415.5-439.6-416.2-439.8-416.8-439.8z"/>
			<circle class="st2" cx="-419" cy="-436" r="1"/>
			<circle class="st2" cx="-413.7" cy="-433.9" r="1"/>
			<path class="st2" d="M-414.8-432.5c-0.5,1.1-1.7,1.7-2.9,1.2c-1.1-0.5-1.7-1.7-1.2-2.9L-414.8-432.5z M-411.3-435.8l-2.3-0.9
				l-0.7-2l-1.8,1l-1.5-0.6l-2.7-1.1l2.6-1.2l3.7,0.7C-414.1-440-411.3-438-411.3-435.8z"/>
		</g>
	</g>
	<g>
		<path class="st2" d="M-28.3-82.9h-14.5v-16.3c0-4,3.2-7.2,7.2-7.2h0.1c4,0,7.2,3.2,7.2,7.2L-28.3-82.9L-28.3-82.9z M-40.8-85h10.5
			v-14.3c0-2.9-2.3-5.2-5.2-5.2h-0.1c-2.9,0-5.2,2.3-5.2,5.2L-40.8-85L-40.8-85z"/>
		<g transform="translate(383 325)">
			<circle class="st0" cx="-417.1" cy="-435" r="5.9"/>
			<path class="st2" d="M-417.1-428c-0.5,0-0.9,0-1.4-0.1c-3.8-0.8-6.2-4.5-5.4-8.2c0.8-3.8,4.5-6.2,8.2-5.4
				c3.8,0.8,6.2,4.5,5.4,8.2c-0.4,1.8-1.4,3.4-3,4.4C-414.4-428.5-415.7-428-417.1-428z M-417.1-439.9c-2.3,0-4.3,1.6-4.8,3.9
				c-0.5,2.7,1.2,5.3,3.8,5.8c1.3,0.3,2.6,0,3.7-0.7c1.1-0.7,1.8-1.8,2.1-3.1c0.5-2.7-1.2-5.3-3.8-5.8
				C-416.4-440-416.8-440-417.1-439.9z"/>
			<circle class="st2" cx="-414.5" cy="-434.8" r="1"/>
			<circle class="st2" cx="-420.1" cy="-436" r="1"/>
			<path class="st2" d="M-420-434.2c-0.2,1.2,0.5,2.3,1.7,2.6c1.2,0.2,2.3-0.5,2.6-1.7C-415.7-433.4-420-434.2-420-434.2z
				 M-421.1-438.9l2.4,0.6l1.5-0.6l1.3,1.1l4.4,0.9l-1.4-2.9l-4.2-1.2C-417.1-440.9-420.4-440.8-421.1-438.9z"/>
		</g>
	</g>
	<g>
		<path class="st2" d="M-25.5-87l2-0.7c0.5-0.2,0.3-0.8-0.2-0.8h-61.6c-0.3,0-0.5,0.2-0.5,0.4v23.5c0,0.2,0.2,0.4,0.5,0.4h61.8
			c0.6,0,0.7-0.6,0.2-0.8l-2.2-0.9c-0.4-0.2-0.4-0.6,0-0.8l3.2-1.2c0.4-0.1,0.4-0.6,0-0.8l-3.2-1.3c-0.4-0.2-0.4-0.6,0-0.8l3.2-1.2
			c0.4-0.1,0.4-0.6,0-0.8l-3.2-1.3c-0.4-0.2-0.4-0.6,0-0.8l3.2-1.2c0.4-0.1,0.4-0.6,0-0.8l-3.2-1.3c-0.4-0.2-0.4-0.6,0-0.8l3.2-1.2
			c0.4-0.1,0.4-0.6,0-0.8l-3.2-1.3c-0.4-0.2-0.4-0.6,0-0.8l3.2-1.2c0.4-0.1,0.4-0.6,0-0.8l-3.2-1.3C-25.9-86.3-25.9-86.8-25.5-87
			L-25.5-87z"/>
		<g>
			<path class="st0" d="M-80.6-75.8h5.2v2h-5.2V-75.8z M-66.3-80c-0.8-0.7-1.5-1.1-2.4-1.1c-1.1,0-1.7,0.5-1.7,1.6
				c0,2.4,5.8,2,5.8,6.2c0,2.1-1.2,3.6-3.3,4v2.2h-1.9v-2.1c-1.3-0.2-2.8-0.7-3.8-1.7l1.2-1.9c1,0.8,2,1.3,3.1,1.3
				c1.3,0,1.9-0.6,1.9-1.7c0-2.6-5.8-2.3-5.8-6.3c0-2.1,1.2-3.5,3.2-3.9v-2.2h1.9v2.2c1.4,0.2,2.3,0.9,3.1,1.7L-66.3-80z M-62.9-71
				l1.3-1.8c0.8,0.8,1.8,1.4,3.1,1.4c1.5,0,2.5-0.9,2.5-2.6c0-1.6-0.9-2.5-2.4-2.5c-0.8,0-1.3,0.2-2.1,0.7l-1.3-0.8l0.4-6.8h7.5v2.3
				H-59l-0.3,3c0.6-0.3,1-0.4,1.7-0.4c2.4,0,4.3,1.4,4.3,4.5s-2.3,4.9-4.9,4.9C-60.4-69.1-61.8-70-62.9-71L-62.9-71z M-51.4-76.5
				c0-4.9,1.9-7.2,4.8-7.2c2.8,0,4.7,2.4,4.7,7.2c0,4.8-1.9,7.3-4.7,7.3C-49.5-69.2-51.4-71.7-51.4-76.5z M-44.5-76.5
				c0-3.9-0.9-5.1-2.1-5.1s-2.1,1.1-2.1,5.1c0,3.9,0.9,5.2,2.1,5.2S-44.5-72.5-44.5-76.5z M-40.2-76.5c0-4.9,1.9-7.2,4.8-7.2
				c2.8,0,4.7,2.4,4.7,7.2c0,4.8-1.9,7.3-4.7,7.3C-38.3-69.2-40.2-71.7-40.2-76.5z M-33.3-76.5c0-3.9-0.9-5.1-2.1-5.1
				s-2.1,1.1-2.1,5.1c0,3.9,0.9,5.2,2.1,5.2C-34.3-71.3-33.3-72.5-33.3-76.5z"/>
		</g>
	</g>
</g>
<g transform="translate(342 383)">
	<circle class="st1" cx="-319.5" cy="-360.5" r="21.9"/>
	<g>
		<path class="st0" d="M-327.3-372.4v0.6h2.2c0.3,0,0.4,0.1,0.4,0.4c0,0.3-0.1,0.4-0.4,0.4h-5.6c-0.3,0-0.4-0.1-0.4-0.4
			c0-0.3,0.1-0.4,0.4-0.4h2.4v-0.6c0-0.3,0.2-0.5,0.5-0.5C-327.4-372.9-327.3-372.7-327.3-372.4z M-329.7-370.3v2.3
			c0,0.2,0.1,0.3,0.2,0.3h3.3c0.2,0,0.2-0.1,0.2-0.3v-2.3c0-0.3,0.1-0.5,0.4-0.5c0.3,0,0.5,0.2,0.5,0.5v1.1c0.4-0.4,0.7-0.9,1-1.4
			c0.3-0.6,0.6-1.2,0.8-2c0-0.2,0.1-0.2,0.3-0.2c0.1,0,0.2,0,0.3,0.1c0.1,0.1,0.2,0.2,0.2,0.3s0,0.1-0.1,0.2
			c-0.2,0.6-0.4,1.1-0.6,1.5h1.5v-0.1c0.2-0.5,0.5-1,0.8-1.7c0-0.1,0.1-0.2,0.3-0.2c0.1,0,0.2,0,0.4,0.1c0.1,0.1,0.2,0.2,0.2,0.3
			c0,0.1,0,0.1-0.1,0.2c-0.2,0.5-0.4,1-0.7,1.5h1.4c0.3,0,0.4,0.1,0.4,0.4c0,0.3-0.1,0.5-0.4,0.5h-1.6v1.9h1.3
			c0.3,0,0.4,0.1,0.4,0.4c0,0.3-0.1,0.4-0.4,0.4h-1.3v2h1.3c0.3,0,0.4,0.1,0.4,0.4c0,0.3-0.1,0.4-0.4,0.4h-1.3v2.1h1.6
			c0.3,0,0.5,0.1,0.5,0.4c0,0.3-0.2,0.5-0.5,0.5h-4.1c-0.5,0-0.8-0.3-0.8-0.9v-6.9c-0.1,0.1-0.2,0.3-0.4,0.4
			c-0.1,0.1-0.2,0.2-0.3,0.2s-0.2,0-0.3-0.1v0.9c0,0.5-0.3,0.7-0.8,0.7h-1.6l-0.2,0.8h1.9c0.5,0,0.8,0.2,0.8,0.7v3.1
			c0,0.9-0.4,1.3-1.3,1.3c-0.3,0-0.7-0.1-1.1-0.2c-0.2-0.1-0.3-0.2-0.3-0.4c0-0.3,0.1-0.5,0.4-0.5h0.2c0.3,0.1,0.6,0.1,0.7,0.1
			c0.3,0,0.5-0.2,0.5-0.5v-2.7c0-0.2-0.1-0.3-0.2-0.3h-1.8l-0.5,1.9c0.4,0,0.8-0.1,1.2-0.2l-0.3-0.9l-0.1-0.2c0-0.2,0.1-0.3,0.4-0.3
			c0.2,0,0.3,0.1,0.4,0.2c0.2,0.4,0.4,0.9,0.6,1.7c0.1,0.2,0.1,0.3,0.1,0.3c0,0.2-0.1,0.4-0.4,0.4c-0.3,0-0.4-0.1-0.4-0.4
			c0-0.1,0-0.2-0.1-0.2c-0.8,0.2-1.6,0.3-2.3,0.4c-0.2,0-0.4-0.2-0.4-0.5c0-0.2,0.1-0.3,0.4-0.4h0.2l0.5-2h-1.1
			c-0.1,0-0.1,0.1-0.1,0.3v3.7c0,0.3-0.2,0.4-0.5,0.4c-0.3,0-0.4-0.1-0.4-0.4v-4.1c0-0.5,0.3-0.7,0.8-0.7h1.5l0.2-0.8h-1.6
			c-0.5,0-0.7-0.2-0.7-0.7v-2.7c0-0.3,0.1-0.5,0.4-0.5C-329.9-370.7-329.7-370.6-329.7-370.3z M-326.2-370.4c0,0.1-0.1,0.2-0.2,0.3
			c-0.2,0.3-0.5,0.5-0.7,0.8c0.3,0.2,0.5,0.5,0.7,0.7c0.1,0.1,0.1,0.2,0.1,0.2c0,0.2-0.1,0.4-0.4,0.4c-0.1,0-0.3,0-0.4-0.1l-0.7-0.7
			c-0.3,0.2-0.7,0.5-1,0.7c-0.1,0.1-0.2,0.1-0.2,0.1c-0.3,0-0.4-0.1-0.4-0.5c0-0.1,0.1-0.2,0.2-0.3c0.3-0.2,0.6-0.4,0.9-0.5
			c-0.3-0.2-0.6-0.4-0.9-0.7c-0.1-0.1-0.1-0.2-0.1-0.2c0-0.2,0.1-0.4,0.4-0.4c0.1,0,0.1,0,0.2,0.1c0.4,0.3,0.7,0.5,1,0.8
			c0.3-0.3,0.6-0.5,0.9-0.8c0.1-0.1,0.2-0.1,0.2-0.1C-326.4-370.7-326.2-370.6-326.2-370.4z M-321.7-369.8h-1.6v1.9h1.6V-369.8z
			 M-321.7-367.1h-1.6v2h1.6C-321.7-365.1-321.7-367.1-321.7-367.1z M-321.7-364.2h-1.6v1.7c0,0.3,0.1,0.4,0.4,0.4h1.2V-364.2z
			 M-316.5-363.9v1.5c0,0.2,0.1,0.3,0.2,0.3h2.1v-2.2c0-0.3,0.1-0.5,0.5-0.5c0.3,0,0.5,0.2,0.5,0.5v2.2h2c0.1,0,0.2-0.1,0.2-0.3
			v-1.5c0-0.3,0.1-0.5,0.5-0.5c0.3,0,0.5,0.2,0.5,0.5v1.7c0,0.5-0.3,0.8-0.9,0.8h-5.5c-0.6,0-0.9-0.3-0.9-0.8v-1.8
			c0-0.3,0.2-0.5,0.5-0.5C-316.6-364.3-316.5-364.2-316.5-363.9z M-312.9-372C-312.8-372-312.8-372.1-312.9-372
			c0.2-0.3,0.3-0.5,0.4-0.8c0.1-0.1,0.2-0.2,0.4-0.2c0.1,0,0.2,0.1,0.3,0.1c0.1,0.1,0.1,0.2,0.1,0.3s0,0.2-0.1,0.4
			c0,0.1-0.1,0.1-0.1,0.2h3.3c0.5,0,0.7,0.2,0.7,0.7v2.6c0,0.4-0.2,0.7-0.7,0.7h-7.5v0.8h9.2c0.3,0,0.4,0.1,0.4,0.4
			c0,0.3-0.1,0.4-0.4,0.4h-9.2v0.5c0,0.2,0.1,0.3,0.2,0.3h8.6c0.6,0,0.9,0.3,0.9,1c0,0.8-0.1,1.6-0.1,2.3c-0.1,0.6-0.2,1-0.5,1.2
			c-0.3,0.2-0.6,0.3-1.2,0.3c-0.4,0-0.9-0.1-1.4-0.2c-0.2-0.1-0.4-0.3-0.4-0.5c0-0.4,0.2-0.6,0.5-0.6c0.5,0.2,0.9,0.2,1.2,0.2
			c0.3,0,0.5-0.1,0.6-0.2c0.1-0.1,0.2-0.4,0.2-0.8c0-0.4,0.1-0.9,0.1-1.5c0-0.4-0.2-0.6-0.5-0.6h-8.6c-0.4,0-0.7-0.2-0.7-0.7v-5.7
			c0-0.4,0.2-0.7,0.7-0.7h3.6C-312.9-372.1-312.9-372-312.9-372z M-308.7-370.9c0-0.2-0.1-0.2-0.2-0.2h-6.8c-0.2,0-0.2,0.1-0.2,0.3
			v0.5h7.3v-0.6H-308.7z M-308.9-368.9c0.1,0,0.2-0.1,0.2-0.2v-0.5h-7.3v0.8h7.1V-368.9z M-327.7-357.9c0.4,0,0.7,0.2,0.7,0.6
			c0,0.1,0,0.3-0.1,0.5l-0.8,2.4c0,0.1-0.1,0.2-0.1,0.4s0,0.3,0.1,0.5c0.3,0.6,0.6,1.1,0.7,1.5c0.1,0.4,0.1,0.8,0.1,1.2
			c0,0.5-0.1,1-0.4,1.3c-0.3,0.4-0.8,0.7-1.4,0.7c-0.3,0-0.6-0.1-1-0.2v2.5c0,0.3-0.2,0.5-0.5,0.5c-0.3,0-0.5-0.2-0.5-0.5V-357
			c0-0.5,0.2-0.7,0.8-0.7h2.4C-327.7-357.7-327.7-357.9-327.7-357.9z M-328.9-349.9c0.3,0,0.6-0.1,0.7-0.4c0.2-0.2,0.3-0.5,0.3-0.8
			s0-0.5-0.1-0.9s-0.4-0.9-0.8-1.7c-0.1-0.1-0.1-0.3-0.1-0.4v-0.5l0.8-2.5c0-0.1-0.1-0.1-0.2-0.1h-1.3c-0.2,0-0.3,0.1-0.3,0.3v6.6
			C-329.3-350-329-349.9-328.9-349.9z M-325.5-347.9c0.7-0.2,1.3-0.5,1.8-0.7c0.1,0,0.2-0.1,0.3-0.1c0.2,0,0.4,0.1,0.4,0.4
			c0,0.2-0.1,0.4-0.3,0.5c-0.5,0.3-1.1,0.6-1.9,0.8c-0.6,0.2-1.3,0.4-2.1,0.6c-0.3,0-0.5-0.2-0.5-0.5c0-0.3,0.1-0.5,0.4-0.5
			c0.4-0.1,0.7-0.1,1-0.2v-9.4c0-0.5,0.3-0.8,0.8-0.8h4.8c0.5,0,0.7,0.2,0.7,0.7v4.2c0,0.5-0.2,0.7-0.7,0.7h-2.5
			c0.3,0.7,0.5,1.3,0.9,1.8c0.1,0.1,0.1,0.2,0.2,0.3c0.7-0.5,1.3-1,1.8-1.5c0.1-0.1,0.2-0.2,0.4-0.2c0.3,0,0.5,0.2,0.5,0.5
			c0,0.2-0.1,0.3-0.2,0.4c-0.5,0.5-1.2,1-1.9,1.5c0.2,0.2,0.3,0.4,0.5,0.6c0.5,0.5,1.2,1,2,1.5c0.2,0.1,0.3,0.3,0.3,0.4
			c0,0.4-0.2,0.6-0.6,0.6c-0.2,0-0.4-0.1-0.6-0.2c-0.9-0.6-1.7-1.3-2.3-2c-0.5-0.5-0.8-1-1.1-1.6c-0.3-0.6-0.5-1.3-0.7-2h-1.3v4.2
			C-325.4-347.9-325.5-347.9-325.5-347.9z M-325.3-357c-0.1,0-0.2,0.1-0.2,0.2v1.3h4.5v-1.3c0-0.1-0.1-0.2-0.2-0.2
			C-321.2-357-325.3-357-325.3-357z M-325.5-353.1h4.3c0.1,0,0.2-0.1,0.2-0.2v-1.3h-4.5C-325.5-354.6-325.5-353.1-325.5-353.1z
			 M-316.9-346.7c-0.1,0.1-0.2,0.2-0.4,0.2c-0.4,0-0.6-0.2-0.6-0.6c0-0.1,0-0.2,0.1-0.3c0.8-0.7,1.4-1.6,1.7-2.5
			c0.2-0.7,0.3-1.5,0.3-2.4c0-0.3,0.1-0.4,0.5-0.4c0.4,0,0.5,0.2,0.5,0.5c0,0.9-0.1,1.8-0.3,2.7c0,0.1-0.1,0.2-0.1,0.3
			c0.3,0.3,0.6,0.6,0.9,0.7c0.5,0.3,1.1,0.5,1.8,0.7v-5.9h-3c-0.3,0-0.5-0.1-0.5-0.5c0-0.3,0.1-0.5,0.5-0.5h6.8
			c0.3,0,0.5,0.2,0.5,0.5c0,0.3-0.2,0.5-0.5,0.5h-2.9v2.3h3.7c0.3,0,0.5,0.2,0.5,0.5s-0.2,0.5-0.5,0.5h-3.7v2.8
			c1,0.1,2.7,0.2,5.1,0.2c0.3,0,0.4,0.2,0.4,0.5s-0.2,0.4-0.5,0.5c-3.3,0-5.4-0.2-6.3-0.4c-0.8-0.2-1.4-0.4-1.9-0.7
			c-0.3-0.2-0.6-0.4-0.8-0.7C-315.9-347.8-316.3-347.2-316.9-346.7z M-311.5-357.8v0.7h4.2c0.4,0,0.6,0.1,0.8,0.4
			c0.2,0.2,0.2,0.5,0.2,0.9c0,0.4,0,0.8-0.1,1.3c-0.1,0.3-0.3,0.4-0.6,0.4c-0.3,0-0.5-0.2-0.5-0.5c0.1-0.6,0.1-1,0.1-1.2
			c0-0.3-0.1-0.5-0.4-0.5h-8.5c-0.3,0-0.4,0.1-0.4,0.4v1c0,0.3-0.2,0.5-0.5,0.5c-0.3,0-0.5-0.1-0.5-0.5v-1.4c0-0.6,0.3-0.9,0.9-0.9
			h4.1v-0.7c0-0.3,0.2-0.5,0.5-0.5C-311.7-358.4-311.5-358.2-311.5-357.8z"/>
	</g>
</g>
</svg>
