<svg xmlns="http://www.w3.org/2000/svg" width="1920" height="832" viewBox="0 0 1920 832">
    <g fill="none" fill-rule="nonzero">
        <path fill="#D5EA50" d="M1920 832H0V57.1h144.6l733 29.4 800-28.8H1920z"/>
        <g fill="#FFF">
            <path d="M396.3 55.8c-.5-1.7-1.2-3.3-1.8-4.9-.7-1.6-1.4-3.2-2.2-4.8-.8-1.5-1.7-3.1-2.6-4.6-3.7-6-8.3-11.4-13.4-16.1-2.6-2.4-5.3-4.6-8.2-6.6-2.8-2-5.8-3.9-8.8-5.6-.2-.1-.4-.3-.6-.4-.1.1-.2.2-.3.4.2.1.5.3.7.4 3 1.8 5.9 3.6 8.7 5.7 2.8 2.1 5.5 4.3 8 6.6 5.1 4.7 9.5 10.1 13.1 16 .9 1.5 1.7 3 2.5 4.5s1.5 3.1 2.2 4.7c.7 1.6 1.2 3.2 1.8 4.9.5 1.5.9 3 1.1 4.5.1.3.3.5.6.4.3 0 .5-.3.5-.6-.4-1.5-.8-3-1.3-4.5z"/>
            <path d="M343.3 1.9s2.7 6.7 16.1 11.7c0 0-3.9-4.7-7.9-7.4s-6.1-2.1-8.2-4.3zM357.5.4s7.4 4.3 5.8 15.5c0 0-6.2-8.9-5.8-15.5zM363.3 15.9s-15.2-1.8-23 4.7c0 .1 18.8 2.2 23-4.7zM369.3 5.4s-4 5.8-1.6 13.6c0-.1 4.5-5.2 1.6-13.6z"/>
            <path d="M350.3 27.9s6.6-9.5 17.4-9c0 0-2.6 5.9-17.4 9zM376.9 9.5s-5.2 5.1-3.1 14.4c0-.1 6.2-6.6 3.1-14.4z"/>
            <path d="M354.6 32.1s9.1-9.3 19.2-8.3c0 0-2.1 5.8-19.2 8.3z"/>
            <g>
                <path d="M382.1 15.5s-4.9 6.5-2.7 13.4c0 0 5.8-7.1 2.7-13.4zM362.7 35.4s11.1-8.7 16.7-6.5c0 0-.1 5-16.7 6.5z"/>
            </g>
            <g>
                <path d="M387.6 21.1s-5.6 5.1-4 12.5c0 0 3.6-4.1 4-12.5zM368.2 41.8s7.7-9.1 15.3-8.1c.1-.1-3.4 4.6-15.3 8.1z"/>
            </g>
        </g>
        <path fill="#B0D54E" d="M1651.6 173.5c-38.1 11.4-123.2-3.5-161.9 3.3-87.6 15.3-207.7 2.4-245.2-3.9-37.5-6.2-82.7 2.8-103.7.2-62.4-7.5 23.1-48.2-7.8-59.1-100.4-35.7-138.7 4-213.6-5.4s-149.2 7-149.2 7-16.2 2.2-8.1 12.1c8.1 9.9-8.1 11.6-21.5 11.6-13.5 0-40.8.8-25.5 16.2 15.4 15.4-28.3 34-82.3 29.1-92.8-8.4-19.9 52.3-131.9 58C250.5 255 317 130.1 254.8 121.8c-133.7-17.9-110.2-64.7-110.2-64.7h1516.8c22.4 0 43.8 29.1 47.5 49.1 4.5 23.9-15.6 46.2-34.7 57.6-7.1 4.2-14.7 7.3-22.6 9.7z"/>
    </g>
</svg>
