<?xml version="1.0" encoding="utf-8"?>
<!-- Generator: Adobe Illustrator 23.0.2, SVG Export Plug-In . SVG Version: 6.00 Build 0)  -->
<svg version="1.1" id="圖層_1" xmlns="http://www.w3.org/2000/svg" xmlns:xlink="http://www.w3.org/1999/xlink" x="0px" y="0px"
	 viewBox="0 0 35 35" style="enable-background:new 0 0 35 35;" xml:space="preserve">
<style type="text/css">
	.st0{fill:#F5912E;}
	.st1{fill:#FFFFFF;}
</style>
<path class="st0" d="M-191.8,61.4h-77.7c-16.3,0-29.5-13.2-29.5-29.5s13.2-29.5,29.5-29.5h77.7c16.3,0,29.5,13.2,29.5,29.5
	C-162.4,48.2-175.6,61.4-191.8,61.4z"/>
<path class="st1" d="M5,22.3c4.4,4.4,11.3,4.7,16.1,1l9.8,9.8c0.6,0.6,1.5,0.6,2.1,0s0.6-1.5,0-2.1l-9.8-9.8
	c3.7-4.8,3.4-11.7-1-16.1C17.4,0.3,9.7,0.3,5,5.1C0.3,9.8,0.3,17.5,5,22.3z M7.2,7.2c3.6-3.6,9.4-3.6,13,0c3.6,3.6,3.6,9.4,0,13
	s-9.4,3.6-13,0S3.6,10.7,7.2,7.2z"/>
<g>
	<path class="st1" d="M-228.3,26.8c0,0.4-0.2,0.6-0.6,0.6h-5.5c0.9,0.7,1.8,1.2,2.7,1.6c0.6,0.3,1.6,0.7,3,1
		c0.3,0.1,0.4,0.2,0.4,0.5c0,0.4-0.2,0.6-0.6,0.6c-0.1,0-0.4-0.1-0.8-0.2c-1.9-0.6-3.6-1.4-5.2-2.7v1.9c0,0.4-0.2,0.6-0.6,0.6
		s-0.6-0.2-0.6-0.6v-2c-1,0.8-2,1.4-2.8,1.8c-1,0.5-2,0.8-2.8,1.1c-0.3,0.1-0.5,0.2-0.7,0.2c-0.4,0-0.6-0.2-0.6-0.6
		c0-0.3,0.1-0.4,0.4-0.5c1.6-0.5,2.8-0.9,3.6-1.3c0.8-0.4,1.5-0.8,2.2-1.4h-5.4c-0.4,0-0.6-0.2-0.6-0.6s0.2-0.6,0.6-0.6h6v-0.4
		c0-0.4,0.2-0.6,0.6-0.6c0.4,0,0.6,0.2,0.6,0.6v0.4h5.9C-228.5,26.3-228.3,26.5-228.3,26.8z M-227.9,38.8c0,0.4-0.2,0.6-0.6,0.6
		h-13.7c-0.4,0-0.6-0.2-0.6-0.6c0-0.4,0.2-0.6,0.6-0.6h13.7C-228.1,38.2-227.9,38.4-227.9,38.8z M-231.3,31c0.8,0,1.2,0.4,1.2,1.1
		v3.7c0,0.8-0.4,1.2-1.2,1.2h-8.2c-0.8,0-1.2-0.4-1.2-1.2v-3.7c0-0.7,0.4-1.1,1.2-1.1C-239.5,31-231.3,31-231.3,31z M-231.3,33.4
		v-1.1c0-0.2-0.1-0.3-0.3-0.3h-7.8c-0.2,0-0.2,0.1-0.2,0.3v1.1H-231.3z M-231.3,35.6v-1.1h-8.3v1.1c0,0.3,0.1,0.4,0.2,0.4h7.8
		C-231.4,36-231.3,35.9-231.3,35.6z M-213.3,25.9c0,0.2-0.1,0.3-0.4,0.4c-1.6,0.1-3.3,0.3-5.2,0.4h-0.8v0.2
		c-0.1,0.4-0.2,0.7-0.3,0.9h6.8c0.3,0,0.4,0.2,0.4,0.4c0,0.3-0.2,0.5-0.4,0.5h-7.1c-0.1,0.4-0.3,0.7-0.4,0.9c0,0,0,0.1-0.1,0.1h8.3
		c0.3,0,0.4,0.2,0.4,0.4c0,0.3-0.2,0.5-0.4,0.5h-9c-0.2,0.3-0.4,0.6-0.6,0.8l-0.3,0.3h7.7c0.7,0,1.1,0.3,1.1,1v5.4
		c0,0.7-0.4,1-1.1,1h-8.4c-0.7,0-1.1-0.3-1.1-1v-5c-0.5,0.3-1.1,0.6-1.8,0.9c-0.2,0.1-0.4,0.1-0.4,0.1c-0.2,0-0.3,0-0.4-0.2
		c-0.1-0.1-0.2-0.2-0.2-0.4c0-0.3,0.1-0.4,0.3-0.5c0.9-0.4,1.7-0.8,2.3-1.2c0.5-0.4,1-0.8,1.5-1.3h-3.3c-0.3,0-0.4-0.2-0.4-0.5
		s0.1-0.4,0.4-0.4h4c0.2-0.3,0.3-0.5,0.5-0.8c0-0.1,0.1-0.2,0.1-0.3h-4.2c-0.3,0-0.4-0.2-0.4-0.5s0.1-0.4,0.4-0.4h4.7
		c0.1-0.3,0.2-0.7,0.4-1c-1.6,0.1-3.1,0.1-4.6,0.1c-0.4,0-0.6-0.2-0.6-0.6c0-0.3,0.2-0.4,0.5-0.4c1.6,0,3.3-0.1,5-0.1
		c2.1-0.1,4.4-0.2,6.6-0.4C-213.5,25.3-213.3,25.5-213.3,25.9z M-214.8,34.1v-0.7c0-0.3-0.2-0.5-0.4-0.5h-7.4
		c-0.3,0-0.4,0.2-0.4,0.5v0.7C-223,34.1-214.8,34.1-214.8,34.1z M-214.8,36.1V35h-8.3v1.1H-214.8z M-214.8,37.9v-0.8h-8.3v0.8
		c0,0.4,0.1,0.5,0.4,0.5h7.4C-215,38.4-214.8,38.2-214.8,37.9z M-196.2,26.2c0,0.4-0.2,0.6-0.5,0.6h-6v1.4h4.4c0.7,0,1,0.3,1,0.9
		v4.3c0,0.6-0.3,0.9-1,0.9h-4.4c-0.1,1.4-0.5,2.5-1.2,3.2c0.8,0.2,1.7,0.4,2.7,0.5c0.7,0.1,2.3,0.2,4.7,0.2c0.4,0,0.5,0.2,0.6,0.6
		c0,0.4-0.2,0.7-0.7,0.7c-0.7,0-1.6-0.1-2.7-0.2c-1.1-0.1-2.2-0.2-3.2-0.4c-0.8-0.2-1.6-0.4-2.3-0.6c-1.1,0.6-2.7,1.1-5,1.3
		c-0.4,0-0.6-0.2-0.6-0.6c0-0.3,0.1-0.5,0.4-0.6c1.5-0.2,2.7-0.4,3.6-0.8c-1.1-0.5-1.9-1.1-2.6-1.8c-0.1-0.1-0.1-0.3-0.1-0.4
		c0-0.4,0.2-0.6,0.6-0.6c0.1,0,0.2,0.1,0.4,0.2c0.9,0.9,1.9,1.5,3,1.9l0.3-0.3c0.5-0.6,0.9-1.5,1-2.6h-4.6c-0.6,0-0.9-0.3-0.9-0.9
		v-4.3c0-0.6,0.3-0.9,0.9-0.9h4.7v-1.4h-6.1c-0.3,0-0.5-0.2-0.5-0.6c0-0.3,0.2-0.5,0.5-0.5h13.3C-196.4,25.7-196.2,25.9-196.2,26.2z
		 M-203.9,30.6v-1.4h-4.1c-0.2,0-0.3,0.1-0.3,0.4v1.1h4.4V30.6z M-203.9,31.7h-4.4v1.1c0,0.3,0.1,0.4,0.3,0.4h4.1V31.7z
		 M-202.8,30.6h4.2v-1.1c0-0.3-0.1-0.4-0.4-0.4h-3.8C-202.8,29.1-202.8,30.6-202.8,30.6z M-198.6,32.8v-1.1h-4.2v1.5h3.8
		C-198.7,33.2-198.6,33-198.6,32.8z M-189.9,27.9c-0.8,0.5-1.8,0.9-3.1,1.3c-0.1,0-0.3,0.1-0.4,0.1c-0.4,0-0.6-0.2-0.6-0.6
		c0-0.2,0.1-0.3,0.3-0.4c1.4-0.4,2.5-0.8,3.2-1.3c0.6-0.3,1.1-0.8,1.7-1.4c0.1-0.2,0.3-0.3,0.4-0.3c0.4,0,0.6,0.2,0.6,0.6
		c0,0.1,0,0.2-0.1,0.4l-0.2,0.2h5.4c0.5,0,0.8,0.2,0.8,0.7c0,0.4-0.4,0.9-1.1,1.6c-0.9,0.9-2.1,1.7-3.5,2.4
		c-1.3,0.7-2.9,1.2-4.7,1.6c-1.2,0.3-2.2,0.4-3,0.4c-0.4,0-0.6-0.2-0.6-0.6c0-0.3,0.2-0.5,0.5-0.6c1.4-0.1,2.4-0.2,3.1-0.3
		c0.9-0.2,1.7-0.4,2.5-0.7c-0.3-0.4-0.6-0.6-0.8-0.8c-0.2-0.2-0.4-0.4-0.7-0.6c-0.1-0.1-0.2-0.3-0.2-0.4c0-0.3,0.2-0.5,0.5-0.5
		c0.1,0,0.2,0,0.4,0.1c0.3,0.2,0.5,0.4,0.8,0.7c0.4,0.3,0.7,0.7,1,1l0.1,0.1l0.6-0.3c0.9-0.5,1.8-1,2.6-1.6c0.7-0.5,1-0.8,1-0.9
		s-0.1-0.2-0.3-0.2h-5.3h-0.1C-189.4,27.6-189.7,27.8-189.9,27.9z M-188,34.2c-1,0.5-2.3,1-3.9,1.5c-0.2,0.1-0.3,0.1-0.5,0.1
		c-0.4,0-0.6-0.2-0.6-0.6c0-0.2,0.1-0.3,0.3-0.4c1.8-0.5,3.2-1,4.1-1.5c0.7-0.4,1.5-0.9,2.2-1.6c0.1-0.2,0.3-0.3,0.4-0.3
		c0.4,0,0.6,0.2,0.6,0.6c0,0.1,0,0.3-0.1,0.4l-0.3,0.3h3.8c0.7,0,1.1,0.3,1.1,0.9c0,0.5-0.2,1.1-0.5,1.8c-0.5,0.9-1.1,1.6-2,2.1
		c-1,0.7-2.2,1.2-3.5,1.5c-1.6,0.4-3.5,0.7-5.7,0.8c-0.5,0-0.8-0.2-0.8-0.6c0-0.4,0.2-0.6,0.6-0.6c1.7-0.1,3.1-0.2,4.2-0.3
		c0.8-0.1,1.6-0.3,2.2-0.5l-1-1c-0.3-0.2-0.6-0.5-0.9-0.7c-0.1-0.1-0.2-0.3-0.2-0.4c0-0.3,0.2-0.5,0.5-0.5c0.1,0,0.2,0,0.4,0.1
		c0.4,0.3,0.7,0.6,1,0.8c0.4,0.4,0.9,0.8,1.3,1.3c1.1-0.5,2-1.1,2.6-1.9c0.5-0.5,0.7-1,0.7-1.5c0-0.2-0.1-0.3-0.2-0.3h-4.7
		C-187.2,33.8-187.6,34-188,34.2z"/>
</g>
</svg>
