<?xml version="1.0" encoding="utf-8"?>
<!-- Generator: Adobe Illustrator 23.0.2, SVG Export Plug-In . SVG Version: 6.00 Build 0)  -->
<svg version="1.1" id="圖層_1" xmlns="http://www.w3.org/2000/svg" xmlns:xlink="http://www.w3.org/1999/xlink" x="0px" y="0px"
	 viewBox="0 0 1200 274" style="enable-background:new 0 0 1200 274;" xml:space="preserve">
<style type="text/css">
	.st0{fill-rule:evenodd;clip-rule:evenodd;fill:#D5EA50;}
</style>
<path class="st0" d="M1181.7,185.3c-16.8-43.5-59.8-80.7-107.1-86.1c-27.7-3.2-56.2,3.9-83.2-5c-5.3-1.7-10.1-4-14.7-6.5
	c-12.6-6.9-23.1-16.1-35.1-23.6c-29.1-18.3-68.1-27.6-105.7-29.8c-26.7-1.5-52.2,1.2-77.1,5.5c-23.9,4.1-48.5-1-68.3-15
	C668.4,9.1,641.4,0,612.3,0c-24.5,0-47.5,6.5-67.4,17.9c-20.7,11.9-45.2,15-68.5,9.3l-0.4-0.1c-34.7-8.4-71-12.4-106.7-9.4
	c-37.5,3.1-61.8,22.8-95.6,36.9c-42.9,17.9-92.2,15.2-137.4,23C50.7,92.4,0,190.9,0,274.1h1200
	C1200,242.7,1189.2,204.6,1181.7,185.3"/>
</svg>
