<?xml version="1.0" encoding="utf-8"?>
<!-- Generator: Adobe Illustrator 23.0.2, SVG Export Plug-In . SVG Version: 6.00 Build 0)  -->
<svg version="1.1" id="圖層_1" xmlns="http://www.w3.org/2000/svg" xmlns:xlink="http://www.w3.org/1999/xlink" x="0px" y="0px"
	 viewBox="0 0 1200 314" style="enable-background:new 0 0 1200 314;" xml:space="preserve">
<style type="text/css">
	.st0{fill-rule:evenodd;clip-rule:evenodd;fill:#D5EA50;}
</style>
<path class="st0" d="M18.4,145.2c16.5,43.7,59.9,80.8,107.1,86.2c27.7,3.2,56.2-3.9,83.2,5c5.3,1.7,10.1,4,14.7,6.5
	c12.6,6.9,23.1,16.1,35.2,23.6c29.1,18.3,68.1,27.6,105.8,29.8c86,4.9,158.9-34.3,243-26.2c40.2,3.9,78.4,23.9,117.1,33.4
	c34.7,8.4,71.1,12.4,106.7,9.4c37.5-3.1,61.8-22.8,95.6-36.9c43-17.9,92.2-15.2,137.4-23C1150,238.2,1200,182.6,1200,0.1H0.1
	C0.1,57.8-2.4,90.3,18.4,145.2"/>
</svg>
