<svg xmlns="http://www.w3.org/2000/svg" width="207" height="77" viewBox="0 0 207 77">
    <g fill="#FFF" fill-rule="nonzero">
        <path d="M48.3 74c-.6 0-1.2-.2-1.7-.6-1-.9-1.1-2.5-.2-3.5l6.6-7.2c2.7-3.4 2.7-9.3 2.7-14V6.1c0-1.4 1.1-2.5 2.5-2.5s2.5 1.1 2.5 2.5v42.4c0 5.6.1 12.5-3.8 17.3l-.1.1-6.6 7.3c-.5.5-1.2.8-1.9.8z"/>
        <path d="M58.2 32.8h-8.9c-1.4 0-2.5-1.1-2.5-2.5s1.1-2.5 2.5-2.5h8.9c1.4 0 2.5 1.1 2.5 2.5s-1.1 2.5-2.5 2.5zM85.9 32.8h-5.2c-1.4 0-2.5-1.1-2.5-2.5s1.1-2.5 2.5-2.5h5.2c1.4 0 2.5 1.1 2.5 2.5s-1.2 2.5-2.5 2.5z"/>
        <path d="M88.2 74h-2.9c-7.8 0-11.3-6.2-11.7-6.9-2.4-4.2-2.3-11.5-2.3-12.3V6.2c0-1.4 1.1-2.5 2.5-2.5s2.5 1.1 2.5 2.5v48.7c0 1.9.2 7.2 1.7 9.9 0 0 0 .1.1.1.1.2 2.3 4.3 7.3 4.3h2.9c1.4 0 2.5 1.1 2.5 2.5S89.6 74 88.2 74z"/>
        <g>
            <path d="M115.7 74.5c-1.4 0-2.5-1.1-2.5-2.5s1.1-2.5 2.5-2.5c3.2 0 5.8-2.6 5.8-5.8V6.1c0-1.4 1.1-2.5 2.5-2.5s2.5 1.1 2.5 2.5v57.6c0 6-4.8 10.8-10.8 10.8zM102.9 40.4c-1 0-1.9-.6-2.3-1.5-.5-1.3.1-2.7 1.4-3.2.4-.1 8-3.4 8.1-11.1 0-1.4 1.2-2.5 2.5-2.5 1.4 0 2.5 1.1 2.5 2.5-.1 11-10.7 15.4-11.1 15.6-.4.1-.8.2-1.1.2zM144.8 40.4c-.3 0-.6-.1-.9-.2-.5-.2-11.1-4.6-11.1-15.6 0-1.4 1.1-2.5 2.5-2.5s2.5 1.1 2.5 2.5c0 7.7 8 11 8 11.1 1.3.5 1.9 2 1.4 3.2-.4.9-1.4 1.5-2.4 1.5z"/>
        </g>
        <g>
            <path d="M197.3 12h-32.9c-1.4 0-2.5-1.1-2.5-2.5S163 7 164.4 7h32.9c1.4 0 2.5 1.1 2.5 2.5s-1.1 2.5-2.5 2.5zM197.3 22.4h-32.9c-1.4 0-2.5-1.1-2.5-2.5s1.1-2.5 2.5-2.5h32.9c1.4 0 2.5 1.1 2.5 2.5s-1.1 2.5-2.5 2.5zM197.3 32.8h-32.9c-1.4 0-2.5-1.1-2.5-2.5s1.1-2.5 2.5-2.5h32.9c1.4 0 2.5 1.1 2.5 2.5s-1.1 2.5-2.5 2.5z"/>
            <path d="M158.5 48.1c-.9 0-1.7-.4-2.1-1.2-.7-1.2-.3-2.7.9-3.4 20.9-12.3 20.9-39.8 20.9-40.1 0-1.4 1.1-2.5 2.5-2.5s2.5 1.1 2.5 2.4c0 1.2.1 30.7-23.4 44.4-.4.3-.9.4-1.3.4zM203.9 48.1h-.4c-5.3-.8-10.3-5.8-12.1-8.9-.7-1.2-.4-2.7.8-3.4 1.2-.7 2.7-.4 3.4.8 1.5 2.5 5.4 6.1 8.6 6.6 1.4.2 2.3 1.4 2.1 2.8-.2 1.2-1.2 2.1-2.4 2.1z"/>
            <path d="M180.9 77c-7.1 0-13-5.8-13-13V50.6c0-7.1 5.8-13 13-13s13 5.8 13 13V64c0 7.2-5.9 13-13 13zm0-34.4c-4.4 0-8 3.6-8 8V64c0 4.4 3.6 8 8 8s8-3.6 8-8V50.6c0-4.4-3.6-8-8-8z"/>
            <path d="M179.7 58.5h-15.2c-1.4 0-2.5-1.1-2.5-2.5s1.1-2.5 2.5-2.5h15.2c1.4 0 2.5 1.1 2.5 2.5s-1.1 2.5-2.5 2.5z"/>
        </g>
        <g>
            <path d="M18.6 26.7H2.9c-.8 0-1.6-.4-2.1-1.1-.5-.7-.6-1.5-.3-2.3L8.8 2.4C9.3 1.1 10.7.5 12 1c1.3.5 1.9 1.9 1.4 3.2L6.5 21.7h12.1c1.4 0 2.5 1.1 2.5 2.5s-1.2 2.5-2.5 2.5zM15.6 77C8.2 77 2.1 70.9 2.1 63.5V45c0-7.4 6.1-13.5 13.5-13.5S29.1 37.6 29.1 45v18.5C29.1 70.9 23 77 15.6 77zm0-40.6c-4.7 0-8.5 3.8-8.5 8.5v18.5c0 4.7 3.8 8.5 8.5 8.5s8.5-3.8 8.5-8.5V45c0-4.7-3.8-8.6-8.5-8.6zM26.6 27c-1.4 0-2.5-1.1-2.5-2.5v-10c0-1.4 1.1-2.5 2.5-2.5s2.5 1.1 2.5 2.5v10c0 1.4-1.2 2.5-2.5 2.5z"/>
        </g>
    </g>
</svg>
