<svg xmlns="http://www.w3.org/2000/svg" width="680" height="241" viewBox="0 0 680 241">
    <g fill="none" fill-rule="nonzero">
        <path fill="#FFF" d="M447.9 111c-25.8 0-40.3-13-48-24-8.4-12-10.5-24.1-10.6-24.6-.5-3 1.5-5.8 4.5-6.3s5.8 1.5 6.3 4.5c.3 1.6 7.5 40.3 49.2 39.5 3 0 5.5 2.3 5.6 5.4.1 3-2.3 5.5-5.4 5.6-.5-.1-1.1-.1-1.6-.1z"/>
        <path fill="#68BECB" d="M349.5 126.3s6.2 22.9-11.6 52.8c-4.8 8.1 1.8 18.4 11.1 17.1 2.8-.4 6-1.5 9.7-3.8 18.7-11.4 19.6-41.7 35.8-42.8 16.2-1.2 18.8 37.9 31.4 51.5 6.4 6.9 17.7 3.5 19.1-8.2 3.6-29.1-18.1-66.6-18.1-66.6h-77.4z"/>
        <path fill="#9BD2DC" d="M349.5 126.3s-1.3-19.7 1.6-35.4c3.7-20.5 17.1-36.6 35.3-38.4 21-2.1 28.9 19.6 33.1 42.8 3.1 16.6 7.4 31 7.4 31s-27.2 26.6-77.4 0z"/>
        <path fill="#1D1D1B" d="M460 212.8c3.2-2.4 1.1-7.5-2.9-7-5.2.6-12.1 2.9-18 10.3 0 0-3.4 7.1 11.3 1.6 4.4-1.7 7.5-3.4 9.6-4.9zM335.5 222.6c1.7 3.6 7.1 2.5 7.5-1.5.4-5.2-.6-12.4-6.8-19.7 0 0-6.3-4.7-3.7 10.8.7 4.6 1.8 8 3 10.4z"/>
        <g transform="translate(324 125)">
            <path fill="#7D4E24" d="M43.4 27.5c-.2 0-.3 0-.5-.1-.9-.3-1.4-1.2-1.1-2.1 1.6-4.9 4.7-19.3-1.2-21.4-5.9-2.1-12.4 11.2-14.2 16-.3.9-1.3 1.3-2.1 1-.9-.3-1.3-1.3-1-2.1.8-2.2 8.4-21.4 18.4-17.9 10 3.5 4 23.3 3.3 25.5-.2.6-.9 1.1-1.6 1.1z"/>
            <path fill="#A66E32" d="M45.2 56.1L4.6 42c-3-1-4.6-4.3-3.5-7.3L9.9 9.3c1-3 4.3-4.6 7.3-3.5L57.8 20c3 1 4.6 4.3 3.5 7.3l-8.8 25.4c-1 2.9-4.3 4.5-7.3 3.4z"/>
            <path fill="#CA9E67" d="M57.9 19.9L17.3 5.7c-1.7-.6-3.5-.3-4.9.5l-1.1 15c-.3 4.1 2.2 7.9 6.1 9.3L41.7 39c3.8 1.3 8 0 10.4-3.2l9.2-12.6c-.6-1.5-1.8-2.7-3.4-3.3z"/>
            <path fill="#B17F4A" d="M28.32 9.632l18.605 6.48-7.664 22.005-18.605-6.48z"/>
            <circle cx="31.5" cy="30.3" r="1.9" fill="#7D4E24"/>
        </g>
        <path fill="#FFF" d="M370.6 136.6c-2.3 0-4.4-1.4-5.2-3.7-16.7-47.9 6.2-67.7 7.2-68.5 2.3-1.9 5.8-1.6 7.7.7 1.9 2.3 1.6 5.7-.7 7.7-.8.7-17.9 16.4-3.9 56.5 1 2.9-.5 6-3.4 7-.5.2-1.1.3-1.7.3z"/>
        <g fill="#1D1D1B">
            <path d="M401.9 70.3l-1.4 2.2c-.4.7-1.4.9-2.1.5l-2.2-1.4c-.7-.4-.9-1.4-.5-2.1l1.4-2.2c.4-.7 1.4-.9 2.1-.5l2.2 1.4c.7.4 1 1.3.5 2.1z"/>
            <path d="M398.7 73.3l-1.4 2.8c-.1.2-.1.3-.1.5v16.6c0 .3.1.6.3.8l6.4 6.1c.6.6 1.6.3 1.8-.5l2.6-8.1c.1-.2.1-.5 0-.7l-4.9-15.4c-.1-.2-.2-.4-.4-.5l-2.6-2.1c-.5-.3-1.3-.1-1.7.5z"/>
        </g>
        <path fill="#1D1D1B" d="M400 71l-.7-.6c-8-7.1-19.9-15.9-20-16-.3-.2-.3-.6-.1-.8.2-.3.6-.3.8-.1.1.1 11.3 8.4 19.3 15.4.6-2.6 1.7-9.9-3-15-.2-.2-.2-.6 0-.9.2-.2.6-.2.9 0 6.3 6.8 3.2 16.7 3.1 17.1l-.3.9z"/>
        <g>
            <g transform="translate(377 26)">
                <path fill="#FFF" d="M29.7 15.2c0 8-6.6 16.3-14.6 16.3S.6 23.1.6 15.1C.6 7.1 7.2.6 15.2.6s14.5 6.6 14.5 14.6z"/>
                <circle cx="10.8" cy="15.4" r="1.5" fill="#1D1D1B"/>
                <circle cx="23.5" cy="18.1" r="1.5" fill="#1D1D1B"/>
                <path fill="#1D1D1B" d="M16.5 23.9c-.2 0-.4 0-.6-.1-.3-.1-.5-.4-.4-.7.1-.3.4-.5.7-.4.2.1.5 0 .6 0 .1-.3 0-2.3-.1-4 0-.3.2-.6.5-.6s.6.2.6.5c.1 1.8.2 4.1-.1 4.7-.1.5-.6.6-1.2.6z"/>
            </g>
            <path fill="#1D1D1B" d="M408.7 35.3s.5 5.1-5.6 2.4c-2.7-1.2-5.7-4.6-5.7-4.6s-.4 4.6-4.9 4.3c-4.5-.2-7.7-1.6-8.9-4.9-.1-.3-1.9 7.4-6.5 7.6-7.1.2-5.7-22.3 14.9-23.1 14.3-.4 17.7 13.2 16.7 18.3z"/>
            <g fill="#CA9E67">
                <path d="M400.4 18.2s7.9.6 7.4 2.2c-.7 2.4-13.6 5.8-17.7 6.3-5.7.8-18.3 1.7-19.9.1-1.6-1.6 6.3-4.2 6.3-4.2l23.9-4.4z"/>
                <path d="M394.7 9.6c3.9.4 4.6 3.8 5.7 8.7 1.1 4.9-23.6 6.3-23.6 6.3s-2.5-10.3 2.4-12.5c4.9-2.1 6.5-.2 9.1-.4 2.6-.2 3.1-2.5 6.4-2.1z"/>
            </g>
            <path fill="#B17F4A" d="M381.8 24.4c-3.4 0-5.6-.4-5.8-.4-.9-.2-1.5-1.1-1.4-2 .2-.9 1.1-1.5 2-1.4.1 0 11.6 2.1 22.9-3.9.8-.4 1.9-.1 2.3.7.4.8.1 1.9-.7 2.3-7.2 3.9-14.4 4.7-19.3 4.7z"/>
        </g>
        <g>
            <path fill="#FFF" d="M263.8 105.4c-16.1 0-28-6.7-35.8-13.3-11.2-9.5-16.3-20.6-16.5-21.1-1.2-2.8 0-6 2.7-7.2 2.7-1.2 6 0 7.2 2.7.7 1.5 17.5 37.1 57.7 25.7 2.9-.8 5.9.9 6.8 3.8.9 2.9-.9 5.9-3.8 6.8-6.6 1.8-12.7 2.6-18.3 2.6z"/>
            <path fill="#EAA500" d="M172.4 133.2s-.4 30.1-6.1 64.4c-1.5 9.2 8.4 16.5 16.5 11.9 2.4-1.4 5-3.6 7.6-7 13.3-17.5 12.2-37.1 28.4-38.3 16.2-1.2 18.6 30.2 33.7 40.9 7.6 5.4 18-.2 17.1-11.9-1.7-20.6-12.3-36.7-19.5-50.1-3-5.7-3.8-12.1-3.8-12.1l-73.9 2.2z"/>
            <path fill="#FCC04C" d="M172.4 133.2s-1.3-19.7 1.6-35.4c3.7-20.5 17.1-36.6 35.3-38.4 21-2.1 28.9 19.6 33.1 42.8 3.1 16.6 3.9 28.9 3.9 28.9s-23.8 28.7-73.9 2.1z"/>
            <path fill="#1D1D1B" d="M288 214.9c3.8-1.2 3.5-6.7-.4-7.6-5.1-1.2-12.4-1.2-20.4 3.9 0 0-5.5 5.6 10.2 5.2 4.6-.2 8.1-.8 10.6-1.5zM190.5 239c2.9 2.7 7.5-.3 6.4-4.1-1.5-5-5.1-11.4-13.5-15.8 0 0-7.6-2.1.5 11.4 2.4 4 4.7 6.7 6.6 8.5z"/>
            <path fill="#FFF" d="M216.4 137.9c-.9 0-1.8-.2-2.6-.7-11.7-6.5-19.3-15.4-22.4-26.4-5.5-19.1 4.6-37.5 5-38.2 1.5-2.6 4.8-3.6 7.4-2.1 2.6 1.5 3.6 4.8 2.1 7.4-.8 1.4-17.5 32.8 13.1 49.7 2.6 1.5 3.6 4.8 2.1 7.4-.9 1.8-2.7 2.9-4.7 2.9z"/>
            <path fill="#828798" d="M219.2 81.8c-.8-15.8-15.8-26.6-16.7-28.6l-2.6 1.1-22.4-.1s-2.9 14 14.9 18.3c6.9 1.7 12.4 5.7 17.7 14.5 2.1 3.4 7.3 2.9 8.6-.9.4-1 .6-2.5.5-4.3z"/>
            <path fill="#828798" d="M177.5 54.3s.2-8.3 2-14.9c2.3-8.5 8.6-14.8 16.3-14.9 8.9-.1 11.4 9.3 12.4 19.3.7 7.1-1.6 14.1-1.6 14.1s-16.1 4.7-29.1-3.6z"/>
            <path fill="#1D1D1B" d="M217.9 93.1c-1-1.3-1.8-3.2.3-3.6 1.8-.3 4 .2 5.7.7 2.1.6 4.7 2.4 1.8 4.3-2 1.3-5 .6-6.9-.6-.3-.1-.6-.4-.9-.8z"/>
            <path fill="#F17F6E" d="M196.2 27.8s-2.1-4.1-5.1-3.9c-3.9.2-11.7 10.2-12.2 11.3-.8 1.8 1.5.6 2.3.6 0 0 5.5-7.6 8.9-9.5 1.9-1.1 5.1 1.3 5.1 1.3l1 .2z"/>
            <path fill="#F17F6E" d="M195.5 36.3s.6-4.6-3.1-6.3c-3.8-1.8-10.2 1.3-11.2 2.1-1.7 1.3-5.1 3.6-4.3 4.1 0 0 9.1-4.8 13.3-4.3 2.9.3 4.2 3.8 4.2 3.8l1.1.6z"/>
            <path fill="#F17F6E" d="M194.8 32.4s1.8 4.1.1 6.7c-2.3 3.5-15.9 5.3-17.1 5.1-2.1-.3.2-1.7.7-2.5 0 0 10-.9 13.7-3.1 2-1.2 1.6-5.4 1.6-5.4l1-.8z"/>
            <path fill="#F17F6E" d="M186 32.9l-9.3 18c-.5 1.1-1.8 1.5-2.9 1.1l-6.7-2.8c-1.1-.5-1.7-1.7-1.3-2.8 1.2-3.5 4.1-10.8 9.7-15.9.1-.1.2-.2.4-.3l3-1.8c.1-.1.2-.1.3-.2.6-.2 2.3-.7 4.4.3 1.4.6 2.1 1.6 2.5 2.3.2.7.2 1.5-.1 2.1z"/>
            <path fill="#F59E91" d="M164.7 50.9c-.2 0-.4 0-.7-.1-1.4-.4-2.3-1.8-1.9-3.3 0-.1.6-2.4 1.9-5.5 1.9-4.6 5.1-10.8 10-13.9 3.4-2.1 6.6-2.8 9.4-1.9 3.6 1.1 5.1 4.3 5.3 4.6.6 1.4 0 2.9-1.4 3.5-1.3.6-2.9 0-3.5-1.3 0-.1-.7-1.3-2-1.7-1.6-.5-3.5.5-4.9 1.3-2.9 1.8-5.7 5.8-7.9 11.4-1.1 2.7-1.6 4.8-1.7 4.8-.3 1.3-1.4 2.1-2.6 2.1z"/>
            <path fill="#FFF" d="M181.6 14.2c.2 9.1 7.2 16.3 14.4 16.2 7.3-.1 12.1-7.6 11.9-16.7-.2-9.1-7.9-6.7-15.2-6.6-7.2.2-11.3-2-11.1 7.1z"/>
            <path fill="#1D1D1B" d="M208.1 7.3C206.2 2.6 196.7-3.6 186 3c-8.5 5.3-5.2 14-3.6 17.1 0-.1.1-.1.1-.2-.4-1.9.9-3.9 2.4-4.3 1.8-.5 3.8-1.1 4.6-3.8 0 1.7 1.6 2.4 2.6 2.4 1.2 0 2.1-1 2.4-1.5h.2c.1.5 1.3 1.8 3.8 1.7 2.2-.1 3.2-1.3 3.4-2.2.2.4 1.7 2.2 4 1.8 2.2-.4 3.9-2.6 2.2-6.7z"/>
            <g fill="#1D1D1B" transform="translate(190 18)">
                <circle cx="1.5" cy="1.3" r="1.2"/>
                <circle cx="11.9" cy="1.2" r="1.2"/>
                <path d="M7 7c-.3 0-.5-.2-.5-.5S6.7 6 7 6c.2 0 .4-.1.5-.1 0-.2-.4-1.8-.8-3.1-.1-.2.1-.5.3-.6.2-.1.5.1.6.3.4 1.4.9 3.1.8 3.6-.2.7-.9.9-1.4.9z"/>
            </g>
            <path fill="#FFF" d="M198 63.1c-.5 0-1-.1-1.5-.4-4.6-2.4-8.1-6.5-10.1-11.9-1.9-5.1-.6-10.1.4-13.7.2-.8.4-1.5.5-2.2.4-1.8 2.1-2.9 3.8-2.5 1.8.4 2.9 2.1 2.5 3.8-.2.8-.4 1.6-.6 2.5-.8 3.1-1.7 6.6-.6 9.9 1.4 3.9 3.8 6.7 6.9 8.4 1.6.8 2.2 2.8 1.4 4.4-.4 1.1-1.5 1.7-2.7 1.7z"/>
            <g>
                <g transform="translate(205 35)">
                    <path fill="#FFF" d="M29 11.2c2.4 7.7-1.4 17.5-9.1 19.9-7.7 2.4-16.3-3.7-18.7-11.4-2.4-7.7 2-15.8 9.6-18.2 7.7-2.3 15.9 2 18.2 9.7z"/>
                    <circle cx="11" cy="16.9" r="1.5" fill="#1D1D1B"/>
                    <circle cx="24" cy="15.7" r="1.5" fill="#1D1D1B"/>
                    <path fill="#1D1D1B" d="M18.4 23.5c-.3 0-.6-.2-.6-.5s.2-.6.5-.6c.2 0 .5-.1.6-.2 0-.3-.7-2.2-1.3-3.8-.1-.3 0-.6.3-.8.3-.2.6 0 .8.3.7 1.7 1.4 3.9 1.3 4.5 0 .8-.9 1.1-1.6 1.1z"/>
                </g>
                <path fill="#1D1D1B" d="M234.5 40.5s1.5 3.1-2 3.7c-2.8.5-6.6-6.9-6.6-6.9s-3.5 11-10.8 10c-5.6-.8-4.7 5.6-9 6.7-6.5 1.7-10-19.4 8.9-24.5 13.2-3.6 18.1 5.2 19.5 11z"/>
            </g>
        </g>
        <g>
            <path fill="#F17F6E" d="M102.5 160.2c-.1-.3-.3-.6-.4-.9-3.7-7.5-7.3-14.7-9.8-22.7-1.9-6.4-3.9-12.8-5.8-19.2l-1.2-3.9s-43.4 8.8-57.1 11.6c1.3 5.5-1.4 12.1-8.3 12.7 1 9.5 2.4 18.9 4 28.3 1.1 6.6 2.4 13.1 3.6 19.6.9 4.9 1.6 10.1 3.8 14.6 1 2 2.3 3.9 4 5.4 3.4 2.9 8.8 3.7 12.2.4 2.6-2.6 3.2-6.9 6.4-8.8 5.8-3.4 12.7 3.3 18.7 3.1 4.2-.1 8.3-1.9 11.6-4.5 5.1-4.1 4.1-9.6 9.9-13.1 2.1-1.3 7.5-3.4 9.4-5.1 5.4-4.9 1.6-12.2-1-17.5z"/>
            <path fill="#828798" d="M91.5 158.2c.1 0 .1 0 0 0 .1 0 .1 0 0 0 .1 0 .1 0 0 0z"/>
            <path fill="#F17F6E" d="M73.5 128.5v-1.1l-42.1-17.7c-6.6 11.4-12.5 23.2-18 35.2-2.8 6.1-5.4 12.2-8.1 18.3-2 4.6-4.3 9.2-5.1 14.2-.3 2.2-.3 4.5.2 6.7 1.2 4.2 5.2 8 9.8 7.2 3.6-.6 6.6-3.9 10.3-3.7 4.6.3 6.9 4.7 9.6 8.6.3-.4.7-.9 1.1-1.3 9.8-9.6 24.2-10.1 37.3-10.3.7-7.4 2.8-14.6 4.8-21.8.9-3.3 3.8-5.6 7-6.4-4.3-8.6-6.3-18.4-6.8-27.9z"/>
            <path fill="#FFF" d="M88.4 93.8c-15.5 0-27.2-5-28-5.4-2.8-1.2-4-4.4-2.8-7.2 1.2-2.8 4.4-4 7.2-2.8.4.2 28.8 12.1 52.7-4.2 2.5-1.7 5.9-1 7.6 1.5 1.7 2.5 1 5.9-1.5 7.6-11.9 8.1-24.5 10.5-35.2 10.5z"/>
            <path fill="#F17F6E" d="M25.4 121.5s2.5-48.7 34.7-48.7c25.9 0 26.8 45.8 26.8 45.8s-30.8 24.9-61.5 2.9z"/>
            <path fill="#1D1D1B" d="M121.8 200.8c4-.5 4.5-6 .8-7.6-4.8-2-12-3.3-20.8.4 0 0-6.4 4.6 9.1 6.9 4.8.6 8.3.6 10.9.3zM24.3 225c4.7.8 5.5-6 3.2-9.6-2.8-4.4-7.9-7.9-13-8.7-7-1.2-1.8 7.7-.3 9.9 2.1 3 5.2 6.6 8.7 8 .5.2 1 .4 1.4.4z"/>
            <path fill="#FFF" d="M77.8 152.4c-1 0-2-.3-2.9-.9C56.3 139.7 50.5 124 48.8 113c-1.8-11.9.9-21.1 1-21.5.9-2.9 3.9-4.5 6.8-3.7 2.9.9 4.5 3.9 3.7 6.8-.4 1.2-8.1 29.5 20.4 47.7 2.5 1.6 3.3 5 1.7 7.5-1 1.7-2.8 2.6-4.6 2.6z"/>
            <g>
                <path fill="#1D1D1B" d="M43.6 68.7s2.5 6.9-5.3 10.3c-7.9 3.4-7.6 16.6-2.6 17.3 5.9.8 9.9-6.1 12.2-13.7 2.2-7.6-1.2-15.1-3.6-13.9h-.7zM70.3 59.2s2.4 6.9 10.7 4.6c8.2-2.4 19 6.1 13 11.8-1.9 1.8-11.6 1.6-18.1-2.9-6.5-4.5-8.6-12.5-6-13l.4-.5z"/>
                <g transform="translate(43 48)">
                    <path fill="#FFF" d="M29 9.5c2.8 7.5-.4 17.6-7.9 20.4-7.5 2.8-16.5-2.7-19.4-10.2-2.8-7.5 1-15.9 8.5-18.7 7.6-2.8 16 1 18.8 8.5z"/>
                    <circle cx="11.3" cy="16.3" r="1.5" fill="#1D1D1B"/>
                    <circle cx="24.2" cy="14.3" r="1.5" fill="#1D1D1B"/>
                    <path fill="#1D1D1B" d="M19.1 22.5c-.3 0-.5-.2-.6-.5 0-.3.2-.6.5-.7.2 0 .5-.1.6-.2 0-.3-.8-2.2-1.5-3.7-.1-.3 0-.6.3-.8.3-.1.6 0 .8.3.8 1.7 1.7 3.8 1.6 4.4-.1.7-.9 1.1-1.7 1.2.1 0 0 0 0 0z"/>
                </g>
                <path fill="#1D1D1B" d="M50.5 55.3s.8 3.7-.4 8.6c-.8 3.5-3.5 8.9-6.3 7.1-9.9-6.5-4.4-19.5.8-23.6 5.5-4.4 14.1-4.5 20.8-.6 13.1 7.5-3.3 12.5-14.9 8.5z"/>
            </g>
        </g>
        <g>
            <path fill="#7CC5AB" d="M609.6 168.8c-2.6-9.6-5.1-18.8-6-28.7-.7-7.9-1.5-15.9-2.2-23.8-.2-1.6-.3-3.2-.5-4.9h-80.5c-2 15.5-3 31.1-3.5 46.8-.2 7.9-.3 15.8-.4 23.7-.1 6-.5 12.1 1 17.9.7 2.6 1.7 5.1 3.4 7.2 3.2 4.1 9.4 6.4 14.1 3.3 3.7-2.4 5.4-7.3 9.5-8.8 7.5-2.7 14 6.8 21 8 5 .8 10.1-.2 14.5-2.6 6.9-3.6 7-10.2 14.6-12.9 2.8-1 9.5-2.2 12.1-3.7 7.5-4.4 4.9-13.9 3.1-20.6 0-.1-.1-.5-.2-.9z"/>
            <g transform="translate(500 3)">
                <path fill="#FFF" d="M76 74.5h-.4c-15.4-.1-27.1-5.1-27.5-5.3-2.8-1.2-4-4.4-2.8-7.2 1.2-2.8 4.4-4 7.2-2.8 1.6.7 40.1 16.8 65.8-16.7 1.8-2.4 5.3-2.8 7.7-1 2.4 1.8 2.8 5.3 1 7.7-16.2 20.9-36.6 25.3-51 25.3z"/>
                <path fill="#7CC5AB" d="M20.4 108.5s3-57.8 41.2-57.8 39.3 57.8 39.3 57.8-30.3 26.6-80.5 0z"/>
                <circle cx="70.2" cy="63.2" r="1.5" fill="#525252"/>
                <circle cx="73.1" cy="72.3" r="1.5" fill="#525252"/>
                <circle cx="77.2" cy="81.7" r="1.5" fill="#525252"/>
                <path fill="#FFF" d="M74.4 31.9c3.6 7.2 1.5 17.5-5.6 21.1-7.2 3.6-16.7-.9-20.3-8.1-3.6-7.2-.7-15.9 6.4-19.5 7.2-3.6 15.9-.7 19.5 6.5z"/>
                <circle cx="57.6" cy="40.6" r="1.5" fill="#1D1D1B"/>
                <circle cx="70.2" cy="37.2" r="1.5" fill="#1D1D1B"/>
                <path fill="#1D1D1B" d="M126.9 204.8c4-.5 4.5-6 .8-7.6-4.8-2-12-3.3-20.8.4 0 0-6.4 4.6 9.1 6.9 4.7.7 8.2.7 10.9.3zM44.8 234.4c3.6 1.6 7-2.7 4.7-6-3-4.2-8.5-9.1-17.8-10.7 0 0-7.8.5 4.1 10.7 3.6 3.1 6.6 4.9 9 6z"/>
                <path fill="#8199CE" d="M40.9 127.5c-4.4 10.7-16.7 15.8-27.5 11.4C2.7 134.5-2.4 122.2 2 111.4c4.4-10.7 14.6-10.8 25.4-6.3 10.8 4.5 17.9 11.7 13.5 22.4z"/>
                <path fill="#9AACD9" d="M36.6 124.3c-5.8 8.4-17.7 10.5-26.4 4.8-8.8-5.8-11.1-17.3-5.3-25.7 5.8-8.4 14.9-6.6 23.7-.8 8.8 5.7 13.9 13.2 8 21.7z"/>
                <circle cx="9.999" cy="120.678" r="1" fill="#8199CE" transform="rotate(-78.392 10 120.678)"/>
                <path fill="#8199CE" d="M41.5 118c-.3 0-.6-.1-.7-.4-.3-.4-.2-1 .2-1.3 12.2-8.9 27.8-23.5 32.5-43 2.8-11.6.4-19.6.4-19.7-.2-.5.1-1 .6-1.1.5-.2 1 .1 1.1.6.1.3 9.9 33.2-33.6 64.7-.1.1-.3.2-.5.2z"/>
                <g fill="#1D1D1B">
                    <path d="M120.4 114.6h-.4c-.8-.2-1.3-1.1-1.1-1.9L146.7 1.5c.2-.8 1.1-1.3 1.9-1.1.8.2 1.3 1.1 1.1 1.9l-27.8 111.2c-.2.6-.8 1.1-1.5 1.1z"/>
                    <path d="M147.7 3.6s17.5 8.3 29.7 7c.6-.1.8.7.3 1L164.5 18s7.6 8.2 14.9 8.9c.6.1.7.8.2 1-5.2 2.2-19.1 5.9-36.5-5.9l4.6-18.4z"/>
                </g>
                <path fill="#FFF" d="M102.1 107.6c-13.1 0-24-4.3-31.9-8.9C56.9 90.9 49.3 80.8 49 80.3c-1.8-2.4-1.3-5.9 1.2-7.6 2.4-1.8 5.8-1.3 7.6 1.1 1.1 1.4 26.4 34.6 65.3 18.4 2.8-1.2 6 .2 7.1 3 1.2 2.8-.2 6-3 7.1-9 3.8-17.4 5.3-25.1 5.3z"/>
            </g>
            <path fill="#1D1D1B" d="M557 30s3.7 6.1-5.7 8.6.7 12.2-14.2 15c-14.9 2.8-5.6 26.7-33.8 21.7-29.7-5.3-11.7-32.1 2.4-31 10.7.9 11.1-23.5 28.9-17.2 10.1 3.6 17-10.3 32.5-3.4 15.3 6.9-1.2 15.8-10.1 6.3zM565.9 48.9c-.3 0-.5-.2-.6-.4-.1-.3.1-.6.4-.7.2-.1.5-.2.6-.3-.1-.3-1-2.1-1.9-3.5-.2-.3-.1-.6.2-.8.3-.2.6-.1.8.2.9 1.6 2.1 3.6 2.1 4.2 0 .8-.8 1.2-1.4 1.4-.1-.2-.1-.1-.2-.1z"/>
            <path fill="#7CC5AB" d="M550.5 55.7s-3.2-4.1 2.2-4c5.5.1 13.8 2.8 14.9 7.8l-17.1-3.8z"/>
            <path fill="#7CC5AB" d="M573.7 56.2s1.5-5.4-3-4.4c-4.5 1.1-10.8 4.9-10.8 9.3l13.8-4.9z"/>
        </g>
        <g>
            <path fill="#CA9E67" d="M116.4 96.7c-.6 0-.9-.5-.9-1l3.7-44.4c0-.5.5-.9 1-.8.5 0 .9.5.8 1l-3.7 44.4c0 .4-.4.8-.9.8z"/>
            <g fill="#FFF">
                <g opacity=".53">
                    <path d="M116.6 49.4c-2.2-2.1-8-1.9-10.1-1.1-4 1.6-6 3.4-10.6 2.8-5-.7-10-3.5-13.3-7.2-7.6-8.4 1.6-19.4 11.5-17.7 3.2.5 6 2.5 9.4 2.2 2.3-.3 4.4-1.4 6.7-1.9 2.7-.6 8.4.7 11 2 0 0-6-.7-7.8 8.8-2.1 9.4 2.3 9.3 3.2 12.1z"/>
                    <path d="M97.7 51.9c-.6 0-1.2 0-1.9-.1-5-.7-10.2-3.5-13.7-7.4-3.3-3.6-3.9-8.2-1.7-12.2 2.6-4.8 8.3-7.5 13.7-6.6 1.3.2 2.5.7 3.7 1.1 1.8.7 3.6 1.3 5.5 1.1 1.2-.1 2.4-.5 3.6-1 1-.3 1.9-.7 3-.9 2.9-.6 8.9.8 11.4 2l3.5 1.7-3.9-.5c-.2 0-5.4-.5-7.1 8.3-1.3 6.4.4 8.2 1.9 9.7.6.7 1.2 1.3 1.6 2.2l.9 2.6-2-1.9c-2-1.9-7.4-1.8-9.4-1-1 .4-1.8.8-2.7 1.2-2 .8-3.8 1.7-6.4 1.7zM92 26.6c-4.2 0-8.5 2.4-10.5 6.1-2 3.6-1.4 7.5 1.5 10.7 3.4 3.7 8.2 6.3 12.9 7 3.3.5 5.1-.4 7.6-1.5.8-.4 1.7-.8 2.7-1.2 1.5-.6 5.2-.9 8.1-.1-1.5-1.6-3.1-3.9-1.9-10.5 1.2-5.9 3.9-8.1 6-8.9-2.8-.9-6.5-1.5-8.4-1.1-.9.2-1.8.5-2.8.9-1.2.4-2.5.9-3.9 1-2.2.2-4.2-.5-6.1-1.1-1.1-.4-2.3-.8-3.5-1-.4-.2-1.1-.3-1.7-.3z"/>
                </g>
                <path d="M120.4 51.7h-.2c-4.5-.1-8-5.6-7.8-12.2.1-3.2 1-6.1 2.6-8.3 1.6-2.3 3.7-3.5 6-3.4 4.5.1 8 5.6 7.8 12.2-.1 3.2-1 6.1-2.6 8.3-1.5 2.2-3.6 3.4-5.8 3.4zm.4-22.6c-1.7 0-3.4 1-4.7 2.9-1.4 2-2.2 4.7-2.3 7.6-.2 5.9 2.7 10.7 6.5 10.8 1.8.1 3.5-1 4.8-2.9 1.4-2 2.2-4.7 2.3-7.6.2-5.9-2.7-10.7-6.5-10.8h-.1z"/>
            </g>
            <g fill="#FFF">
                <path d="M94.3 47c-.1 0-.2 0-.3-.1-5.4-5.8-5.3-16.3-5.3-16.8 0-.2.2-.4.4-.4s.4.2.4.4c0 .1 0 10.7 5.1 16.2.2.2.1.4 0 .6-.1.1-.2.1-.3.1zM97 43c-.1 0-.3-.1-.3-.2-3.6-5.3-2.6-11.8-2.5-12.1 0-.2.2-.4.5-.3.2 0 .4.2.3.5 0 .1-1 6.4 2.4 11.5.1.2.1.4-.1.6H97z"/>
                <path d="M89.1 42c-.7 0-1.4-.1-2.1-.2-.2 0-.4-.3-.3-.5 0-.2.3-.4.5-.3 6.2 1.2 11.5-4.1 11.5-4.2.2-.2.4-.2.6 0 .2.2.2.4 0 .6-.1.2-4.5 4.6-10.2 4.6zM92.3 34.9c-.2 0-.4-.1-.4-.3-.1-.2.1-.4.3-.5 0 0 3-.8 5.1-2.5.2-.1.4-.1.6.1.1.2.1.4-.1.6-2.2 1.8-5.3 2.6-5.4 2.7 0-.1-.1-.1-.1-.1z"/>
            </g>
            <path fill="#FFF" d="M103.1 41.4c-.2 0-.3-.1-.4-.2-.1-.2 0-.5.2-.6.1-.1 3.7-1.8 6.3-1.3.2 0 .4.3.3.5 0 .2-.3.4-.5.3-2.4-.5-5.7 1.2-5.8 1.2l-.1.1zM105.5 43.4c-.2 0-.3-.1-.4-.3-.1-.2 0-.5.3-.5.2-.1 3.7-1.3 6-.4.2.1.3.3.2.5-.1.2-.3.3-.5.2-2-.8-5.4.4-5.5.4 0 .1 0 .1-.1.1z"/>
            <path fill="#FFF" d="M108.9 45.1c-.1 0-.2 0-.3-.1-2.7-2.1-1.2-7.8-1.1-8 .1-.2.3-.3.5-.3.2.1.3.3.3.5 0 .1-1.4 5.3.9 7.1.2.1.2.4.1.6-.2.1-.3.2-.4.2z"/>
        </g>
    </g>
</svg>
